<svg width="24" height="25" viewBox="0 0 24 25" fill="none" xmlns="http://www.w3.org/2000/svg">
<path fill-rule="evenodd" clip-rule="evenodd" d="M12.6377 3.77331C12.2707 4.07023 11.7461 4.07023 11.3792 3.77331C10.5771 3.13325 9.5036 2.94733 8.533 3.28039C7.5624 3.61345 6.82924 4.41932 6.58916 5.417C6.50426 5.80518 6.20034 6.10792 5.81184 6.19132C4.66972 6.42313 3.71779 7.20798 3.27251 8.28496C2.82723 9.36195 2.94697 10.5899 3.59191 11.5606C3.82431 11.9008 3.82431 12.3488 3.59191 12.689C2.94697 13.6597 2.82723 14.8876 3.27251 15.9646C3.71779 17.0416 4.66972 17.8265 5.81184 18.0583C6.20034 18.1417 6.50426 18.4444 6.58916 18.8326C6.83054 19.8294 7.56423 20.6339 8.53464 20.9659C9.50504 21.2979 10.5778 21.1113 11.3792 20.4713C11.7461 20.1744 12.2707 20.1744 12.6377 20.4713C13.4404 21.1113 14.5147 21.2966 15.4855 20.9625C16.4563 20.6283 17.1889 19.8211 17.4277 18.8226C17.5126 18.4344 17.8165 18.1317 18.205 18.0483C19.3473 17.8163 20.2992 17.0312 20.7443 15.9539C21.1894 14.8767 21.0693 13.6486 20.4239 12.678C20.1924 12.3382 20.1924 11.8914 20.4239 11.5516C21.0693 10.581 21.1894 9.35287 20.7443 8.27563C20.2992 7.19839 19.3473 6.41326 18.205 6.18132C17.8165 6.09792 17.5126 5.79517 17.4277 5.40699C17.1863 4.41018 16.4526 3.60565 15.4822 3.27367C14.5118 2.94169 13.4391 3.12823 12.6377 3.76831V3.77331Z" stroke="white" stroke-width="1.5" stroke-linecap="round" stroke-linejoin="round"/>
<path d="M12.0085 3.99438V20.2442" stroke="white" stroke-width="1.5" stroke-linecap="round" stroke-linejoin="round"/>
<path d="M15.0098 16.1214C15.0098 15.0164 15.9056 14.1206 17.0106 14.1206" stroke="white" stroke-width="1.5" stroke-linecap="round" stroke-linejoin="round"/>
<path d="M9.00718 8.11816C9.00718 9.22319 8.11138 10.119 7.00635 10.119" stroke="white" stroke-width="1.5" stroke-linecap="round" stroke-linejoin="round"/>
<path d="M9.00718 16.1214C9.00718 15.0164 8.11138 14.1206 7.00635 14.1206" stroke="white" stroke-width="1.5" stroke-linecap="round" stroke-linejoin="round"/>
<path d="M15.0098 8.11816C15.0098 9.22319 15.9056 10.119 17.0106 10.119" stroke="white" stroke-width="1.5" stroke-linecap="round" stroke-linejoin="round"/>
</svg>
