<svg width="24" height="25" viewBox="0 0 24 25" fill="none" xmlns="http://www.w3.org/2000/svg">
<path d="M21.0037 12.1196C21.0037 17.0922 16.9726 21.1233 12 21.1233C7.02733 21.1233 2.99622 17.0922 2.99622 12.1196C2.99622 7.14696 7.02733 3.11584 12 3.11584" stroke="white" stroke-width="1.5" stroke-linecap="round" stroke-linejoin="round"/>
<path fill-rule="evenodd" clip-rule="evenodd" d="M18.3426 2.50759C18.4745 2.26608 18.7277 2.11584 19.0029 2.11584C19.2781 2.11584 19.5313 2.26608 19.6632 2.50759L20.2464 3.57303C20.3153 3.69998 20.4196 3.80423 20.5465 3.87315L21.611 4.4554C21.8529 4.58742 22.0035 4.84104 22.0035 5.11667C22.0035 5.3923 21.8529 5.64593 21.611 5.77795L20.5465 6.36119C20.4194 6.42984 20.3151 6.53416 20.2464 6.66132L19.6632 7.72576C19.5313 7.96727 19.2781 8.1175 19.0029 8.1175C18.7277 8.1175 18.4745 7.96727 18.3426 7.72576L17.7594 6.66032C17.6907 6.53316 17.5864 6.42884 17.4592 6.36019L16.3948 5.77795C16.1529 5.64593 16.0023 5.3923 16.0023 5.11667C16.0023 4.84104 16.1529 4.58742 16.3948 4.4554L17.4592 3.87315C17.5862 3.80423 17.6904 3.69998 17.7594 3.57303L18.3426 2.50759Z" stroke="white" stroke-width="1.5" stroke-linecap="round" stroke-linejoin="round"/>
<path d="M13.2505 10.1188H15.7515C16.0278 10.1188 16.2517 10.3427 16.2517 10.619V15.6211C16.2517 15.8973 16.0278 16.1213 15.7515 16.1213H13.2505" stroke="white" stroke-width="1.5" stroke-linecap="round" stroke-linejoin="round"/>
<path d="M10.2493 16.1213H7.74826C7.472 16.1213 7.24805 15.8973 7.24805 15.6211V12.6198C7.24805 12.3436 7.472 12.1196 7.74826 12.1196H10.2493" stroke="white" stroke-width="1.5" stroke-linecap="round" stroke-linejoin="round"/>
<path fill-rule="evenodd" clip-rule="evenodd" d="M13.2505 16.1213H10.2493V7.61776C10.2493 7.3415 10.4732 7.11755 10.7495 7.11755H12.7503C13.0266 7.11755 13.2505 7.3415 13.2505 7.61776V16.1213Z" stroke="white" stroke-width="1.5" stroke-linecap="round" stroke-linejoin="round"/>
</svg>
