<svg width="24" height="25" viewBox="0 0 24 25" fill="none" xmlns="http://www.w3.org/2000/svg">
<rect x="9.00854" y="9.11987" width="6.001" height="6.001" rx="1.49906" stroke="white" stroke-width="1.5" stroke-linecap="round" stroke-linejoin="round"/>
<path d="M21.012 15.1209H18.0107" stroke="white" stroke-width="1.5" stroke-linecap="round" stroke-linejoin="round"/>
<path d="M6.00577 9.11837H3.00452" stroke="white" stroke-width="1.5" stroke-linecap="round" stroke-linejoin="round"/>
<path d="M6.00577 15.1209H3.00452" stroke="white" stroke-width="1.5" stroke-linecap="round" stroke-linejoin="round"/>
<path d="M9.00704 3.11584V6.11709" stroke="white" stroke-width="1.5" stroke-linecap="round" stroke-linejoin="round"/>
<path d="M9.00704 18.1221V21.1234" stroke="white" stroke-width="1.5" stroke-linecap="round" stroke-linejoin="round"/>
<path d="M15.0095 18.1221V21.1234" stroke="white" stroke-width="1.5" stroke-linecap="round" stroke-linejoin="round"/>
<path d="M12.009 18.1221V21.1234" stroke="white" stroke-width="1.5" stroke-linecap="round" stroke-linejoin="round"/>
<path d="M11.0078 6.11713H9.00699C7.34944 6.11713 6.00574 7.46083 6.00574 9.11838V15.1209C6.00574 16.7784 7.34944 18.1221 9.00699 18.1221H15.0095C16.667 18.1221 18.0107 16.7784 18.0107 15.1209V13.12" stroke="white" stroke-width="1.5" stroke-linecap="round" stroke-linejoin="round"/>
<path d="M14.0092 6.11713V6.11713C16.2192 6.11713 18.0108 7.90873 18.0108 10.1188V10.1188" stroke="white" stroke-width="1.5" stroke-linecap="round" stroke-linejoin="round"/>
<path d="M14.0092 3.11584V3.11584C17.8768 3.11584 21.0121 6.25116 21.0121 10.1188V10.1188" stroke="white" stroke-width="1.5" stroke-linecap="round" stroke-linejoin="round"/>
<path d="M6.00577 12.1204H3.00452" stroke="white" stroke-width="1.5" stroke-linecap="round" stroke-linejoin="round"/>
</svg>
