<svg width="24" height="25" viewBox="0 0 24 25" fill="none" xmlns="http://www.w3.org/2000/svg">
<path d="M15.2274 12.0967H13.2698V19.0598H10.3795V12.0967H9V9.60054H10.3795V8.024C10.3489 7.62801 10.4044 7.23011 10.5422 6.8576C10.6799 6.48509 10.8966 6.1468 11.1775 5.86597C11.4583 5.58513 11.7966 5.3684 12.1691 5.23066C12.5416 5.09291 12.9395 5.03741 13.3355 5.06798H15.5033V7.49848H13.9267C13.8423 7.4946 13.758 7.50951 13.68 7.54212C13.602 7.57473 13.5322 7.62424 13.4757 7.68707C13.4191 7.7499 13.3772 7.82449 13.353 7.90547C13.3288 7.98646 13.3228 8.07181 13.3355 8.15538V9.60054H15.5689L15.2274 12.0967Z" fill="#4267B2"/>
</svg>
