<svg width="48" height="49" viewBox="0 0 48 49" fill="none" xmlns="http://www.w3.org/2000/svg">
<g clip-path="url(#clip0_2_493)">
<path d="M46.9899 24.5687C46.9899 22.6021 46.8305 21.1671 46.4855 19.6789H24.0527V28.5549H37.2202C36.9549 30.7607 35.5213 34.0826 32.3355 36.3147L32.2909 36.6119L39.3837 42.1123L39.8751 42.1614C44.3881 37.9891 46.9899 31.8502 46.9899 24.5687Z" fill="#4285F4"/>
<path d="M24.0527 47.9548C30.5037 47.9548 35.9193 45.8286 39.8751 42.1614L32.3355 36.3148C30.3179 37.7232 27.61 38.7065 24.0527 38.7065C17.7344 38.7065 12.3718 34.5344 10.4602 28.7676L10.18 28.7914L2.80482 34.505L2.70837 34.7734C6.63738 42.5864 14.7079 47.9548 24.0527 47.9548Z" fill="#34A853"/>
<path d="M10.4603 28.7676C9.95589 27.2794 9.66398 25.6848 9.66398 24.0372C9.66398 22.3895 9.95589 20.795 10.4337 19.3068L10.4204 18.9899L2.95275 13.1844L2.70842 13.3008C1.08909 16.543 0.159912 20.1838 0.159912 24.0372C0.159912 27.8906 1.08909 31.5313 2.70842 34.7735L10.4603 28.7676Z" fill="#FBBC05"/>
<path d="M24.0527 9.36769C28.5392 9.36769 31.5656 11.3077 33.2912 12.9288L40.0343 6.33819C35.893 2.48482 30.5037 0.119629 24.0527 0.119629C14.7079 0.119629 6.63738 5.48775 2.70837 13.3008L10.4337 19.3068C12.3718 13.54 17.7344 9.36769 24.0527 9.36769Z" fill="#EB4335"/>
</g>
<defs>
<clipPath id="clip0_2_493">
<rect width="46.8571" height="48" fill="white" transform="translate(0.157471 0.119629)"/>
</clipPath>
</defs>
</svg>
