<svg width="194" height="33" viewBox="0 0 194 33" fill="none" xmlns="http://www.w3.org/2000/svg">
<path d="M10.9602 20.9436C10.9602 20.2752 10.766 19.7062 10.3776 19.2366C9.98927 18.7669 9.48349 18.4011 8.86029 18.1392C8.24612 17.8773 7.56421 17.6424 6.81456 17.4347C6.06492 17.2179 5.31527 16.9831 4.56562 16.7302C3.81598 16.4683 3.12955 16.1522 2.50635 15.7819C1.89218 15.4116 1.39091 14.8877 1.00254 14.2103C0.614169 13.5329 0.419983 12.7246 0.419983 11.7852C0.419983 10.3221 0.993508 9.08019 2.14056 8.05959C3.28761 7.02995 4.79594 6.51514 6.66554 6.51514C7.37003 6.51514 8.03839 6.60546 8.67062 6.78609C9.31188 6.9577 9.84476 7.16543 10.2693 7.40929C10.6938 7.64412 11.0731 7.88347 11.4073 8.12733C11.7415 8.36216 11.9808 8.56538 12.1253 8.73698L12.3556 9.00794L10.9602 10.4034C10.9241 10.3492 10.8699 10.2814 10.7976 10.2001C10.7254 10.1098 10.5538 9.95629 10.2828 9.73952C10.0119 9.51373 9.72283 9.31502 9.41575 9.14342C9.1177 8.96278 8.71578 8.80472 8.20999 8.66924C7.71324 8.52473 7.19842 8.45248 6.66554 8.45248C5.39204 8.45248 4.37595 8.77763 3.61727 9.42792C2.86763 10.0782 2.4928 10.864 2.4928 11.7852C2.4928 12.4536 2.68699 13.0226 3.07536 13.4923C3.46373 13.9619 3.96952 14.3277 4.59272 14.5896C5.21592 14.8516 5.90234 15.0909 6.65199 15.3077C7.40164 15.5154 8.14677 15.7502 8.88738 16.0122C9.63703 16.2651 10.3235 16.5767 10.9467 16.947C11.5699 17.3173 12.0756 17.8411 12.464 18.5185C12.8524 19.1869 13.0466 19.9952 13.0466 20.9436C13.0466 22.5874 12.4685 23.9241 11.3124 24.9537C10.1564 25.9744 8.55772 26.4847 6.51651 26.4847C5.68558 26.4847 4.89529 26.3853 4.14564 26.1866C3.39599 25.9789 2.78182 25.7395 2.30313 25.4686C1.82444 25.1886 1.39994 24.9041 1.02964 24.6151C0.659328 24.326 0.401919 24.0822 0.257409 23.8835L0 23.5719L1.2735 22.1629C1.30962 22.2171 1.37285 22.3029 1.46317 22.4203C1.56252 22.5287 1.77025 22.7229 2.08637 23.0029C2.40248 23.2738 2.74118 23.5132 3.10246 23.7209C3.47276 23.9196 3.96952 24.1093 4.59272 24.2899C5.21592 24.4615 5.85718 24.5473 6.51651 24.5473C7.94355 24.5473 9.04093 24.2176 9.80864 23.5583C10.5763 22.89 10.9602 22.0184 10.9602 20.9436Z" fill="#060011"/>
<path d="M20.4708 10.7692C18.9444 12.3136 18.1812 14.2239 18.1812 16.4999C18.1812 18.7759 18.9444 20.6862 20.4708 22.2306C21.9972 23.7751 23.8713 24.5473 26.0931 24.5473C28.315 24.5473 30.1891 23.7751 31.7155 22.2306C33.2419 20.6862 34.0051 18.7759 34.0051 16.4999C34.0051 14.2239 33.2419 12.3136 31.7155 10.7692C30.1891 9.2247 28.315 8.45248 26.0931 8.45248C23.8713 8.45248 21.9972 9.2247 20.4708 10.7692ZM33.1651 9.42792C35.107 11.3698 36.0779 13.7271 36.0779 16.4999C36.0779 19.2727 35.107 21.63 33.1651 23.5719C31.2233 25.5137 28.8659 26.4847 26.0931 26.4847C23.3203 26.4847 20.963 25.5137 19.0212 23.5719C17.0793 21.63 16.1084 19.2727 16.1084 16.4999C16.1084 13.7271 17.0793 11.3698 19.0212 9.42792C20.963 7.48607 23.3203 6.51514 26.0931 6.51514C28.8659 6.51514 31.2233 7.48607 33.1651 9.42792Z" fill="#060011"/>
<path d="M42.3235 23.5719C40.3816 21.63 39.4107 19.2727 39.4107 16.4999C39.4107 13.7271 40.3816 11.3698 42.3235 9.42792C44.2653 7.48607 46.6226 6.51514 49.3954 6.51514C50.3799 6.51514 51.3237 6.65513 52.2269 6.93512C53.1301 7.20608 53.8752 7.53574 54.4623 7.92411C55.0584 8.31248 55.5778 8.70537 56.0203 9.10277C56.4719 9.50018 56.7971 9.83887 56.9958 10.1189L57.3074 10.5388L55.9119 11.7852C55.8577 11.6949 55.7765 11.5775 55.6681 11.433C55.5597 11.2795 55.3068 11.013 54.9094 10.6337C54.512 10.2543 54.0785 9.92016 53.6088 9.63114C53.1482 9.33309 52.5385 9.06213 51.7798 8.81827C51.0212 8.57441 50.2264 8.45248 49.3954 8.45248C47.1736 8.45248 45.2995 9.2247 43.7731 10.7692C42.2467 12.3136 41.4835 14.2239 41.4835 16.4999C41.4835 18.7759 42.2467 20.6862 43.7731 22.2306C45.2995 23.7751 47.1736 24.5473 49.3954 24.5473C50.2264 24.5473 51.0212 24.4344 51.7798 24.2086C52.5385 23.9738 53.1662 23.6938 53.663 23.3687C54.1688 23.0435 54.6113 22.7229 54.9907 22.4068C55.37 22.0816 55.641 21.7971 55.8036 21.5532L56.061 21.2145L57.4428 22.4745C57.3706 22.5829 57.2577 22.7274 57.1041 22.908C56.9596 23.0796 56.63 23.3957 56.1152 23.8564C55.6094 24.317 55.072 24.728 54.503 25.0892C53.934 25.4505 53.1843 25.7757 52.254 26.0647C51.3328 26.3447 50.3799 26.4847 49.3954 26.4847C46.6226 26.4847 44.2653 25.5137 42.3235 23.5719Z" fill="#060011"/>
<path d="M61.4666 26.2137V6.78609H63.5529V26.2137H61.4666Z" fill="#060011"/>
<path d="M79.9187 18.8572L76.1795 9.69888L72.4268 18.8572H79.9187ZM80.7587 20.8081H71.6003L69.3785 26.2137H67.1566L75.2041 6.78609H77.1414L85.1888 26.2137H82.9805L80.7587 20.8081Z" fill="#060011"/>
<path d="M100.877 26.2137H88.8061V6.78609H90.8925V24.2764H100.877V26.2137Z" fill="#060011"/>
<rect x="105.502" y="0.5" width="87.5808" height="32" rx="16" fill="url(#paint0_linear_469_159)"/>
<path d="M124.18 22.9715L119.375 10.0197H122.337L125.661 19.6387L128.994 10.0197H131.956L127.142 22.9715H124.18Z" fill="white"/>
<path d="M134.349 22.9715V10.0197H137.131V22.9715H134.349Z" fill="white"/>
<path d="M146.47 19.1781C146.47 18.7445 146.25 18.3953 145.81 18.1304C145.377 17.8654 144.844 17.6457 144.212 17.471C143.585 17.2904 142.959 17.0797 142.333 16.8388C141.713 16.598 141.183 16.2006 140.743 15.6466C140.304 15.0926 140.084 14.3912 140.084 13.5422C140.084 12.4945 140.503 11.6003 141.339 10.8597C142.182 10.1191 143.275 9.74878 144.618 9.74878C145.148 9.74878 145.66 9.812 146.153 9.93845C146.647 10.0589 147.051 10.2034 147.364 10.372C147.683 10.5346 147.96 10.7031 148.195 10.8778C148.436 11.0464 148.607 11.1939 148.71 11.3203L148.872 11.501L147.21 13.2622C147.138 13.1779 147.036 13.0755 146.903 12.9551C146.777 12.8287 146.506 12.6631 146.09 12.4583C145.675 12.2536 145.247 12.1513 144.808 12.1513C144.278 12.1513 143.85 12.2867 143.525 12.5577C143.206 12.8287 143.047 13.1568 143.047 13.5422C143.047 13.9757 143.263 14.3249 143.697 14.5899C144.136 14.8488 144.666 15.0686 145.286 15.2492C145.913 15.4298 146.539 15.6406 147.165 15.8814C147.797 16.1223 148.333 16.5197 148.773 17.0736C149.212 17.6276 149.432 18.3291 149.432 19.1781C149.432 20.3763 148.996 21.3548 148.122 22.1134C147.255 22.8721 146.057 23.2515 144.528 23.2515C143.926 23.2515 143.342 23.1762 142.776 23.0257C142.216 22.8812 141.752 22.7065 141.385 22.5018C141.023 22.2971 140.704 22.0894 140.427 21.8786C140.15 21.6679 139.952 21.4902 139.831 21.3457L139.623 21.1199L141.294 19.4581C141.379 19.5544 141.496 19.6809 141.647 19.8374C141.803 19.9879 142.146 20.1927 142.676 20.4516C143.206 20.7105 143.76 20.8399 144.338 20.8399C145.006 20.8399 145.527 20.6834 145.901 20.3703C146.28 20.0572 146.47 19.6598 146.47 19.1781Z" fill="white"/>
<path d="M155.628 13.479C154.821 14.2978 154.417 15.3064 154.417 16.5046C154.417 17.6968 154.821 18.7024 155.628 19.5213C156.434 20.3402 157.416 20.7496 158.572 20.7496C159.734 20.7496 160.719 20.3402 161.525 19.5213C162.332 18.7024 162.736 17.6968 162.736 16.5046C162.736 15.3064 162.332 14.2978 161.525 13.479C160.719 12.654 159.734 12.2416 158.572 12.2416C157.416 12.2416 156.434 12.654 155.628 13.479ZM153.577 21.2735C152.223 19.9488 151.545 18.3562 151.545 16.4956C151.545 14.635 152.223 13.0454 153.577 11.7268C154.938 10.4081 156.603 9.74878 158.572 9.74878C160.547 9.74878 162.212 10.4081 163.567 11.7268C164.927 13.0454 165.608 14.635 165.608 16.4956C165.608 18.3562 164.927 19.9488 163.567 21.2735C162.212 22.5921 160.547 23.2515 158.572 23.2515C156.603 23.2515 154.938 22.5921 153.577 21.2735Z" fill="white"/>
<path d="M168.57 22.9715V10.0197H174.305C175.588 10.0197 176.647 10.4322 177.484 11.2571C178.327 12.076 178.749 13.0815 178.749 14.2738C178.749 14.7916 178.668 15.2763 178.505 15.7279C178.342 16.1795 178.15 16.5438 177.927 16.8208C177.71 17.0977 177.487 17.3356 177.259 17.5343C177.03 17.733 176.834 17.8685 176.672 17.9407L176.437 18.0672L179.209 22.9715H176.247L173.754 18.4375H171.352V22.9715H168.57ZM175.976 14.2738C175.976 13.768 175.807 13.3495 175.47 13.0183C175.139 12.6872 174.721 12.5216 174.215 12.5216H171.352V15.9447H174.215C174.721 15.9447 175.139 15.7851 175.47 15.466C175.807 15.1408 175.976 14.7434 175.976 14.2738Z" fill="white"/>
<defs>
<linearGradient id="paint0_linear_469_159" x1="105.502" y1="32.5" x2="195.824" y2="13.6112" gradientUnits="userSpaceOnUse">
<stop stop-color="#1C007F"/>
<stop offset="0.251139" stop-color="#A70096"/>
<stop offset="0.500169" stop-color="#FF005E"/>
<stop offset="0.751766" stop-color="#FF7800"/>
<stop offset="1" stop-color="#FFBB00"/>
</linearGradient>
</defs>
</svg>
