<svg width="24" height="25" viewBox="0 0 24 25" fill="none" xmlns="http://www.w3.org/2000/svg">
<path d="M14.4093 12.1171C14.4093 13.4459 13.3313 14.5239 12.0025 14.5239C10.6738 14.5239 9.59575 13.4459 9.59575 12.1171C9.59575 10.7884 10.6738 9.71035 12.0025 9.71035C13.3313 9.71035 14.4093 10.7934 14.4093 12.1171ZM12.0025 4.11963C7.5901 4.11963 4 7.70973 4 12.1221C4 16.5345 7.5901 20.1196 12.0025 20.1196C13.6171 20.1196 15.1765 19.6383 16.5102 18.7257L16.5353 18.7107L15.4572 17.4571L15.4372 17.4672C14.4093 18.124 13.226 18.475 12.0025 18.475C8.49766 18.475 5.64463 15.622 5.64463 12.1171C5.64463 8.61226 8.49766 5.75924 12.0025 5.75924C15.5074 5.75924 18.3604 8.61226 18.3604 12.1171C18.3604 12.5734 18.3103 13.0297 18.21 13.486C18.0094 14.3133 17.4328 14.564 16.9966 14.5289C16.5603 14.4938 16.0489 14.1829 16.0439 13.4208V12.1171C16.0439 9.88585 14.2288 8.07074 11.9975 8.07074C9.76623 8.07074 7.95112 9.88585 7.95112 12.1171C7.95112 14.3484 9.76623 16.1635 11.9975 16.1635C13.0806 16.1635 14.0984 15.7373 14.8656 14.9701C15.3118 15.6621 16.0389 16.0983 16.8662 16.1635C16.9364 16.1685 17.0116 16.1735 17.0818 16.1735C17.6635 16.1735 18.2401 15.978 18.7064 15.627C19.1877 15.261 19.5437 14.7345 19.7393 14.1027C19.7694 14.0024 19.8296 13.7668 19.8296 13.7668V13.7567C19.9449 13.2503 20 12.7439 20 12.1171C20.005 7.70973 16.4149 4.11963 12.0025 4.11963Z" fill="#FF9E00"/>
</svg>
