<svg width="24" height="25" viewBox="0 0 24 25" fill="none" xmlns="http://www.w3.org/2000/svg">
<path d="M14.0008 3.11588H5.99747C4.33992 3.11588 2.99622 4.45958 2.99622 6.11713V15.1209C2.99622 16.7784 4.33992 18.1221 5.99747 18.1221H8.0053V20.566C8.0053 20.7799 8.12789 20.9748 8.32064 21.0675C8.51339 21.1601 8.74217 21.1341 8.90917 21.0005L12.5072 18.1221H18.0025C19.66 18.1221 21.0037 16.7784 21.0037 15.1209V10.1188" stroke="white" stroke-width="1.5" stroke-linecap="round" stroke-linejoin="round"/>
<path d="M6.99792 13.12H16.0017" stroke="white" stroke-width="1.5" stroke-linecap="round" stroke-linejoin="round"/>
<path d="M6.99792 9.11838H10.9996" stroke="white" stroke-width="1.5" stroke-linecap="round" stroke-linejoin="round"/>
<path fill-rule="evenodd" clip-rule="evenodd" d="M20.7107 4.33786L19.7818 3.4089C19.5941 3.22128 19.3397 3.11588 19.0744 3.11588C18.809 3.11588 18.5546 3.22128 18.3669 3.4089L15.2942 6.4816C15.1066 6.66922 15.0012 6.92368 15.0012 7.18901V8.61817C15.0012 8.89443 15.2252 9.11838 15.5014 9.11838H16.9305C17.1959 9.11838 17.4503 9.01298 17.6379 8.82536L20.7107 5.75263C21.1013 5.36195 21.1014 4.72855 20.7107 4.33786Z" stroke="white" stroke-width="1.5" stroke-linecap="round" stroke-linejoin="round"/>
</svg>
