<svg width="119" height="17" viewBox="0 0 119 17" fill="none" xmlns="http://www.w3.org/2000/svg">
<path d="M17.612 0.597199L28.2383 0.605929L31.2457 0.60499C31.7684 0.604598 32.3009 0.583298 32.822 0.609179C32.8056 1.72934 32.8035 2.8495 32.8158 3.96966C30.8694 4.00067 28.9204 3.98258 26.9736 3.98869C26.8691 5.38224 26.9321 6.82044 26.9298 8.2201L26.9599 15.9652L23.5841 15.9738L23.5908 8.15468C23.5912 6.7704 23.6295 5.37437 23.5814 3.99127C22.8727 3.98994 17.8446 4.05529 17.6026 3.96825C17.5952 2.85143 17.5443 1.71073 17.612 0.597199Z" fill="#B64948"/>
<path d="M114.281 0.568623C115.102 0.57956 115.924 0.584976 116.745 0.584871C117.211 0.585576 117.691 0.558756 118.155 0.598615C118.137 0.675434 118.123 0.72696 118.075 0.791329C117.68 1.32382 117.242 1.83466 116.829 2.35473L114.037 5.86435C113.715 6.26885 112.313 8.14086 112.085 8.29838C112.473 8.60671 113.606 10.1549 114.018 10.6737L116.805 14.1872C117.227 14.7186 117.668 15.2413 118.075 15.7831C118.128 15.854 118.143 15.8904 118.157 15.975C116.865 16.0302 115.558 15.9918 114.265 15.984C114.21 15.7831 109.679 10.1406 109.454 9.99561C108.285 9.94275 107.111 10.0185 105.942 9.98746C105.975 10.0628 105.99 10.1131 105.992 10.1963C106.006 10.6257 106.017 15.7146 105.952 15.89C105.943 15.9159 105.929 15.9354 105.914 15.9589H102.956L102.765 15.966C102.687 15.9194 102.678 15.9088 102.649 15.8172C102.583 15.6003 102.64 13.5322 102.64 13.1015L102.631 4.22882C102.629 3.71258 102.548 0.837805 102.674 0.610322L102.754 0.59748C103.811 0.608912 104.869 0.584481 105.925 0.60214C105.958 0.668035 105.975 0.713453 105.979 0.788158C106.006 1.36759 106.022 6.33815 105.958 6.51078C105.945 6.54355 105.937 6.55435 105.919 6.58701C107.098 6.58955 108.305 6.64124 109.479 6.57546C109.659 6.44884 114.213 0.79724 114.277 0.590509C114.279 0.583461 114.28 0.575945 114.281 0.568623Z" fill="#B64948"/>
<path d="M97.4675 0.581258L100.826 0.600326C100.856 0.662032 100.875 0.706627 100.876 0.776438C100.895 1.9718 100.853 3.1766 100.847 4.37305C100.832 6.9383 100.831 9.50349 100.844 12.0686L100.859 14.6348C100.862 15.0502 100.911 15.5118 100.848 15.9206C100.743 15.9953 100.614 15.9726 100.491 15.9699L97.4366 15.9722C97.4557 15.9409 97.4659 15.928 97.4781 15.8955C97.5536 15.6903 97.5364 6.37753 97.5047 5.53827C97.5012 5.44465 97.482 5.37159 97.442 5.28784C97.3618 5.57284 96.3125 6.78699 96.056 7.11029L90.8752 13.661C90.4985 14.1367 89.3333 15.7444 89.008 15.9711C87.8784 16.0353 86.7202 15.9828 85.5875 15.9789C85.7727 15.659 85.5264 2.4703 85.6627 0.602479C86.0616 0.579143 86.4739 0.604672 86.8745 0.604281C87.5714 0.603537 88.2695 0.592221 88.9664 0.606826C89.0001 0.677733 89.015 0.737481 89.0158 0.817002C89.0264 2.25018 88.9899 3.6852 88.9919 5.11889C88.9927 5.84116 89.0964 10.8746 88.9696 11.2405C89.0068 11.2224 89.0232 11.2157 89.0604 11.1911C89.4308 10.945 91.6974 7.93165 92.1774 7.32532C93.8838 5.1705 95.6382 3.04206 97.3101 0.861676C97.3774 0.773893 97.4503 0.694216 97.4675 0.581258Z" fill="#B64948"/>
<path d="M34.5026 1.02855C34.5351 0.917475 34.5401 0.80667 34.6337 0.735018C35.2351 0.672921 35.8706 0.714972 36.4755 0.716655L39.6951 0.715757L43.6532 0.706437C44.6398 0.702717 45.6563 0.645905 46.6339 0.798213C47.3183 0.904867 47.9832 1.1414 48.5258 1.58207C49.4412 2.32611 49.7811 3.44845 49.8892 4.5848C50 5.75041 49.7557 6.85137 49.2976 7.92073C49.2247 8.09066 49.1433 8.34359 49.0286 8.48623C49.0137 8.50502 48.9855 8.52855 48.9691 8.54339C49.6155 9.11363 49.8641 10.7603 49.9119 11.5706C49.9769 12.6673 49.825 13.8834 49.0556 14.7292C48.1778 15.6947 46.8407 16.0377 45.5799 16.0878C44.0185 16.1504 42.4367 16.0878 40.8729 16.0886C38.7382 16.0894 36.5957 16.1348 34.4622 16.0952C34.5026 16.0197 34.5202 15.9688 34.5284 15.8818C34.5629 15.5083 34.5954 13.0585 34.521 12.8173C34.5033 12.7597 34.5049 12.768 34.4771 12.7124C37.0534 12.6957 39.6296 12.6924 42.2057 12.7026L44.4789 12.6983C44.89 12.694 45.3301 12.7159 45.7361 12.6505C45.8967 12.625 46.0842 12.4696 46.1919 12.3537C46.4472 12.0789 46.5548 11.6971 46.5325 11.3275C46.5122 10.9916 46.3759 10.6367 46.1124 10.4167C45.9499 10.281 45.7596 10.2169 45.5537 10.181C45.0118 10.0865 44.4221 10.119 43.872 10.1169C42.7338 10.1126 41.5839 10.1489 40.4473 10.1046C40.4809 10.043 40.504 9.99541 40.5099 9.92415C40.5389 9.57513 40.5675 7.01879 40.506 6.80074C40.4989 6.77698 40.4809 6.74213 40.4711 6.72189L43.8716 6.7202C44.4503 6.71547 45.1265 6.76977 45.6884 6.63571C45.8747 6.59131 46.0599 6.47847 46.1946 6.34359C46.4632 6.07456 46.5478 5.6867 46.5298 5.31748C46.5137 4.97971 46.3787 4.64588 46.1163 4.42455C46.0196 4.34291 45.9092 4.28046 45.7937 4.23027C45.3411 4.07154 44.8947 4.09648 44.4214 4.09366L37.9587 4.09021C36.9465 4.09249 35.714 4.16187 34.7344 4.09664C34.5981 4.08755 34.5832 4.08826 34.4928 3.9845C34.5809 3.76622 34.5828 1.23673 34.5026 1.02855Z" fill="#B64948"/>
<path fill-rule="evenodd" clip-rule="evenodd" d="M7.1975 0.573725C6.39537 0.555577 5.56362 0.536759 4.82103 0.598359C3.60766 0.688256 2.48238 0.921767 1.64919 1.88518C1.19344 2.41223 0.922888 3.05866 0.782327 3.73613C0.574708 4.7402 0.60005 6.14625 0.622112 7.37032C0.628508 7.72519 0.634629 8.06477 0.634717 8.37482C0.634717 8.69624 0.630044 9.01956 0.62536 9.3436C0.613551 10.1607 0.601675 10.9823 0.664474 11.7898C0.754527 12.9453 1.08107 14.0862 1.98865 14.865C2.57165 15.3654 3.24666 15.6277 3.99567 15.7667C4.76552 15.9093 5.60484 15.89 6.41693 15.8715C6.6886 15.8652 6.95723 15.8591 7.21919 15.8591C7.70233 15.8591 8.18599 15.8616 8.66981 15.8641C9.71358 15.8695 10.7582 15.875 11.8002 15.8552C12.9427 15.7679 14.1016 15.4155 14.8726 14.52C15.3389 13.9785 15.6165 13.3098 15.7566 12.6136C15.8993 11.9068 15.8937 11.1809 15.8881 10.4613C15.8874 10.363 15.8866 10.2648 15.8862 10.1668L15.8741 7.68689C15.8732 7.37172 15.8788 7.05444 15.8844 6.73649C15.8968 6.03474 15.9092 5.32971 15.8526 4.63671C15.7566 3.46527 15.4152 2.30667 14.4822 1.52806C13.9732 1.10348 13.3358 0.84119 12.6893 0.71441C11.726 0.52545 10.4597 0.551793 9.3175 0.575556C8.92866 0.583645 8.5542 0.591436 8.21095 0.590332C7.88505 0.589281 7.54404 0.581565 7.1975 0.573725ZM9.22537 4.1142L5.40984 4.12701C5.01204 4.14228 4.63578 4.19823 4.35113 4.50856C4.15106 4.7266 4.09702 4.98749 4.05826 5.27252C3.97918 5.85475 3.99124 6.48038 4.003 7.09046C4.00743 7.32011 4.01181 7.54756 4.01128 7.76967C4.01054 8.0795 4.00628 8.3915 4.00201 8.70442C3.99043 9.55396 3.97875 10.4103 4.03712 11.2483C4.06531 11.6528 4.1859 12.0302 4.5007 12.3031C4.68942 12.4672 4.89419 12.5192 5.13538 12.5545C5.6344 12.6273 6.17064 12.615 6.69376 12.6029C6.89056 12.5984 7.0855 12.5939 7.27591 12.594C8.57137 12.6021 9.86671 12.5947 11.1619 12.5717C11.5437 12.5584 11.8937 12.4797 12.1595 12.1809C12.3099 12.0118 12.3984 11.8317 12.4383 11.6089C12.5415 11.0335 12.5255 10.3025 12.5107 9.63021C12.5055 9.38887 12.5003 9.1551 12.501 8.93883C12.502 8.61371 12.508 8.28508 12.5139 7.955C12.5296 7.08512 12.5455 6.20517 12.4732 5.35291C12.4422 4.98568 12.3075 4.67582 12.0249 4.4308C11.8502 4.27924 11.6799 4.21107 11.4544 4.17164C10.925 4.0792 10.3466 4.09252 9.78709 4.10539C9.59677 4.10977 9.40864 4.1141 9.22537 4.1142Z" fill="#B64948"/>
<path fill-rule="evenodd" clip-rule="evenodd" d="M55.1714 0.652522C54.6186 0.722019 54.1303 0.865714 53.6221 1.09187C53.0485 1.46719 52.4929 1.89479 52.182 2.52469C52.1424 2.60519 52.1078 2.69144 52.0731 2.77822C52.0121 2.93053 51.9504 3.08445 51.8594 3.21176C51.8695 3.33094 51.8086 3.67167 51.7452 4.02617C51.6877 4.34763 51.6282 4.68042 51.6178 4.8696C51.5733 5.6767 51.5831 6.49573 51.5928 7.31095C51.597 7.66467 51.6012 8.01768 51.601 8.36869C51.6009 8.65922 51.5972 8.95245 51.5936 9.24703C51.5815 10.2174 51.5692 11.2024 51.6836 12.1539C51.74 12.6218 51.848 13.0893 52.0274 13.5259C52.4013 14.437 53.0649 15.1061 53.976 15.482C54.4306 15.6696 54.9404 15.7827 55.4286 15.8313C56.2173 15.9099 57.0546 15.8906 57.8769 15.8716C58.2504 15.863 58.6209 15.8544 58.9822 15.8551L61.4548 15.8602C61.5698 15.8604 61.6855 15.8616 61.8014 15.8628C62.2164 15.8671 62.6355 15.8714 63.0452 15.8289C63.5432 15.7768 64.0648 15.6625 64.526 15.4644C65.4727 15.058 66.1309 14.3571 66.5115 13.4029C66.6892 12.9574 66.7707 12.4809 66.8141 12.0048C66.8971 11.0943 66.8842 10.166 66.8713 9.24351C66.8664 8.89545 66.8616 8.54822 66.8619 8.20307C66.8622 7.87027 66.8681 7.53334 66.874 7.19463C66.8903 6.26451 66.9068 5.32097 66.8087 4.41256C66.7499 3.87009 66.6462 3.3587 66.4261 2.85766C66.0217 1.93543 65.3443 1.27479 64.4003 0.916104C63.9426 0.742223 63.4512 0.659414 62.9649 0.618812C62.1217 0.548398 61.258 0.562389 60.4005 0.57628C60.0298 0.582286 59.6602 0.588273 59.2939 0.587411C58.9432 0.586591 58.5847 0.579242 58.2227 0.571821C57.201 0.550875 56.1515 0.529361 55.1714 0.652522ZM58.9684 4.11C58.0229 4.10718 57.0763 4.10436 56.1329 4.12636C55.7942 4.17616 55.4951 4.3 55.2813 4.57928C55.1462 4.75575 55.0824 4.92576 55.0475 5.14188C54.9385 5.81599 54.9541 6.70743 54.968 7.5001C54.9726 7.7605 54.977 8.01024 54.9767 8.23811C54.9764 8.46955 54.9715 8.72702 54.9664 8.99765C54.9503 9.85616 54.9316 10.8472 55.0483 11.5597C55.1047 11.905 55.2891 12.1634 55.5722 12.3651C55.7519 12.4931 55.9418 12.5319 56.1564 12.5565C56.7042 12.6202 57.2799 12.6101 57.8443 12.6001C58.0434 12.5966 58.2412 12.5931 58.4359 12.5929C58.7378 12.5926 59.0398 12.593 59.3419 12.5935C60.2812 12.595 61.2212 12.5965 62.1594 12.5722C62.5368 12.5647 62.8708 12.4747 63.1371 12.1865C63.2612 12.0526 63.3712 11.876 63.4096 11.6955C63.5175 11.1927 63.4991 10.3715 63.4839 9.69005C63.4788 9.46127 63.4741 9.24824 63.4746 9.06829C63.4757 8.7248 63.4812 8.37869 63.4868 8.03154C63.5011 7.13865 63.5155 6.23885 63.4546 5.35887C63.4307 5.01244 63.3129 4.69287 63.0486 4.45681C62.8724 4.29949 62.6586 4.20106 62.4268 4.16171C61.8798 4.06901 61.2752 4.08501 60.6914 4.10045C60.4787 4.10608 60.2688 4.11163 60.0655 4.11183C59.7001 4.11218 59.3344 4.11109 58.9684 4.11Z" fill="#B64948"/>
<path fill-rule="evenodd" clip-rule="evenodd" d="M69.5907 0.588432C69.2887 0.576503 68.9694 0.563893 68.6951 0.621015C68.7433 1.2571 68.7309 1.91298 68.7186 2.5624C68.7132 2.84666 68.7079 3.12968 68.7076 3.40926L68.7147 8.55762L68.7061 13.1967C68.7062 13.452 68.7111 13.7114 68.7161 13.9722C68.7279 14.5904 68.7398 15.2169 68.6881 15.8188C68.9864 15.889 69.3542 15.8748 69.6972 15.8616C69.8269 15.8566 69.9531 15.8518 70.0706 15.8517L72.8579 15.8497L77.307 15.8548C77.5439 15.8555 77.7826 15.8593 78.0221 15.863C78.6627 15.873 79.3087 15.8831 79.9408 15.8364C81.0634 15.7534 82.2341 15.4073 82.9893 14.5236C83.8022 13.5733 84.0524 12.0757 83.9451 10.8637C83.8797 10.1212 83.6068 8.67954 83.0042 8.17771C83.1103 8.09063 83.182 7.99709 83.2579 7.88413C84.0473 6.70941 84.0782 5.07807 83.8057 3.73698C83.5978 2.71252 83.097 1.86105 82.2117 1.28721C81.6381 0.91537 80.9878 0.732797 80.3144 0.650339C79.4993 0.550578 78.6519 0.566867 77.8172 0.58291C77.5439 0.588162 77.272 0.593388 77.0031 0.594508L71.9817 0.600028C71.2915 0.603082 70.6014 0.602338 69.9112 0.597796C69.8087 0.597043 69.7008 0.592783 69.5907 0.588432ZM80.314 4.47841C80.009 4.08241 79.6076 4.0059 79.1433 3.95621C78.4328 3.99311 77.7124 3.98114 76.9956 3.96922C76.7205 3.96464 76.446 3.96008 76.1727 3.95829L72.0388 3.96823C72.0937 4.13843 72.0827 4.2539 72.0059 4.4149L72.015 4.43278C72.0295 4.46104 72.0338 4.4694 72.0471 4.51603C72.1132 4.7535 72.1109 6.43198 72.0189 6.61056L76.6919 6.61494C76.931 6.61489 77.1733 6.61926 77.417 6.62366C78.0362 6.63483 78.6635 6.64615 79.2662 6.58526C79.536 6.55797 79.8386 6.49623 80.0673 6.34599C80.3453 6.16315 80.5082 5.85716 80.5598 5.53375C80.6186 5.16755 80.5422 4.77507 80.314 4.47841ZM74.9833 9.97848C74.0103 9.96532 73.033 9.95211 72.0702 9.99938C72.0909 10.4195 72.132 12.3353 72.013 12.5984L76.8129 12.6027C77.0394 12.6024 77.2699 12.6067 77.502 12.611C78.078 12.6218 78.664 12.6328 79.2224 12.5733L79.228 12.5727C79.5018 12.5434 79.8936 12.5014 80.0908 12.2922C80.1129 12.2688 80.1147 12.2637 80.1217 12.244L80.1264 12.2311C80.339 12.1055 80.4549 11.9011 80.5187 11.6654C80.6209 11.2856 80.5583 10.8471 80.3543 10.5108C80.1844 10.2298 79.987 10.1288 79.673 10.0613C79.106 9.93939 77.953 9.96219 77.0514 9.98001C76.764 9.98569 76.5021 9.99087 76.2929 9.99069C75.8584 9.99032 75.4212 9.9844 74.9833 9.97848Z" fill="#B64948"/>
</svg>
