<svg width="49" height="49" viewBox="0 0 49 49" fill="none" xmlns="http://www.w3.org/2000/svg">
<path fill-rule="evenodd" clip-rule="evenodd" d="M26.8139 0.242505C25.7597 0.0903663 23.2873 0.0504979 22.2822 0.292115C21.5598 0.334096 20.6198 0.409181 19.9398 0.657947C18.6711 0.823615 17.3263 1.28708 16.1388 1.75981C11.913 3.44187 8.45038 6.06852 5.68089 9.67301C3.6928 12.2606 2.18942 15.3957 1.48989 18.5873C1.34235 19.2604 1.23726 19.9395 1.13223 20.6183C1.04403 21.1882 0.955874 21.7579 0.842651 22.3236V25.8461C0.906022 26.1062 0.938964 26.3842 0.971414 26.658C0.985579 26.7776 0.99965 26.8963 1.01612 27.0124C1.11354 27.7216 1.23083 28.4274 1.368 29.1298C1.40915 29.3272 1.4528 29.5239 1.49895 29.7199C1.5451 29.916 1.59374 30.1114 1.64486 30.3062C1.69599 30.501 1.74959 30.6952 1.80566 30.8887C1.86173 31.0822 1.92025 31.2749 1.98122 31.4668C2.0422 31.6587 2.10561 31.8498 2.17145 32.0402C2.23729 32.2308 2.30554 32.4203 2.37621 32.6087C2.44687 32.7974 2.51993 32.9852 2.59537 33.172C2.67082 33.3587 2.74863 33.5446 2.8288 33.7295C2.90897 33.9143 2.99149 34.0981 3.07634 34.2807C3.16119 34.4634 3.24835 34.6449 3.33782 34.8253C3.4273 35.006 3.51905 35.1854 3.61309 35.3636C3.70713 35.5417 3.80342 35.7186 3.90196 35.8942C4.0005 36.0698 4.10126 36.2441 4.20424 36.4172C4.30722 36.5905 4.41239 36.7625 4.51975 36.9329C4.6271 37.1031 4.7366 37.2721 4.84826 37.4401C4.95992 37.6077 5.07369 37.7738 5.18958 37.9386C5.30335 38.1001 5.41909 38.2602 5.53681 38.4188C5.65452 38.5775 5.77418 38.7345 5.89579 38.89C6.01736 39.0457 6.14084 39.1999 6.26623 39.3525C6.39164 39.505 6.51891 39.6562 6.64803 39.8059C6.77716 39.9552 6.90811 40.103 7.04088 40.2492C7.17362 40.3957 7.30816 40.5404 7.44452 40.6834C7.58084 40.826 7.71892 40.9673 7.85876 41.107C7.99857 41.2465 8.14009 41.3842 8.28332 41.5201C8.42651 41.6561 8.57138 41.7904 8.7179 41.9231C8.86443 42.0556 9.01257 42.1862 9.16232 42.3151C9.31208 42.4437 9.4634 42.5705 9.61629 42.6956C9.76918 42.8206 9.92359 42.9438 10.0795 43.065C10.2354 43.1866 10.3928 43.306 10.5517 43.4234C10.7105 43.5408 10.8708 43.6561 11.0325 43.7693C11.1943 43.8829 11.3573 43.9943 11.5218 44.1037C11.6862 44.2131 11.852 44.3204 12.0192 44.4257C12.1863 44.5312 12.3546 44.6345 12.5243 44.7356C12.6939 44.8367 12.8648 44.9357 13.0369 45.0326C13.209 45.1295 13.3823 45.2243 13.5567 45.3171C13.7312 45.4099 13.9067 45.5004 14.0834 45.5886C14.2601 45.6769 14.4378 45.7631 14.6166 45.8473C14.7954 45.9311 14.9752 46.0128 15.156 46.0924C15.3368 46.1721 15.5186 46.2493 15.7013 46.3242C15.884 46.3993 16.0676 46.4721 16.2521 46.5425C16.4366 46.6131 16.622 46.6814 16.8082 46.7473C16.9944 46.8132 17.1814 46.8769 17.3691 46.9383C17.5569 46.9997 17.7454 47.0587 17.9347 47.1153C18.1239 47.1719 18.3137 47.2263 18.5043 47.2784C18.6949 47.3303 18.886 47.3798 19.0778 47.4272C19.2696 47.4745 19.462 47.5194 19.6549 47.562C19.8478 47.6045 20.0412 47.6447 20.235 47.6824C20.4289 47.7202 20.6232 47.7555 20.818 47.7884C21.0091 47.8204 21.2006 47.8502 21.3925 47.8777C21.5844 47.9052 21.7765 47.9303 21.969 47.953C22.1615 47.976 22.3542 47.9965 22.5471 48.0144C22.7401 48.0326 22.9332 48.0485 23.1266 48.0619C23.32 48.0754 23.5134 48.0864 23.707 48.095C23.9007 48.104 24.0944 48.1105 24.2881 48.1147C24.4819 48.1185 24.6757 48.1201 24.8695 48.1195C25.0633 48.1188 25.2571 48.116 25.4508 48.1109C25.6446 48.1054 25.8383 48.0977 26.0318 48.0878C26.2254 48.0779 26.4187 48.0656 26.612 48.0509C26.8053 48.0362 26.9984 48.0191 27.1912 47.9995C27.384 47.98 27.5766 47.9583 27.7689 47.9343C27.9612 47.9103 28.1532 47.8839 28.3449 47.8551C28.5366 47.8267 28.7279 47.7958 28.9188 47.7625C29.1098 47.729 29.3002 47.6933 29.4903 47.6555C29.6804 47.6175 29.87 47.5772 30.059 47.5346C30.2481 47.4921 30.4367 47.4473 30.6247 47.4003C30.8127 47.3533 31.0001 47.3039 31.1869 47.252C31.3737 47.2006 31.5599 47.1467 31.7454 47.0904C31.9309 47.0344 32.1157 46.976 32.2997 46.9152C32.4839 46.8545 32.6672 46.7916 32.8497 46.7267C33.0323 46.6618 33.214 46.5944 33.395 46.5247C33.5759 46.4553 33.756 46.3836 33.9352 46.3098C34.1144 46.2359 34.2927 46.1599 34.47 46.0819C34.6474 46.0038 34.8238 45.9235 34.9992 45.841C35.1746 45.7585 35.349 45.6739 35.5223 45.5872C35.6957 45.5005 35.868 45.4118 36.0392 45.3209C36.2104 45.2301 36.3805 45.1373 36.5495 45.0427C36.7184 44.9477 36.8862 44.8506 37.0528 44.7514C37.2194 44.6526 37.3848 44.5517 37.549 44.4487C37.7132 44.3454 37.8761 44.2403 38.0377 44.1335C38.1993 44.0266 38.3596 43.9177 38.5186 43.8068C43.6159 40.2233 47.3121 34.6324 48.375 28.4658C49.4914 21.9883 48.0876 15.5106 44.2783 10.1426C44.1654 9.98464 44.0507 9.82807 43.934 9.67291C43.8173 9.51775 43.6988 9.36403 43.5784 9.21175C43.4579 9.05947 43.3357 8.90869 43.2116 8.75941C43.0875 8.61011 42.9616 8.46235 42.8338 8.31614C42.7061 8.16991 42.5766 8.02527 42.4454 7.88223C42.3142 7.73916 42.1812 7.59772 42.0465 7.45791C41.9118 7.31811 41.7754 7.17996 41.6374 7.04348C41.4993 6.907 41.3596 6.77223 41.2182 6.63917C41.0769 6.50608 40.9339 6.37475 40.7894 6.24518C40.6448 6.1156 40.4987 5.9878 40.351 5.86178C40.2033 5.73576 40.0541 5.61156 39.9034 5.48919C39.7527 5.36681 39.6005 5.2463 39.4468 5.12767C39.2932 5.009 39.1381 4.89223 38.9816 4.77733C38.8251 4.66248 38.6672 4.54954 38.508 4.43852C38.3487 4.3275 38.1881 4.21844 38.0262 4.11135C37.8643 4.00423 37.701 3.89913 37.5365 3.79604C37.372 3.69292 37.2063 3.59182 37.0393 3.49273C36.8724 3.39367 36.7043 3.29666 36.535 3.20169C36.3656 3.10673 36.1952 3.01384 36.0236 2.92304C35.852 2.83223 35.6793 2.74353 35.5055 2.65695C35.3318 2.57036 35.157 2.48591 34.9812 2.40358C34.8054 2.32125 34.6286 2.24109 34.4508 2.16311C34.273 2.0851 34.0943 2.00926 33.9147 1.9356C33.7351 1.86197 33.5546 1.79053 33.3732 1.72128C33.1918 1.65203 33.0096 1.58503 32.8266 1.52025C32.6436 1.45545 32.4598 1.3929 32.2753 1.33261C32.0908 1.27229 31.9055 1.21423 31.7196 1.15845C31.5336 1.10267 31.347 1.04917 31.1597 0.997966C30.9725 0.946725 30.7847 0.897788 30.5962 0.851153C30.4077 0.804487 30.2187 0.76014 30.0292 0.718111C29.8397 0.676083 29.6497 0.636373 29.4592 0.598982C29.2687 0.561591 29.0777 0.526534 28.8864 0.493813C28.771 0.475218 28.6544 0.455571 28.5371 0.435787C27.9687 0.339958 27.3812 0.240914 26.8139 0.242505ZM25.3035 7.43845C25.7004 7.37732 26.0384 7.23185 26.4029 7.07021C26.4682 6.9916 26.5805 6.92477 26.6911 6.85898C26.7702 6.81187 26.8485 6.76529 26.9081 6.71528C27.6352 6.10452 27.9187 5.21193 27.9918 4.30045C27.9004 3.34218 27.6284 2.50305 26.86 1.87214C26.1794 1.31329 25.3268 1.03785 24.4508 1.13462C24.398 1.14092 24.3453 1.1485 24.2929 1.15736C24.2404 1.16622 24.1882 1.17635 24.1363 1.18773C24.0843 1.19915 24.0326 1.21183 23.9813 1.22578C23.93 1.23972 23.879 1.2549 23.8284 1.27131C23.7778 1.28775 23.7276 1.30541 23.6779 1.32428C23.6282 1.34315 23.5789 1.36322 23.5302 1.38449C23.4814 1.40579 23.4332 1.42826 23.3855 1.4519C23.3379 1.47554 23.2908 1.50032 23.2444 1.52626C23.1979 1.5522 23.1521 1.57926 23.107 1.60744C23.0619 1.63559 23.0175 1.66484 22.9738 1.6952C22.9301 1.72555 22.8872 1.75694 22.845 1.78938C22.8028 1.82181 22.7615 1.85527 22.721 1.88975C22.6804 1.92419 22.6408 1.95962 22.602 1.99602C22.5632 2.03242 22.5253 2.06974 22.4883 2.108C22.4514 2.14625 22.4153 2.18539 22.3803 2.2254C22.3452 2.26541 22.3112 2.30626 22.2781 2.34794C22.2459 2.38961 22.2147 2.43206 22.1847 2.47527C22.1546 2.51848 22.1256 2.56243 22.0977 2.60711C22.0698 2.65176 22.0431 2.69709 22.0175 2.74308C21.9918 2.78911 21.9674 2.83573 21.9441 2.88294C21.9208 2.93015 21.8987 2.97792 21.8778 3.02625C21.8568 3.07458 21.8371 3.1234 21.8187 3.17272C21.8002 3.22201 21.7829 3.27174 21.7669 3.32189C21.7509 3.37207 21.7362 3.42261 21.7227 3.4735C21.7092 3.52442 21.697 3.57563 21.6861 3.62712C21.6751 3.67865 21.6655 3.7304 21.6572 3.78238C21.6488 3.83439 21.6418 3.88656 21.636 3.93889C21.6303 3.99125 21.6258 4.0437 21.6227 4.09625C21.6196 4.14881 21.6178 4.20141 21.6173 4.25405C21.6168 4.30673 21.6176 4.35938 21.6197 4.412C21.6218 4.46461 21.6253 4.51713 21.63 4.56956C21.6347 4.62201 21.6408 4.67431 21.6481 4.72644C21.6553 4.7788 21.6638 4.83096 21.6737 4.8829C21.6835 4.93481 21.6946 4.98645 21.707 5.03782C21.7194 5.08922 21.733 5.14027 21.748 5.19097C21.7629 5.24163 21.7791 5.29191 21.7966 5.34181C21.814 5.39171 21.8327 5.44112 21.8527 5.49006C21.8726 5.53903 21.8937 5.58746 21.916 5.63534C21.9384 5.68322 21.9619 5.73053 21.9866 5.77726C22.0113 5.82399 22.0372 5.87006 22.0642 5.91548C22.0912 5.9609 22.1193 6.00563 22.1485 6.04967C22.1778 6.09369 22.2081 6.13695 22.2395 6.17946C22.2709 6.22196 22.3034 6.26368 22.3369 6.30458C22.3703 6.34546 22.4048 6.38547 22.4403 6.42462C22.4758 6.46381 22.5123 6.50208 22.5496 6.53943C22.587 6.57676 22.6253 6.61315 22.6645 6.64859C22.7038 6.68403 22.7438 6.71846 22.7848 6.75188C22.8257 6.78531 22.8675 6.81769 22.91 6.84904C22.9523 6.88054 22.9953 6.91099 23.0392 6.94039C23.083 6.96975 23.1275 6.99801 23.1727 7.02516C23.218 7.05232 23.2638 7.07834 23.3104 7.10323C23.3569 7.12808 23.404 7.15176 23.4517 7.17428C23.4994 7.1968 23.5477 7.2181 23.5964 7.23819C23.6452 7.25831 23.6944 7.27719 23.7442 7.29485C23.7939 7.3125 23.844 7.3289 23.8945 7.34403C23.9451 7.35919 23.9959 7.37309 24.0472 7.38572C24.0984 7.39832 24.1499 7.40965 24.2017 7.41969C24.2535 7.42973 24.3055 7.43848 24.3577 7.44593C24.4099 7.45339 24.4623 7.45953 24.5148 7.46435C24.5673 7.46918 24.62 7.47272 24.6727 7.47496C24.7254 7.47717 24.7781 7.47806 24.8309 7.47764C24.8836 7.47723 24.9363 7.47549 24.989 7.47242C25.0417 7.46938 25.0942 7.46503 25.1466 7.45936C25.1991 7.4537 25.2514 7.44673 25.3035 7.43845ZM26.0092 8.46097L25.9206 8.45035C25.8741 11.2071 25.8528 13.9824 25.9112 16.7386C26.1726 16.7991 26.4334 16.8622 26.6935 16.9277C26.7511 16.942 26.8084 16.957 26.8656 16.9726C26.9228 16.9883 26.9797 17.0047 27.0364 17.0219C27.0932 17.039 27.1497 17.0568 27.206 17.0753C27.2623 17.0939 27.3183 17.1131 27.3742 17.133C27.43 17.1529 27.4855 17.1736 27.5408 17.1949C27.5962 17.2162 27.6512 17.2382 27.7059 17.2609C27.7607 17.2836 27.8152 17.307 27.8693 17.3311C27.9235 17.3551 27.9773 17.3799 28.0309 17.4052C28.0845 17.4307 28.1377 17.4568 28.1906 17.4835C28.2435 17.5102 28.296 17.5376 28.3483 17.5656C28.4005 17.5937 28.4523 17.6224 28.5038 17.6518C28.5553 17.6811 28.6064 17.7111 28.6571 17.7417C28.7079 17.7724 28.7583 17.8036 28.8082 17.8355C28.8582 17.8674 28.9077 17.8999 28.9569 17.933C29.006 17.9661 29.0548 17.9999 29.1031 18.0342C29.1514 18.0685 29.1993 18.1035 29.2467 18.139C29.2941 18.1746 29.3411 18.2107 29.3877 18.2474C29.4342 18.2841 29.4802 18.3214 29.5258 18.3593C29.5714 18.3972 29.6165 18.4356 29.6612 18.4746C29.7058 18.5136 29.7499 18.5532 29.7936 18.5932C29.8372 18.6333 29.8804 18.674 29.923 18.7151C29.9656 18.7563 30.0077 18.798 30.0493 18.8403C30.0909 18.8825 30.132 18.9253 30.1725 18.9685C30.213 19.0118 30.253 19.0555 30.2924 19.0998C30.3318 19.144 30.3707 19.1888 30.409 19.234C30.4473 19.2793 30.485 19.325 30.5222 19.3711C30.5594 19.4173 30.5959 19.4639 30.6319 19.511C30.6679 19.5581 30.7033 19.6057 30.7381 19.6536C30.7729 19.7016 30.8071 19.75 30.8407 19.7988C30.8743 19.8477 30.9073 19.8969 30.9397 19.9465C30.9721 19.9962 31.0038 20.0463 31.0349 20.0967C31.066 20.1472 31.0965 20.198 31.1263 20.2492C32.1798 22.0426 32.4032 23.9892 31.8782 25.9918C31.8629 26.0486 31.8469 26.1053 31.8302 26.1618C31.8135 26.2183 31.7961 26.2745 31.7781 26.3306C31.76 26.3866 31.7412 26.4424 31.7217 26.498C31.7023 26.5536 31.6822 26.609 31.6613 26.664C31.6405 26.7191 31.619 26.774 31.5968 26.8285C31.5747 26.8831 31.5519 26.9374 31.5284 26.9914C31.5049 27.0454 31.4808 27.0991 31.4559 27.1525C31.4311 27.2059 31.4057 27.259 31.3796 27.3118C31.3534 27.3646 31.3267 27.417 31.2992 27.4692C31.2718 27.5213 31.2438 27.5731 31.2151 27.6245C31.1864 27.6759 31.1571 27.7271 31.1272 27.7778C31.0973 27.8284 31.0667 27.8788 31.0356 27.929C31.0044 27.9789 30.9726 28.0285 30.9402 28.0777C30.9079 28.1266 30.8749 28.1754 30.8413 28.224C30.8077 28.2723 30.7735 28.3203 30.7388 28.368C30.704 28.4153 30.6686 28.4623 30.6327 28.509C30.5968 28.5557 30.5603 28.6019 30.5233 28.6477C30.4862 28.6934 30.4486 28.7387 30.4104 28.7835C30.3723 28.8286 30.3336 28.873 30.2943 28.9168C30.2551 28.9607 30.2153 29.004 30.175 29.0469C30.1346 29.09 30.0938 29.1326 30.0524 29.1745C30.011 29.2164 29.9692 29.2578 29.9268 29.2987C29.8844 29.3394 29.8415 29.3797 29.7982 29.4197C29.7548 29.4596 29.7109 29.499 29.6666 29.5377C29.6223 29.5764 29.5775 29.6146 29.5322 29.6523C29.4869 29.6898 29.4412 29.7269 29.395 29.7637C29.3488 29.8001 29.3022 29.8361 29.2551 29.8716C29.208 29.9068 29.1605 29.9415 29.1126 29.9757C29.0647 30.0099 29.0163 30.0435 28.9676 30.0765C28.9188 30.1097 28.8697 30.1422 28.8201 30.1739C28.7706 30.2059 28.7206 30.2372 28.6703 30.2679C28.62 30.2983 28.5693 30.3282 28.5183 30.3576C26.7937 31.3431 24.6473 31.5585 22.7431 31.0303C22.6866 31.014 22.6303 30.997 22.5742 30.9794C22.5181 30.9621 22.4622 30.9439 22.4066 30.9247C22.351 30.9059 22.2955 30.8863 22.2404 30.8662C22.1852 30.846 22.1303 30.8251 22.0757 30.8033C22.021 30.7819 21.9666 30.7597 21.9125 30.7366C21.8584 30.7136 21.8045 30.6901 21.751 30.6661C21.6975 30.6418 21.6442 30.6169 21.5912 30.5913C21.5383 30.5657 21.4857 30.5396 21.4334 30.5131C21.3811 30.4862 21.3291 30.4587 21.2775 30.4305C21.2258 30.4024 21.1745 30.3738 21.1236 30.3447C21.0726 30.3152 21.0221 30.2853 20.9719 30.2549C20.9217 30.2242 20.8718 30.1931 20.8223 30.1614C20.7729 30.1297 20.7238 30.0974 20.6751 30.0645C20.6265 30.0315 20.5782 29.9979 20.5304 29.9637C20.4825 29.9295 20.4351 29.8948 20.3881 29.8596C20.3411 29.8244 20.2945 29.7886 20.2483 29.7521C20.2022 29.7157 20.1565 29.6787 20.1113 29.6413C20.066 29.6039 20.0212 29.5658 19.9769 29.5271C19.9326 29.4884 19.8888 29.4492 19.8454 29.4096C19.802 29.3699 19.7592 29.3298 19.7168 29.2891C19.6744 29.2485 19.6325 29.2073 19.5911 29.1654C19.5497 29.1238 19.5088 29.0816 19.4684 29.0387C19.4281 28.9962 19.3883 28.953 19.349 28.9092C19.3096 28.8653 19.2709 28.8212 19.2326 28.7767C19.1944 28.732 19.1567 28.6869 19.1196 28.6414C19.0824 28.596 19.0458 28.55 19.0098 28.5033C18.9738 28.4569 18.9383 28.41 18.9035 28.3627C18.8686 28.3157 18.8343 28.268 18.8005 28.2197C18.7668 28.1717 18.7337 28.1233 18.7011 28.0743C18.6686 28.0254 18.6366 27.976 18.6053 27.9261C18.5739 27.8765 18.5432 27.8265 18.5131 27.7759C18.4829 27.7255 18.4534 27.6746 18.4245 27.6235C17.5632 26.0988 17.1691 24.1001 17.6376 22.3879C17.6814 22.0914 17.7883 21.7726 17.8916 21.4914C18.4821 19.8833 19.7463 18.2815 21.3235 17.5495C22.0533 17.1371 22.8527 16.9035 23.672 16.7432L23.6802 8.45903C22.7714 8.56962 21.8821 8.68664 20.9931 8.91108C17.767 9.72546 14.69 11.6235 12.6272 14.254C9.99985 17.6044 8.747 21.7907 9.2667 26.0343C9.28253 26.1617 9.29993 26.2888 9.3189 26.4158C9.33786 26.5427 9.35838 26.6694 9.38045 26.7958C9.40252 26.9222 9.42614 27.0484 9.45132 27.1742C9.47649 27.3001 9.50321 27.4256 9.53149 27.5508C9.55973 27.6759 9.58951 27.8007 9.62082 27.9251C9.65214 28.0496 9.68497 28.1737 9.71932 28.2974C9.75367 28.4212 9.78954 28.5444 9.82694 28.6669C9.86433 28.7897 9.90322 28.912 9.94362 29.0339C9.98398 29.1558 10.0259 29.2772 10.0692 29.3981C10.1126 29.5186 10.1574 29.6389 10.2038 29.7589C10.2501 29.8785 10.2978 29.9975 10.3471 30.1158C10.3963 30.2345 10.447 30.3525 10.4992 30.4699C10.5513 30.587 10.6048 30.7035 10.6598 30.8196C10.7148 30.9354 10.7712 31.0507 10.8291 31.1656C10.8869 31.2801 10.9461 31.3938 11.0067 31.5067C11.0673 31.6199 11.1293 31.7323 11.1927 31.844C11.2561 31.9556 11.3208 32.0664 11.3869 32.1765C11.453 32.2865 11.5204 32.3957 11.5892 32.5042C11.658 32.6123 11.7281 32.7197 11.7995 32.8266C11.8709 32.9331 11.9436 33.0388 12.0177 33.1437C12.0917 33.2486 12.167 33.3526 12.2435 33.4556C12.3201 33.5586 12.3979 33.6606 12.477 33.7617C12.556 33.8627 12.6363 33.9628 12.7178 34.062C12.7994 34.1611 12.8821 34.2592 12.966 34.3561C13.05 34.4533 13.1351 34.5494 13.2214 34.6444C13.3076 34.7394 13.3951 34.8333 13.4837 34.9261C13.5723 35.0192 13.662 35.111 13.7528 35.2015C13.8437 35.292 13.9356 35.3816 14.0287 35.4702C14.1217 35.5584 14.2158 35.6456 14.311 35.7316C14.4062 35.8177 14.5024 35.9026 14.5997 35.9864C14.697 36.0702 14.7952 36.1527 14.8946 36.234C14.9938 36.3152 15.0941 36.3953 15.1954 36.4743C18.3821 38.9557 22.5873 40.1979 26.612 39.6903C28.4912 39.4533 30.1194 38.8516 31.8495 38.1157C35.0732 36.4273 37.2517 34.1186 38.8996 30.9103C39.6662 29.3438 40.1131 27.706 40.3261 25.9787C40.3417 25.851 40.3557 25.7231 40.3681 25.595C40.3805 25.4669 40.3913 25.3387 40.4006 25.2103C40.4098 25.0819 40.4175 24.9535 40.4236 24.8249C40.4298 24.6964 40.4343 24.5678 40.4372 24.4392C40.4402 24.3105 40.4415 24.1818 40.4413 24.0531C40.4412 23.9244 40.4394 23.7958 40.436 23.6671C40.4326 23.5385 40.4277 23.4099 40.4212 23.2814C40.4147 23.1529 40.4066 23.0245 40.3969 22.8961C40.3872 22.7678 40.376 22.6396 40.3632 22.5115C40.3504 22.3835 40.336 22.2556 40.32 22.1279C40.304 22.0002 40.2865 21.8727 40.2675 21.7455C40.2484 21.6182 40.2277 21.4912 40.2055 21.3644C40.1833 21.2377 40.1596 21.1112 40.1343 20.985C40.109 20.8588 40.0821 20.733 40.0538 20.6075C40.0254 20.482 39.9955 20.3568 39.964 20.2321C39.9325 20.1073 39.8995 19.9829 39.865 19.8589C39.8305 19.7349 39.7945 19.6114 39.7569 19.4883C39.7194 19.3652 39.6803 19.2426 39.6398 19.1205C39.5993 18.9983 39.5572 18.8767 39.5136 18.7556C39.4701 18.6345 39.4251 18.514 39.3786 18.394C39.3321 18.274 39.2842 18.1546 39.2347 18.0358C39.1853 17.9169 39.1345 17.7987 39.0821 17.6812C39.0298 17.5636 38.976 17.4467 38.9208 17.3304C38.8657 17.2142 38.809 17.0986 38.751 16.9838C38.693 16.8689 38.6335 16.7548 38.5727 16.6414C38.5119 16.528 38.4497 16.4153 38.3861 16.3034C38.3225 16.1916 38.2575 16.0805 38.1912 15.9702C38.1249 15.8599 38.0572 15.7505 37.9882 15.6419C37.9192 15.5332 37.8489 15.4255 37.7772 15.3186C37.7056 15.2117 37.6326 15.1057 37.5583 15.0006C37.4841 14.8955 37.4086 14.7913 37.3317 14.688C37.255 14.5848 37.1769 14.4825 37.0976 14.3811C35.0475 11.7674 32.1373 9.76629 28.9061 8.93785C27.9556 8.69414 26.9816 8.57746 26.0092 8.46097Z" fill="#B64948"/>
</svg>
