<svg width="21" height="21" viewBox="0 0 21 21" fill="none" xmlns="http://www.w3.org/2000/svg">
<path fill-rule="evenodd" clip-rule="evenodd" d="M10.3657 1.78632C10.6043 1.78633 10.822 1.92217 10.927 2.13642L13.2281 6.8351L18.3734 7.59299C18.6082 7.62757 18.8031 7.79211 18.8766 8.01774C18.9501 8.24337 18.8895 8.49115 18.7201 8.65737L14.995 12.3135L15.8743 17.4798C15.9143 17.7145 15.8173 17.9516 15.6244 18.0911C15.4314 18.2306 15.1759 18.2484 14.9655 18.1369L10.3657 15.6995L5.7658 18.1369C5.55539 18.2484 5.2999 18.2306 5.10694 18.0911C4.91397 17.9516 4.81706 17.7145 4.85702 17.4798L5.73637 12.3135L2.0112 8.65737C1.84185 8.49116 1.78123 8.24337 1.85472 8.01775C1.92822 7.79212 2.12314 7.62757 2.3579 7.59299L7.50245 6.8351L9.80439 2.13635C9.90935 1.9221 10.1271 1.7863 10.3657 1.78632Z" fill="#FF9100"/>
</svg>
