<svg width="24" height="25" viewBox="0 0 24 25" fill="none" xmlns="http://www.w3.org/2000/svg">
<path d="M1.44767 15.2836C2.80753 19.8168 7.01411 23.1196 11.9927 23.1196C18.0716 23.1196 22.9997 18.1946 22.9997 12.1196C22.9997 6.04451 18.0716 1.11963 11.9927 1.11963C6.15934 1.11963 1.38626 5.65455 1.00928 11.3888C1.00928 13.0363 1.00928 13.7238 1.44767 15.2836Z" fill="url(#paint0_linear_469_2469)"/>
<path d="M11.4269 9.41895L8.73349 13.3291C8.09856 13.3003 7.45938 13.4799 6.9288 13.8286L1.01439 11.3954C1.01439 11.3954 0.877536 13.6455 1.44787 15.3223L5.62903 17.0465C5.83897 17.9841 6.48257 18.8065 7.43211 19.2021C8.98563 19.8508 10.7769 19.1114 11.4231 17.5582C11.5914 17.1522 11.6698 16.7264 11.6584 16.3015L15.6068 13.551C17.9131 13.551 19.7875 11.6721 19.7875 9.36457C19.7875 7.05696 17.9131 5.17969 15.6068 5.17969C13.3792 5.17969 11.3021 7.12337 11.4269 9.41895ZM10.7797 17.2882C10.2795 18.4883 8.89959 19.0576 7.70004 18.5581C7.14668 18.3278 6.72888 17.9057 6.48786 17.4024L7.84886 17.9661C8.73349 18.3344 9.7484 17.9151 10.1161 17.0313C10.485 16.1466 10.0665 15.1307 9.18237 14.7624L7.77547 14.1798C8.31832 13.974 8.9355 13.9665 9.51213 14.2063C10.0934 14.448 10.5445 14.9032 10.7835 15.4847C11.0226 16.0664 11.0216 16.7084 10.7797 17.2882ZM15.6068 12.1536C14.0715 12.1536 12.8215 10.9025 12.8215 9.36457C12.8215 7.82787 14.0715 6.57645 15.6068 6.57645C17.1431 6.57645 18.393 7.82787 18.393 9.36457C18.393 10.9025 17.1431 12.1536 15.6068 12.1536ZM13.5197 9.36033C13.5197 8.20345 14.4569 7.26506 15.6115 7.26506C16.767 7.26506 17.7042 8.20345 17.7042 9.36033C17.7042 10.5174 16.767 11.4549 15.6115 11.4549C14.4569 11.4549 13.5197 10.5174 13.5197 9.36033Z" fill="white"/>
<defs>
<linearGradient id="paint0_linear_469_2469" x1="12.0045" y1="1.11963" x2="12.0045" y2="23.1196" gradientUnits="userSpaceOnUse">
<stop stop-color="#111D2E"/>
<stop offset="0.21248" stop-color="#051839"/>
<stop offset="0.40695" stop-color="#0A1B48"/>
<stop offset="0.5811" stop-color="#132E62"/>
<stop offset="0.7376" stop-color="#144B7E"/>
<stop offset="0.87279" stop-color="#136497"/>
<stop offset="1" stop-color="#1387B8"/>
</linearGradient>
</defs>
</svg>
