<svg width="24" height="25" viewBox="0 0 24 25" fill="none" xmlns="http://www.w3.org/2000/svg">
<path d="M5.51379 16.8962L5.563 17.0351C5.5567 17.0192 5.5387 16.9706 5.51379 16.8962ZM7.461 13.748C7.54741 13.0015 7.84084 12.5835 8.3938 12.1551C9.18499 11.5748 10.1733 11.9031 10.1733 11.9031V9.95584C10.4136 9.94944 10.6539 9.9643 10.8916 10.0002V12.5061C10.8916 12.5061 9.90357 12.1779 9.11238 12.7584C8.55972 13.1866 8.26569 13.6048 8.17958 14.3513C8.17688 14.7567 8.24979 15.2865 8.58553 15.7447C8.50252 15.7003 8.41791 15.6497 8.3317 15.5929C7.59212 15.0747 7.4574 14.2973 7.461 13.748ZM14.9723 6.35546C14.4281 5.73319 14.2222 5.10492 14.1478 4.66357H14.8325C14.8325 4.66357 14.696 5.8208 15.6909 6.95882L15.7047 6.97412C15.4365 6.79814 15.1906 6.59041 14.9723 6.35546ZM18.2706 8.11965V10.5751C18.2706 10.5751 17.3969 10.5394 16.7503 10.3678C15.8475 10.1278 15.2672 9.75962 15.2672 9.75962C15.2672 9.75962 14.8664 9.4971 14.834 9.47879V14.5493C14.834 14.8317 14.7599 15.5367 14.534 16.1248C14.239 16.8941 13.7839 17.399 13.7002 17.5023C13.7002 17.5023 13.1466 18.1848 12.17 18.6445C11.2897 19.0591 10.5168 19.0486 10.2858 19.0591C10.2858 19.0591 8.94976 19.1143 7.74754 18.2991C7.48756 18.1195 7.24489 17.916 7.02266 17.6913L7.02866 17.6958C8.23119 18.511 9.56693 18.4558 9.56693 18.4558C9.79826 18.4453 10.5711 18.4558 11.4511 18.0411C12.4268 17.5815 12.9813 16.8989 12.9813 16.8989C13.0641 16.7957 13.5214 16.2907 13.8151 15.5211C14.0404 14.9334 14.1151 14.228 14.1151 13.9457V8.87573C14.1475 8.89433 14.5481 9.15686 14.5481 9.15686C14.5481 9.15686 15.1286 9.5253 16.0314 9.76502C16.6783 9.93664 17.5517 9.97235 17.5517 9.97235V8.04824C17.8505 8.11815 18.1053 8.13705 18.2706 8.11965Z" fill="#EE1D52"/>
<path d="M17.552 8.04824V9.97175C17.552 9.97175 16.6786 9.93604 16.0317 9.76442C15.129 9.5244 14.5484 9.15626 14.5484 9.15626C14.5484 9.15626 14.1478 8.89373 14.1154 8.87513V13.9463C14.1154 14.2286 14.0413 14.934 13.8154 15.5217C13.5205 16.2913 13.0653 16.7963 12.9816 16.8995C12.9816 16.8995 12.4278 17.5821 11.4515 18.0417C10.5715 18.4564 9.79858 18.4459 9.56725 18.4564C9.56725 18.4564 8.23151 18.5116 7.02898 17.6964L7.02298 17.6919C6.89602 17.5636 6.77651 17.4282 6.66504 17.2862C6.2813 16.7981 6.04607 16.2208 5.98696 16.0561C5.98686 16.0554 5.98686 16.0547 5.98696 16.054C5.89185 15.7678 5.69203 15.0804 5.71934 14.4146C5.76764 13.24 6.16368 12.519 6.26839 12.3384C6.54572 11.8459 6.9064 11.4052 7.33441 11.036C7.7121 10.7174 8.1402 10.4639 8.60115 10.2859C9.09945 10.0769 9.63304 9.96488 10.1733 9.95584V11.9031C10.1733 11.9031 9.18501 11.576 8.39412 12.1551C7.84116 12.5835 7.54773 13.0015 7.46132 13.748C7.45772 14.2973 7.59244 15.0747 8.33142 15.5932C8.41763 15.6502 8.50224 15.7008 8.58524 15.745C8.71434 15.9201 8.87148 16.0726 9.05029 16.1965C9.77217 16.6733 10.377 16.7066 11.1505 16.3969C11.6663 16.1899 12.0545 15.7234 12.2345 15.2064C12.3477 14.8836 12.3462 14.5586 12.3462 14.2226V4.66357H14.1463C14.2208 5.10492 14.4266 5.73319 14.9708 6.35546C15.1892 6.59041 15.4351 6.79814 15.7032 6.97412C15.7824 7.05963 16.1875 7.48238 16.7074 7.74191C16.9763 7.87606 17.2597 7.97884 17.552 8.04824Z" fill="black"/>
<path d="M5.27051 15.458V15.4595L5.31491 15.5858C5.30981 15.5711 5.29331 15.5264 5.27051 15.458Z" fill="#69C9D0"/>
<path d="M8.60123 10.2858C8.14028 10.4638 7.71218 10.7172 7.33449 11.0358C6.90635 11.4059 6.54575 11.8475 6.26878 12.341C6.16406 12.521 5.76802 13.2426 5.71972 14.4172C5.69241 15.083 5.89223 15.7704 5.98735 16.0566C5.98724 16.0573 5.98724 16.058 5.98735 16.0587C6.04735 16.2219 6.28168 16.7992 6.66542 17.2888C6.77689 17.4308 6.8964 17.5662 7.02336 17.6945C6.61657 17.4131 6.25378 17.073 5.94684 16.6852C5.5664 16.2012 5.33177 15.6299 5.27057 15.4613C5.2705 15.4601 5.2705 15.4589 5.27057 15.4577V15.4556C5.17516 15.1697 4.97474 14.482 5.00264 13.8153C5.05094 12.6407 5.44699 11.9197 5.5517 11.7391C5.82859 11.2456 6.1892 10.804 6.61741 10.434C6.99503 10.1153 7.42314 9.86177 7.88415 9.6839C8.1717 9.56459 8.47126 9.47658 8.77765 9.42137C9.23938 9.34077 9.71097 9.33378 10.1749 9.40067V9.95573C9.63412 9.96458 9.1 10.0766 8.60123 10.2858Z" fill="#69C9D0"/>
<path d="M14.148 4.66348H12.3478V14.2228C12.3478 14.5588 12.3478 14.8829 12.2362 15.2066C12.0544 15.7233 11.6676 16.1898 11.1522 16.3968C10.3784 16.7077 9.77352 16.6732 9.05194 16.1964C8.87282 16.0731 8.71528 15.921 8.58569 15.7464C9.20046 16.0743 9.75072 16.0686 10.4324 15.795C10.9475 15.588 11.3349 15.1214 11.5161 14.6045C11.6295 14.2816 11.628 13.9567 11.628 13.6209V4.05981H14.1138C14.1138 4.05981 14.0859 4.29744 14.148 4.66348ZM17.5522 7.51619V8.04814C17.2603 7.97864 16.9774 7.87585 16.7091 7.74181C16.1891 7.48228 15.7841 7.05954 15.7049 6.97403C15.7968 7.03437 15.8921 7.08927 15.9905 7.13845C16.6227 7.45408 17.2452 7.54829 17.5522 7.51619Z" fill="#69C9D0"/>
</svg>
