<svg width="24" height="25" viewBox="0 0 24 25" fill="none" xmlns="http://www.w3.org/2000/svg">
<path fill-rule="evenodd" clip-rule="evenodd" d="M21.5294 6.88589C21.6776 6.4199 21.5294 6.081 20.8727 6.081H18.691C18.1403 6.081 17.8861 6.37754 17.7379 6.69526C17.7379 6.69526 16.6153 9.40649 15.0478 11.1646C14.5395 11.6729 14.3065 11.8424 14.0311 11.8424C13.8828 11.8424 13.6922 11.6729 13.6922 11.2069V6.86471C13.6922 6.31399 13.5227 6.05981 13.0568 6.05981H9.62535C9.28644 6.05981 9.07463 6.31399 9.07463 6.56817C9.07463 7.09771 9.85834 7.2248 9.94307 8.7075V11.9271C9.94307 12.6261 9.81598 12.7532 9.54062 12.7532C8.79927 12.7532 6.99884 10.0208 5.91858 6.90708C5.70677 6.29281 5.49495 6.05981 4.94423 6.05981H2.74135C2.10591 6.05981 2 6.35635 2 6.67408C2 7.24598 2.74135 10.1267 5.45259 13.9393C7.25302 16.5447 9.81598 17.9426 12.1248 17.9426C13.5227 17.9426 13.6922 17.6249 13.6922 17.0954V15.1255C13.6922 14.4901 13.8193 14.3842 14.2641 14.3842C14.5818 14.3842 15.1537 14.5536 16.4458 15.8033C17.9285 17.286 18.1827 17.9638 19.0088 17.9638H21.1905C21.8259 17.9638 22.1224 17.6461 21.953 17.0318C21.7624 16.4176 21.0422 15.528 20.1102 14.4689C19.6018 13.8758 18.8393 13.2192 18.6063 12.9014C18.2886 12.4778 18.3733 12.3084 18.6063 11.9271C18.5851 11.9271 21.254 8.15678 21.5294 6.88589Z" fill="#2787F5"/>
</svg>
