<svg width="24" height="25" viewBox="0 0 24 25" fill="none" xmlns="http://www.w3.org/2000/svg">
<path d="M19.6464 7.77551C19.5546 7.44389 19.3756 7.14157 19.1272 6.89864C18.8787 6.65572 18.5695 6.48066 18.2304 6.39091C16.9888 6.05981 11.9916 6.05981 11.9916 6.05981C11.9916 6.05981 6.99427 6.06984 5.75264 6.40094C5.41349 6.49069 5.1043 6.66575 4.85586 6.90869C4.60742 7.15163 4.42841 7.45396 4.33664 7.78559C3.96108 9.94269 3.81539 13.2296 4.34696 15.3004C4.43873 15.632 4.61775 15.9344 4.86618 16.1773C5.11462 16.4202 5.42381 16.5953 5.76296 16.685C7.00458 17.0161 12.0018 17.0161 12.0018 17.0161C12.0018 17.0161 16.999 17.0161 18.2406 16.685C18.5797 16.5953 18.8889 16.4202 19.1374 16.1773C19.3858 15.9344 19.5649 15.632 19.6566 15.3004C20.0528 13.1403 20.1748 9.85543 19.6464 7.77557V7.77551Z" fill="#FF0000"/>
<path d="M10.4012 13.8857L14.5468 11.538L10.4013 9.19019L10.4012 13.8857Z" fill="white"/>
</svg>
