<svg width="24" height="25" viewBox="0 0 24 25" fill="none" xmlns="http://www.w3.org/2000/svg">
<path fill-rule="evenodd" clip-rule="evenodd" d="M11.9119 4.05981C8.61436 4.06013 6.32944 4.0711 5.15657 5.21644C4.0113 6.38906 4.00033 8.7813 4.00033 11.9716C7.54276 11.8647 9.16269 11.776 10.4547 10.5143C11.7163 9.22233 11.805 7.60242 11.9119 4.05981ZM5.15637 18.9035C4.0111 17.7309 4.00012 15.3386 4.00012 12.1483C7.54256 12.2552 9.16249 12.3439 10.4545 13.6056C11.7161 14.8976 11.8048 16.5175 11.9117 20.0598C8.61416 20.0598 6.32924 20.0491 5.15637 18.9035ZM12.0885 20.0598C12.1954 16.5175 12.2842 14.8976 13.5458 13.6056C14.8377 12.3439 16.4577 12.2552 20.0001 12.1483C19.9998 15.3386 19.9888 17.7309 18.8436 18.9035C17.6707 20.0491 15.3861 20.0598 12.0885 20.0598ZM12.0885 4.05981C12.1954 7.60242 12.2842 9.22233 13.5458 10.5143C14.8377 11.776 16.4577 11.8647 20.0001 11.9716C19.9998 8.7813 19.9888 6.38906 18.8436 5.21644C17.6707 4.0711 15.3861 4.06013 12.0885 4.05981Z" fill="white"/>
<path fill-rule="evenodd" clip-rule="evenodd" d="M20 12.149V12.0606V11.9725C16.4576 11.8653 14.8376 11.777 13.5456 10.515C12.2841 9.22328 12.1953 7.6034 12.0884 4.06079H12H11.9116C11.8047 7.6034 11.7159 9.22328 10.4543 10.515C9.16234 11.777 7.54241 11.8653 4 11.9725V12.0606V12.149C7.54241 12.2562 9.16234 12.3446 10.4543 13.6063C11.7159 14.8983 11.8047 16.5182 11.9116 20.0608H12H12.0884C12.1953 16.5182 12.2841 14.8983 13.5456 13.6063C14.8376 12.3446 16.4576 12.2562 20 12.149Z" fill="url(#paint0_linear_2_298)"/>
<defs>
<linearGradient id="paint0_linear_2_298" x1="12" y1="4.06079" x2="12" y2="20.0608" gradientUnits="userSpaceOnUse">
<stop stop-color="#030E1B" stop-opacity="0.6"/>
<stop offset="0.0001" stop-color="#041324"/>
<stop offset="1" stop-color="#030E1B"/>
</linearGradient>
</defs>
</svg>
