<svg width="25" height="24" viewBox="0 0 25 24" fill="none" xmlns="http://www.w3.org/2000/svg">
<path d="M14.9656 12.0002H21.6183" stroke="#0059FF" stroke-width="1.5" stroke-linecap="round" stroke-linejoin="round"/>
<path d="M2.61035 12.0002H4.27395" stroke="#0059FF" stroke-width="1.5" stroke-linecap="round" stroke-linejoin="round"/>
<path d="M10.6899 14.4678L7.3623 20.2312" stroke="#0059FF" stroke-width="1.5" stroke-linecap="round" stroke-linejoin="round"/>
<path d="M16.8663 3.76953L16.0345 5.21025" stroke="#0059FF" stroke-width="1.5" stroke-linecap="round" stroke-linejoin="round"/>
<path d="M10.6899 9.53307L7.3623 3.76953" stroke="#0059FF" stroke-width="1.5" stroke-linecap="round" stroke-linejoin="round"/>
<path d="M16.8663 20.2308L16.0345 18.79" stroke="#0059FF" stroke-width="1.5" stroke-linecap="round" stroke-linejoin="round"/>
<path d="M17.6582 6.45667C20.72 9.51845 20.72 14.4826 17.6582 17.5444C14.5964 20.6061 9.63229 20.6061 6.57051 17.5444C3.50872 14.4826 3.50872 9.51845 6.57051 6.45667C8.04077 4.98624 10.035 4.16016 12.1144 4.16016C14.1937 4.16016 16.1879 4.98624 17.6582 6.45667" stroke="#0059FF" stroke-width="1.5" stroke-linecap="round" stroke-linejoin="round"/>
<circle cx="12.1144" cy="12.0006" r="2.85119" stroke="#0059FF" stroke-width="1.5" stroke-linecap="round" stroke-linejoin="round"/>
<path d="M3.88379 16.752L5.32451 15.9202" stroke="#0059FF" stroke-width="1.5" stroke-linecap="round" stroke-linejoin="round"/>
<path d="M20.345 7.24837L18.9043 8.08017" stroke="#0059FF" stroke-width="1.5" stroke-linecap="round" stroke-linejoin="round"/>
<path d="M12.1145 21.5044V19.8408" stroke="#0059FF" stroke-width="1.5" stroke-linecap="round" stroke-linejoin="round"/>
<path d="M12.1145 2.49609V4.1597" stroke="#0059FF" stroke-width="1.5" stroke-linecap="round" stroke-linejoin="round"/>
<path d="M20.345 16.752L18.9043 15.9202" stroke="#0059FF" stroke-width="1.5" stroke-linecap="round" stroke-linejoin="round"/>
<path d="M3.88379 7.24837L5.32451 8.08017" stroke="#0059FF" stroke-width="1.5" stroke-linecap="round" stroke-linejoin="round"/>
</svg>
