<svg width="25" height="25" viewBox="0 0 25 25" fill="none" xmlns="http://www.w3.org/2000/svg">
<path fill-rule="evenodd" clip-rule="evenodd" d="M20.1929 21H18.1929C17.6409 21 17.1929 20.552 17.1929 20V18C17.1929 17.448 17.6409 17 18.1929 17H20.1929C20.7449 17 21.1929 17.448 21.1929 18V20C21.1929 20.552 20.7449 21 20.1929 21Z" stroke="#0059FF" stroke-width="1.5" stroke-linecap="round" stroke-linejoin="round"/>
<path d="M12.1929 9.69043V17.0004" stroke="#0059FF" stroke-width="1.5" stroke-linecap="round" stroke-linejoin="round"/>
<path fill-rule="evenodd" clip-rule="evenodd" d="M13.1929 21H11.1929C10.6409 21 10.1929 20.552 10.1929 20V18C10.1929 17.448 10.6409 17 11.1929 17H13.1929C13.7449 17 14.1929 17.448 14.1929 18V20C14.1929 20.552 13.7449 21 13.1929 21Z" stroke="#0059FF" stroke-width="1.5" stroke-linecap="round" stroke-linejoin="round"/>
<path fill-rule="evenodd" clip-rule="evenodd" d="M6.19287 21H4.19287C3.64087 21 3.19287 20.552 3.19287 20V18C3.19287 17.448 3.64087 17 4.19287 17H6.19287C6.74487 17 7.19287 17.448 7.19287 18V20C7.19287 20.552 6.74487 21 6.19287 21Z" stroke="#0059FF" stroke-width="1.5" stroke-linecap="round" stroke-linejoin="round"/>
<path fill-rule="evenodd" clip-rule="evenodd" d="M16.3479 9.69H8.03787C6.46687 9.69 5.19287 8.416 5.19287 6.845V6.845C5.19287 5.274 6.46687 4 8.03787 4H16.3479C17.9189 4 19.1929 5.274 19.1929 6.845V6.845C19.1929 8.416 17.9189 9.69 16.3479 9.69Z" stroke="#0059FF" stroke-width="1.5" stroke-linecap="round" stroke-linejoin="round"/>
<path d="M5.19287 17V15C5.19287 13.895 6.08787 13 7.19287 13H17.1929C18.2979 13 19.1929 13.895 19.1929 15V17" stroke="#0059FF" stroke-width="1.5" stroke-linecap="round" stroke-linejoin="round"/>
</svg>
