<svg width="39" height="39" viewBox="0 0 39 39" fill="none" xmlns="http://www.w3.org/2000/svg">
<g opacity="0.5">
<path d="M21.5869 24.6694L14.9399 21.7746" stroke="#6394B7" stroke-width="2.5" stroke-linecap="round" stroke-linejoin="round"/>
<path fill-rule="evenodd" clip-rule="evenodd" d="M14.5733 21.2272C13.2113 18.98 13.0885 16.0389 14.6676 13.5478C16.3752 10.8555 19.7865 9.59851 22.8383 10.5229C27.0746 11.8051 29.1281 16.4319 27.4144 20.3669C26.4374 22.6103 24.4608 24.1046 22.2341 24.5662C21.8343 24.649 21.488 24.8963 21.325 25.2707L19.99 28.3361C19.3237 29.866 17.5441 30.5658 16.0142 29.8995L14.9064 29.417C13.3765 28.7508 12.6767 26.9712 13.343 25.4413L14.676 22.3804C14.8405 22.0026 14.7856 21.578 14.5733 21.2272Z" stroke="#6394B7" stroke-width="2.5" stroke-linecap="round" stroke-linejoin="round"/>
<path d="M32.0426 15.7929L33.935 15.0487" stroke="#6394B7" stroke-width="2.5" stroke-linecap="round" stroke-linejoin="round"/>
<path d="M9.49215 19.1523L7.5997 19.8964" stroke="#6394B7" stroke-width="2.5" stroke-linecap="round" stroke-linejoin="round"/>
<path d="M15.9073 7.44812L15.1631 5.55566" stroke="#6394B7" stroke-width="2.5" stroke-linecap="round" stroke-linejoin="round"/>
<path d="M27.2178 26.8711L27.962 28.7635" stroke="#6394B7" stroke-width="2.5" stroke-linecap="round" stroke-linejoin="round"/>
<path d="M30.7378 21.8147L32.61 22.63" stroke="#6394B7" stroke-width="2.5" stroke-linecap="round" stroke-linejoin="round"/>
<path d="M8.92478 12.3147L10.797 13.13" stroke="#6394B7" stroke-width="2.5" stroke-linecap="round" stroke-linejoin="round"/>
<path d="M13.584 24.8879L20.087 27.72" stroke="#6394B7" stroke-width="2.5" stroke-linecap="round" stroke-linejoin="round"/>
</g>
</svg>
