<svg width="25" height="25" viewBox="0 0 25 25" fill="none" xmlns="http://www.w3.org/2000/svg">
<path d="M21.1929 12.5H17.6119C16.8279 12.5 16.1929 13.135 16.1929 13.919V15.081C16.1929 15.865 16.8279 16.5 17.6119 16.5H21.1929" stroke="#0059FF" stroke-width="1.5" stroke-linecap="round" stroke-linejoin="round"/>
<path fill-rule="evenodd" clip-rule="evenodd" d="M19.1929 21.5H5.19287C4.08787 21.5 3.19287 20.605 3.19287 19.5V9.5C3.19287 8.395 4.08787 7.5 5.19287 7.5H19.1929C20.2979 7.5 21.1929 8.395 21.1929 9.5V19.5C21.1929 20.605 20.2979 21.5 19.1929 21.5Z" stroke="#0059FF" stroke-width="1.5" stroke-linecap="round" stroke-linejoin="round"/>
<path d="M14.1929 7.50031L10.8999 4.20731C10.5089 3.81631 9.87587 3.81631 9.48587 4.20731L6.19287 7.50031" stroke="#0059FF" stroke-width="1.5" stroke-linecap="round" stroke-linejoin="round"/>
<path d="M12.1929 5.50031L13.4859 4.20731C13.8769 3.81631 14.5099 3.81631 14.8999 4.20731L18.1929 7.50031" stroke="#0059FF" stroke-width="1.5" stroke-linecap="round" stroke-linejoin="round"/>
</svg>
