<svg width="46" height="47" viewBox="0 0 46 47" fill="none" xmlns="http://www.w3.org/2000/svg">
<g opacity="0.4">
<path d="M30.3197 35.7784L29.5829 38.7307C29.5059 39.0393 29.2506 39.2711 28.9361 39.318C28.6215 39.365 28.3097 39.2178 28.1459 38.9452L25.5254 34.582" stroke="#6394B7" stroke-width="2.5" stroke-linecap="round" stroke-linejoin="round"/>
<path d="M33.0083 21.7568L33.7767 21.9486C35.8805 22.4735 37.1604 24.6046 36.6355 26.7085L35.0853 32.9209C34.5603 35.0248 32.4292 36.3047 30.3253 35.7797V35.7797" stroke="#6394B7" stroke-width="2.5" stroke-linecap="round" stroke-linejoin="round"/>
<path d="M25.5308 34.5837L21.1588 33.4927C19.0549 32.9677 17.775 30.8367 18.3 28.7328L18.7065 27.1035" stroke="#6394B7" stroke-width="2.5" stroke-linecap="round" stroke-linejoin="round"/>
<path fill-rule="evenodd" clip-rule="evenodd" d="M17.8748 22.0328L13.3893 24.7268C13.1166 24.8906 12.7722 24.874 12.5165 24.6847C12.2609 24.4955 12.1445 24.1709 12.2215 23.8623L12.9826 20.812L12.9772 20.8107C11.9669 20.5586 11.0981 19.9154 10.562 19.0228C10.0259 18.1301 9.86632 17.061 10.1184 16.0507L11.6442 9.93632C12.1691 7.83246 14.3002 6.55253 16.4041 7.07751L27.0962 9.74556C29.2001 10.2705 30.48 12.4016 29.955 14.5055L28.4293 20.6199C28.1772 21.6302 27.5341 22.499 26.6414 23.0351C25.7488 23.5713 24.6797 23.7308 23.6694 23.4787L17.8748 22.0328Z" stroke="#6394B7" stroke-width="2.5" stroke-linecap="round" stroke-linejoin="round"/>
<path d="M17.5557 12.2278L22.1334 13.3701" stroke="#6394B7" stroke-width="2.5" stroke-linecap="round" stroke-linejoin="round"/>
<path d="M16.4136 16.8059L17.9395 17.1867" stroke="#6394B7" stroke-width="2.5" stroke-linecap="round" stroke-linejoin="round"/>
<path d="M26.3365 29.0071L29.3883 29.7686" stroke="#6394B7" stroke-width="2.5" stroke-linecap="round" stroke-linejoin="round"/>
</g>
</svg>
