<svg width="25" height="24" viewBox="0 0 25 24" fill="none" xmlns="http://www.w3.org/2000/svg">
<path fill-rule="evenodd" clip-rule="evenodd" d="M12.1144 8.99859L9.08324 9.75637C8.54722 9.89038 8.00406 9.56448 7.87005 9.02847L7.25359 6.56258C7.1613 6.19342 7.17619 5.80559 7.29652 5.44459L7.88468 3.68014C8.02085 3.27163 8.40315 2.99609 8.83375 2.99609H15.395C15.8256 2.99609 16.2079 3.27164 16.344 3.68015L17.0243 5.721C17.0845 5.9015 17.0919 6.09542 17.0458 6.28L16.3587 9.0285C16.2247 9.56451 15.6815 9.89041 15.1455 9.7564L12.1144 8.99859Z" stroke="#0059FF" stroke-width="1.5" stroke-linecap="round" stroke-linejoin="round"/>
<path d="M10.6138 12.0002H13.615" stroke="#0059FF" stroke-width="1.5" stroke-linecap="round" stroke-linejoin="round"/>
<path d="M10.6137 12L9.11304 21.0037" stroke="#0059FF" stroke-width="1.5" stroke-linecap="round" stroke-linejoin="round"/>
<path d="M13.615 12L15.1156 21.0037" stroke="#0059FF" stroke-width="1.5" stroke-linecap="round" stroke-linejoin="round"/>
<path d="M14.7822 9.66602L13.615 12.0004" stroke="#0059FF" stroke-width="1.5" stroke-linecap="round" stroke-linejoin="round"/>
<path d="M9.44653 9.66602L10.6137 12.0004" stroke="#0059FF" stroke-width="1.5" stroke-linecap="round" stroke-linejoin="round"/>
<path d="M7.19462 5.99805H6.11185C4.4543 5.99805 3.1106 7.34175 3.1106 8.9993V18.003C3.1106 19.6606 4.4543 21.0043 6.11185 21.0043H18.1168C19.7744 21.0043 21.1181 19.6606 21.1181 18.003V8.9993C21.1181 7.34175 19.7744 5.99805 18.1168 5.99805H17.0756" stroke="#0059FF" stroke-width="1.5" stroke-linecap="round" stroke-linejoin="round"/>
<path d="M15.9859 3.19141L12.1143 8.99883L8.24268 3.19141" stroke="#0059FF" stroke-width="1.5" stroke-linecap="round" stroke-linejoin="round"/>
</svg>
