<svg width="25" height="25" viewBox="0 0 25 25" fill="none" xmlns="http://www.w3.org/2000/svg">
<path d="M20.1965 9.49859V5.49693C20.1965 4.3919 19.3007 3.49609 18.1957 3.49609H5.19029C4.08526 3.49609 3.18945 4.3919 3.18945 5.49693V19.5028C3.18945 20.6078 4.08526 21.5036 5.19029 21.5036H10.1924" stroke="#0059FF" stroke-width="1.5" stroke-linecap="round" stroke-linejoin="round"/>
<path d="M7.19092 7.49826H16.1947" stroke="#0059FF" stroke-width="1.5" stroke-linecap="round" stroke-linejoin="round"/>
<path d="M7.19092 11.4992H9.19175" stroke="#0059FF" stroke-width="1.5" stroke-linecap="round" stroke-linejoin="round"/>
<path d="M7.19092 15.5012H8.19133" stroke="#0059FF" stroke-width="1.5" stroke-linecap="round" stroke-linejoin="round"/>
<path fill-rule="evenodd" clip-rule="evenodd" d="M15.6943 20.5037C18.1806 20.5037 20.1961 18.4882 20.1961 16.0019C20.1961 13.5156 18.1806 11.5 15.6943 11.5C13.2079 11.5 11.1924 13.5156 11.1924 16.0019C11.1924 18.4882 13.2079 20.5037 15.6943 20.5037Z" stroke="#0059FF" stroke-width="1.5" stroke-linecap="round" stroke-linejoin="round"/>
<path d="M14.4277 15.1818H16.9608" stroke="#0059FF" stroke-width="1.5" stroke-linecap="round" stroke-linejoin="round"/>
<path d="M15.6945 15.1826V17.5046" stroke="#0059FF" stroke-width="1.5" stroke-linecap="round" stroke-linejoin="round"/>
<path d="M18.9458 19.2529L21.1967 21.5039" stroke="#0059FF" stroke-width="1.5" stroke-linecap="round" stroke-linejoin="round"/>
</svg>
