<svg width="37" height="36" viewBox="0 0 37 36" fill="none" xmlns="http://www.w3.org/2000/svg">
<g opacity="0.5">
<path fill-rule="evenodd" clip-rule="evenodd" d="M23.1048 26.4733L28.9398 24.9066C30.2293 24.5604 30.9934 23.2355 30.6471 21.9459L26.8871 7.94195C26.5408 6.65242 25.2159 5.88839 23.9264 6.23463L7.58839 10.6214C6.29886 10.9676 5.53483 12.2925 5.88107 13.582L9.64113 27.586C9.98737 28.8756 11.3123 29.6396 12.6018 29.2934L18.4368 27.7267L21.3975 29.434L23.1048 26.4733Z" stroke="#6394B7" stroke-width="2.5" stroke-linecap="round" stroke-linejoin="round"/>
<path fill-rule="evenodd" clip-rule="evenodd" d="M16.1106 23.3367L14.4978 23.7697C14.1372 23.8665 13.7671 23.6531 13.6703 23.2925L12.2972 18.1787C12.2004 17.8181 12.4138 17.448 12.7744 17.3512L14.3872 16.9182C14.7478 16.8214 15.1179 17.0348 15.2279 17.4444L16.6009 22.5582C16.6846 22.8698 16.4712 23.2399 16.1106 23.3367V23.3367Z" stroke="#6394B7" stroke-width="2.5" stroke-linecap="round" stroke-linejoin="round"/>
<path d="M15.411 18.1259L16.6187 14.022C17.084 12.442 19.3317 12.4678 19.7591 14.0596L20.2589 15.9209L21.2975 15.6421L22.021 15.4478C22.5497 15.3059 23.1145 15.4382 23.5273 15.8016C23.8925 16.1226 24.099 16.5889 24.0908 17.0753L24.0393 20.2945C24.0299 20.8375 23.6623 21.3091 23.1384 21.4497L18.957 22.5724C18.6174 22.6636 18.2552 22.6333 17.9355 22.4864L16.3917 21.7786" stroke="#6394B7" stroke-width="2.5" stroke-linecap="round" stroke-linejoin="round"/>
</g>
</svg>
