<svg width="52" height="51" viewBox="0 0 52 51" fill="none" xmlns="http://www.w3.org/2000/svg">
<g opacity="0.7">
<path fill-rule="evenodd" clip-rule="evenodd" d="M28.3989 28.4733C26.6334 29.0404 25.6618 30.9313 26.2288 32.6968L26.7421 34.2952C27.3092 36.0608 29.2001 37.0324 30.9656 36.4654L32.352 36.0201L33.1215 38.4161C33.2205 38.7246 33.4883 38.9485 33.8094 38.9914C34.1305 39.0344 34.4477 38.8887 34.6243 38.6171L37.0336 34.9125C37.2442 34.5888 37.5599 34.3475 37.9276 34.2294L42.1543 32.872C43.9199 32.305 44.8915 30.4141 44.3245 28.6486L43.8111 27.0502C43.2441 25.2846 41.3532 24.313 39.5877 24.88L28.3989 28.4733Z" stroke="#6394B7" stroke-width="2.5" stroke-linecap="round" stroke-linejoin="round"/>
<path fill-rule="evenodd" clip-rule="evenodd" d="M8.36671 15.5114C6.60117 16.0784 5.62957 17.9693 6.19658 19.7349L6.70991 21.3333C7.27691 23.0988 9.16782 24.0704 10.9334 23.5034L15.16 22.146C15.5278 22.0279 15.9249 22.0402 16.2846 22.1808L20.4004 23.7898C20.7021 23.9078 21.0448 23.8416 21.2809 23.6197C21.517 23.3978 21.6043 23.0599 21.5052 22.7514L20.7357 20.3553L22.1221 19.9101C23.8876 19.3431 24.8592 17.4522 24.2922 15.6867L23.7789 14.0883C23.2119 12.3227 21.321 11.3511 19.5555 11.9181L8.36671 15.5114Z" stroke="#6394B7" stroke-width="2.5" stroke-linecap="round" stroke-linejoin="round"/>
<path fill-rule="evenodd" clip-rule="evenodd" d="M14.6027 45.9081L14.3942 45.2591C13.8066 43.4111 14.8217 41.4354 16.6664 40.8372L21.1611 39.3937C23.0091 38.806 24.9848 39.8212 25.583 41.6658L25.7914 42.3148C25.9332 42.7562 25.6903 43.2289 25.2489 43.3707L15.6585 46.4506C15.2171 46.5924 14.7444 46.3495 14.6027 45.9081Z" stroke="#6394B7" stroke-width="2.5" stroke-linecap="round" stroke-linejoin="round"/>
<ellipse cx="16.6033" cy="32.9231" rx="3.3576" ry="3.3576" transform="rotate(-17.8046 16.6033 32.9231)" stroke="#6394B7" stroke-width="2.5" stroke-linecap="round" stroke-linejoin="round"/>
<path fill-rule="evenodd" clip-rule="evenodd" d="M29.735 21.6522L29.5266 21.0033C28.9389 19.1553 29.9541 17.1796 31.7987 16.5813L36.2934 15.1379C38.1414 14.5502 40.1171 15.5653 40.7153 17.41L40.9237 18.0589C41.0655 18.5003 40.8226 18.973 40.3812 19.1148L30.7908 22.1948C30.3495 22.3365 29.8767 22.0936 29.735 21.6522Z" stroke="#6394B7" stroke-width="2.5" stroke-linecap="round" stroke-linejoin="round"/>
<ellipse cx="31.7361" cy="8.6672" rx="3.3576" ry="3.3576" transform="rotate(-17.8046 31.7361 8.6672)" stroke="#6394B7" stroke-width="2.5" stroke-linecap="round" stroke-linejoin="round"/>
</g>
</svg>
