<svg width="25" height="24" viewBox="0 0 25 24" fill="none" xmlns="http://www.w3.org/2000/svg">
<path d="M21.1181 11.9998C21.1181 16.9725 17.087 21.0036 12.1143 21.0036C7.14171 21.0036 3.1106 16.9725 3.1106 11.9998C3.1106 7.02721 7.14171 2.99609 12.1143 2.99609" stroke="#0059FF" stroke-width="1.5" stroke-linecap="round" stroke-linejoin="round"/>
<path fill-rule="evenodd" clip-rule="evenodd" d="M18.457 2.38783C18.5889 2.14633 18.8421 1.99609 19.1173 1.99609C19.3924 1.99609 19.6457 2.14633 19.7775 2.38783L20.3608 3.45328C20.4297 3.58023 20.534 3.68447 20.6609 3.7534L21.7254 4.33565C21.9673 4.46767 22.1178 4.72129 22.1178 4.99692C22.1178 5.27255 21.9673 5.52617 21.7254 5.6582L20.6609 6.24144C20.5338 6.31009 20.4294 6.41441 20.3608 6.54156L19.7775 7.60601C19.6457 7.84752 19.3924 7.99775 19.1173 7.99775C18.8421 7.99775 18.5889 7.84752 18.457 7.60601L17.8738 6.54056C17.8051 6.41341 17.7008 6.30909 17.5736 6.24044L16.5092 5.6582C16.2672 5.52617 16.1167 5.27255 16.1167 4.99692C16.1167 4.72129 16.2672 4.46767 16.5092 4.33565L17.5736 3.7534C17.7006 3.68447 17.8048 3.58023 17.8738 3.45328L18.457 2.38783Z" stroke="#0059FF" stroke-width="1.5" stroke-linecap="round" stroke-linejoin="round"/>
<path d="M13.365 9.99902H15.866C16.1423 9.99902 16.3662 10.223 16.3662 10.4992V15.5013C16.3662 15.7776 16.1423 16.0015 15.866 16.0015H13.365" stroke="#0059FF" stroke-width="1.5" stroke-linecap="round" stroke-linejoin="round"/>
<path d="M10.3636 16.0017H7.86251C7.58626 16.0017 7.3623 15.7777 7.3623 15.5015V12.5002C7.3623 12.224 7.58626 12 7.86251 12H10.3636" stroke="#0059FF" stroke-width="1.5" stroke-linecap="round" stroke-linejoin="round"/>
<path fill-rule="evenodd" clip-rule="evenodd" d="M13.3648 16.0018H10.3635V7.49826C10.3635 7.222 10.5875 6.99805 10.8637 6.99805H12.8646C13.1408 6.99805 13.3648 7.222 13.3648 7.49826V16.0018Z" stroke="#0059FF" stroke-width="1.5" stroke-linecap="round" stroke-linejoin="round"/>
</svg>
