<svg width="38" height="37" viewBox="0 0 38 37" fill="none" xmlns="http://www.w3.org/2000/svg">
<g opacity="0.7">
<path fill-rule="evenodd" clip-rule="evenodd" d="M24.9622 26.9326L23.8207 26.5365C23.1905 26.3179 22.8565 25.629 23.0752 24.9988L25.0556 19.291C25.2742 18.6608 25.9631 18.3269 26.5932 18.5455L27.7348 18.9416C28.9962 19.3793 29.6635 20.7555 29.2258 22.0169L28.0375 25.4416C27.5999 26.703 26.2237 27.3703 24.9622 26.9326Z" stroke="#6394B7" stroke-width="2.5" stroke-linecap="round" stroke-linejoin="round"/>
<path fill-rule="evenodd" clip-rule="evenodd" d="M10.1219 21.7837L8.98029 21.3877C7.71886 20.95 7.05164 19.5738 7.48931 18.3124L8.67756 14.8876C9.11523 13.6262 10.4914 12.959 11.7529 13.3967L12.8944 13.7927C13.5246 14.0114 13.8586 14.7002 13.6399 15.3304L11.6595 21.0383C11.4409 21.6684 10.752 22.0024 10.1219 21.7837Z" stroke="#6394B7" stroke-width="2.5" stroke-linecap="round" stroke-linejoin="round"/>
<path d="M27.1641 18.7436L27.3621 18.1728C28.784 14.0746 26.6147 9.59999 22.5164 8.17805V8.17805C18.4182 6.75612 13.9436 8.92549 12.5217 13.0237L12.3236 13.5945" stroke="#6394B7" stroke-width="2.5" stroke-linecap="round" stroke-linejoin="round"/>
<path fill-rule="evenodd" clip-rule="evenodd" d="M16.0014 29.2592L14.5745 28.7641C13.7868 28.4908 13.3693 27.6297 13.6426 26.842V26.842C13.9159 26.0543 14.777 25.6368 15.5647 25.9101L16.9916 26.4052C17.7793 26.6785 18.1968 27.5396 17.9235 28.3273V28.3273C17.6502 29.115 16.7891 29.5325 16.0014 29.2592Z" stroke="#6394B7" stroke-width="2.5" stroke-linecap="round" stroke-linejoin="round"/>
<path d="M17.9236 28.3271L20.3494 29.1687C21.6108 29.6064 22.9871 28.9392 23.4247 27.6778L23.8208 26.5362" stroke="#6394B7" stroke-width="2.5" stroke-linecap="round" stroke-linejoin="round"/>
</g>
</svg>
