<svg width="24" height="24" viewBox="0 0 24 24" fill="none" xmlns="http://www.w3.org/2000/svg">
<path d="M10.9997 18.0029H5.99759C4.34004 18.0029 2.99634 16.6592 2.99634 15.0017V6.99832C2.99634 5.34078 4.34004 3.99707 5.99759 3.99707H18.0026C19.6601 3.99707 21.0038 5.34078 21.0038 6.99832V11" stroke="#6394B7" stroke-width="1.5" stroke-linecap="round" stroke-linejoin="round"/>
<path d="M20.9649 6.61323L13.5342 10.9538C12.5989 11.5002 11.4418 11.5002 10.5066 10.9538L3.03735 6.59082" stroke="#6394B7" stroke-width="1.5" stroke-linecap="round" stroke-linejoin="round"/>
<path fill-rule="evenodd" clip-rule="evenodd" d="M17.0994 20.7287L21.2111 16.6169C21.6017 16.2263 21.6017 15.593 21.2111 15.2024L19.8027 13.7939C19.6151 13.6064 19.3607 13.501 19.0955 13.501C18.8302 13.501 18.5758 13.6064 18.3882 13.7939L14.2765 17.9057C14.1001 18.0821 14.001 18.3213 14.001 18.5707V20.504C14.001 20.6367 14.0537 20.7639 14.1475 20.8577C14.2412 20.9514 14.3684 21.0041 14.5011 21.0041H16.4344C16.6838 21.0041 16.923 20.9051 17.0994 20.7287V20.7287Z" stroke="#6394B7" stroke-width="1.5" stroke-linecap="round" stroke-linejoin="round"/>
</svg>
