<svg width="89" height="88" viewBox="0 0 89 88" fill="none" xmlns="http://www.w3.org/2000/svg">
<rect x="0.5" width="88" height="88" rx="16" fill="#0059FF"/>
<path d="M37.3139 56.8351C39.1364 58.6575 39.1364 61.6123 37.3139 63.4348C35.4915 65.2572 32.5367 65.2572 30.7142 63.4348C28.8918 61.6123 28.8918 58.6575 30.7142 56.8351C32.5367 55.0126 35.4915 55.0126 37.3139 56.8351" stroke="white" stroke-width="3.5" stroke-linecap="round" stroke-linejoin="round"/>
<path d="M58.2858 56.8351C60.1083 58.6575 60.1083 61.6123 58.2858 63.4348C56.4634 65.2572 53.5086 65.2572 51.6862 63.4348C49.8637 61.6123 49.8637 58.6575 51.6862 56.8351C53.5086 55.0126 56.4634 55.0126 58.2858 56.8351" stroke="white" stroke-width="3.5" stroke-linecap="round" stroke-linejoin="round"/>
<path d="M30.8342 36.892C32.6566 38.7144 32.6566 41.6692 30.8342 43.4917C29.0117 45.3141 26.057 45.3141 24.2345 43.4917C22.4121 41.6692 22.4121 38.7144 24.2345 36.892C26.057 35.0695 29.0117 35.0695 30.8342 36.892" stroke="white" stroke-width="3.5" stroke-linecap="round" stroke-linejoin="round"/>
<path d="M47.7998 24.5651C49.6222 26.3875 49.6222 29.3423 47.7998 31.1647C45.9773 32.9872 43.0225 32.9872 41.2001 31.1647C39.3776 29.3423 39.3776 26.3875 41.2001 24.5651C43.0225 22.7426 45.9773 22.7426 47.7998 24.5651" stroke="white" stroke-width="3.5" stroke-linecap="round" stroke-linejoin="round"/>
<path d="M64.7656 36.892C66.588 38.7144 66.588 41.6692 64.7656 43.4917C62.9431 45.3141 59.9884 45.3141 58.1659 43.4917C56.3435 41.6692 56.3435 38.7144 58.1659 36.892C59.9884 35.0695 62.9431 35.0695 64.7656 36.892" stroke="white" stroke-width="3.5" stroke-linecap="round" stroke-linejoin="round"/>
<path d="M47.7998 41.7362C49.6222 43.5587 49.6222 46.5134 47.7998 48.3359C45.9773 50.1583 43.0225 50.1583 41.2001 48.3359C39.3776 46.5134 39.3776 43.5587 41.2001 41.7362C43.0225 39.9138 45.9773 39.9138 47.7998 41.7362" stroke="white" stroke-width="3.5" stroke-linecap="round" stroke-linejoin="round"/>
<path d="M47.1599 48.8533L52.3166 56.3199" stroke="white" stroke-width="3.5" stroke-linecap="round" stroke-linejoin="round"/>
<path d="M41.84 48.8533L36.6833 56.2966" stroke="white" stroke-width="3.5" stroke-linecap="round" stroke-linejoin="round"/>
<path d="M40.0434 43.7665L31.9934 41.4565" stroke="white" stroke-width="3.5" stroke-linecap="round" stroke-linejoin="round"/>
<path d="M44.4999 40.3599V32.5432" stroke="white" stroke-width="3.5" stroke-linecap="round" stroke-linejoin="round"/>
<path d="M48.9568 43.7665L57.0068 41.4565" stroke="white" stroke-width="3.5" stroke-linecap="round" stroke-linejoin="round"/>
</svg>
