<svg width="89" height="88" viewBox="0 0 89 88" fill="none" xmlns="http://www.w3.org/2000/svg">
<rect x="0.5" width="88" height="88" rx="16" fill="#9D00FF"/>
<path fill-rule="evenodd" clip-rule="evenodd" d="M32.8333 30V25.3333C32.8333 24.0453 31.788 23 30.5 23H25.8333C24.5453 23 23.5 24.0453 23.5 25.3333V30C23.5 31.288 24.5453 32.3333 25.8333 32.3333H30.5C31.788 32.3333 32.8333 31.288 32.8333 30Z" stroke="white" stroke-width="3.5" stroke-linecap="round" stroke-linejoin="round"/>
<path fill-rule="evenodd" clip-rule="evenodd" d="M34.8075 48.6665V44.3592C34.8075 43.0712 33.7622 42.0259 32.4742 42.0259H28.1668C26.8788 42.0259 25.8335 43.0712 25.8335 44.3592V48.6665C25.8335 49.9545 26.8788 50.9999 28.1668 50.9999H32.4742C33.7622 50.9999 34.8075 49.9545 34.8075 48.6665Z" stroke="white" stroke-width="3.5" stroke-linecap="round" stroke-linejoin="round"/>
<path fill-rule="evenodd" clip-rule="evenodd" d="M49.1668 37V32.3333C49.1668 31.0453 48.1215 30 46.8335 30H42.1668C40.8788 30 39.8335 31.0453 39.8335 32.3333V37C39.8335 38.288 40.8788 39.3333 42.1668 39.3333H46.8335C48.1215 39.3333 49.1668 38.288 49.1668 37Z" stroke="white" stroke-width="3.5" stroke-linecap="round" stroke-linejoin="round"/>
<path fill-rule="evenodd" clip-rule="evenodd" d="M46.8333 55.6667V48.6667C46.8333 47.3787 47.8787 46.3333 49.1667 46.3333H56.1667V39.3333C56.1667 38.0453 57.212 37 58.5 37H63.1667C64.4547 37 65.5 38.0453 65.5 39.3333V62.6667C65.5 63.9547 64.4547 65 63.1667 65H39.8333C38.5453 65 37.5 63.9547 37.5 62.6667V58C37.5 56.712 38.5453 55.6667 39.8333 55.6667H46.8333Z" stroke="white" stroke-width="3.5" stroke-linecap="round" stroke-linejoin="round"/>
</svg>
