<svg width="89" height="88" viewBox="0 0 89 88" fill="none" xmlns="http://www.w3.org/2000/svg">
<rect x="0.5" width="88" height="88" rx="16" fill="#FF3B00"/>
<path d="M62.8311 46.3482C65.1205 48.6373 65.8056 52.0802 64.5667 55.0714C63.3279 58.0625 60.4091 60.0128 57.1716 60.0128C53.934 60.0128 51.0153 58.0625 49.7764 55.0714C48.5376 52.0802 49.2226 48.6373 51.512 46.3482C54.6389 43.2254 59.7042 43.2254 62.8311 46.3482" stroke="white" stroke-width="3.5" stroke-linecap="round" stroke-linejoin="round"/>
<path d="M67.8432 62.6745L62.8291 57.6604" stroke="white" stroke-width="3.5" stroke-linecap="round" stroke-linejoin="round"/>
<path d="M65.5087 39.3314V29.9941C65.5087 26.1265 62.3734 22.9912 58.5058 22.9912H30.4941C26.6265 22.9912 23.4912 26.1265 23.4912 29.9941V58.0058C23.4912 61.8734 26.6265 65.0087 30.4941 65.0087H48.2068" stroke="white" stroke-width="3.5" stroke-linecap="round" stroke-linejoin="round"/>
<path d="M37.4972 22.9912V65.0087" stroke="white" stroke-width="3.5" stroke-linecap="round" stroke-linejoin="round"/>
</svg>
