<svg width="89" height="88" viewBox="0 0 89 88" fill="none" xmlns="http://www.w3.org/2000/svg">
<rect x="0.5" width="88" height="88" rx="16" fill="#FF3B00"/>
<path d="M49.1665 48.6667H39.8332C37.2558 48.6667 35.1665 50.7561 35.1665 53.3334" stroke="white" stroke-width="3.5" stroke-linecap="round" stroke-linejoin="round"/>
<circle cx="44.5" cy="37.5835" r="5.25" stroke="white" stroke-width="3.5" stroke-linecap="round" stroke-linejoin="round"/>
<path d="M44.5 32.3335C47.3995 32.3335 49.75 34.684 49.75 37.5835C49.75 40.483 47.3995 42.8335 44.5 42.8335" stroke="white" stroke-width="3.5" stroke-linecap="round" stroke-linejoin="round"/>
<path fill-rule="evenodd" clip-rule="evenodd" d="M61.2438 64.3271C60.665 64.9056 59.8802 65.2307 59.0618 65.2308V65.2308C58.2434 65.2307 57.4585 64.9056 56.8797 64.3271L53.3334 60.7808C51.8562 59.3659 51.6719 57.0692 52.9048 55.437C53.5964 54.5836 54.6171 54.0632 55.714 54.0048C56.8109 53.9463 57.8812 54.3554 58.6595 55.1305L58.6703 55.1413L59.0618 55.5328L59.302 55.2926C60.7168 53.8154 63.0135 53.6312 64.6458 54.864C65.4992 55.5556 66.0196 56.5764 66.078 57.6732C66.1364 58.7701 65.7273 59.8404 64.9522 60.6187L64.9414 60.6295L61.2438 64.3271Z" stroke="white" stroke-width="3.5" stroke-linecap="round" stroke-linejoin="round"/>
<path d="M66.1432 48.6668C68.2418 39.0077 63.7065 29.1237 55.0155 24.4154C46.3244 19.7071 35.568 21.3069 28.6233 28.3406C21.6786 35.3744 20.216 46.1503 25.0346 54.7807C29.8533 63.411 39.7942 67.82 49.4258 65.5985" stroke="white" stroke-width="3.5" stroke-linecap="round" stroke-linejoin="round"/>
</svg>
