<svg width="89" height="88" viewBox="0 0 89 88" fill="none" xmlns="http://www.w3.org/2000/svg">
<rect x="0.5" width="88" height="88" rx="16" fill="#5900FF"/>
<path fill-rule="evenodd" clip-rule="evenodd" d="M42.3538 33.24C42.7569 32.4229 43.5889 31.9055 44.5001 31.9055C45.4112 31.9055 46.2433 32.4229 46.6464 33.24L48.3972 36.7892C48.7457 37.4957 49.4196 37.9855 50.1993 38.0988L54.1151 38.6679C55.0165 38.7989 55.7653 39.4302 56.0469 40.2964C56.3285 41.1626 56.094 42.1136 55.4419 42.7495L52.6077 45.5139C52.044 46.0638 51.7868 46.8557 51.92 47.6318L52.5889 51.5313C52.7429 52.4291 52.3738 53.3364 51.6369 53.8719C50.9 54.4074 49.9231 54.4781 49.1167 54.0543L45.6135 52.2133C44.9164 51.8469 44.0837 51.8469 43.3867 52.2133L39.8834 54.0545C39.0771 54.4783 38.1001 54.4076 37.3632 53.8721C36.6262 53.3366 36.2572 52.4292 36.4112 51.5314L37.0801 47.6318C37.2132 46.8557 36.9561 46.0638 36.3923 45.5139L33.5582 42.7495C32.9062 42.1136 32.6717 41.1626 32.9532 40.2964C33.2348 39.4302 33.9837 38.7989 34.885 38.6679L38.8009 38.0988C39.5805 37.9855 40.2544 37.4957 40.603 36.7892L42.3538 33.24Z" stroke="white" stroke-width="3.5" stroke-linecap="round" stroke-linejoin="round"/>
<path d="M65.5762 37.1519L63.2344 37.9129" stroke="white" stroke-width="3.5" stroke-linecap="round" stroke-linejoin="round"/>
<path d="M25.7658 50.0873L23.4238 50.8481" stroke="white" stroke-width="3.5" stroke-linecap="round" stroke-linejoin="round"/>
<path d="M44.4997 66.1667V63.7039" stroke="white" stroke-width="3.5" stroke-linecap="round" stroke-linejoin="round"/>
<path d="M44.4997 21.8333V24.2962" stroke="white" stroke-width="3.5" stroke-linecap="round" stroke-linejoin="round"/>
<path d="M57.5167 61.9154L56.0706 59.9248" stroke="white" stroke-width="3.5" stroke-linecap="round" stroke-linejoin="round"/>
<path d="M31.4836 26.0844L32.9298 28.0751" stroke="white" stroke-width="3.5" stroke-linecap="round" stroke-linejoin="round"/>
<path d="M23.4238 37.1519L25.7658 37.9129" stroke="white" stroke-width="3.5" stroke-linecap="round" stroke-linejoin="round"/>
<path d="M65.5763 50.8482L63.2344 50.0872" stroke="white" stroke-width="3.5" stroke-linecap="round" stroke-linejoin="round"/>
<path d="M57.5167 26.0844L56.0706 28.0751" stroke="white" stroke-width="3.5" stroke-linecap="round" stroke-linejoin="round"/>
<path d="M31.4836 61.9154L32.9298 59.9248" stroke="white" stroke-width="3.5" stroke-linecap="round" stroke-linejoin="round"/>
</svg>
