<svg width="89" height="88" viewBox="0 0 89 88" fill="none" xmlns="http://www.w3.org/2000/svg">
<rect x="0.5" width="88" height="88" rx="16" fill="#5900FF"/>
<path fill-rule="evenodd" clip-rule="evenodd" d="M60.8337 65.0001V65.0001C58.2553 65.0001 56.167 62.9117 56.167 60.3334V60.3334C56.167 57.7551 58.2553 55.6667 60.8337 55.6667V55.6667C63.412 55.6667 65.5003 57.7551 65.5003 60.3334V60.3334C65.5003 62.9117 63.412 65.0001 60.8337 65.0001Z" stroke="white" stroke-width="3.5" stroke-linecap="round" stroke-linejoin="round"/>
<path d="M44.4997 41.6667V55.6668" stroke="white" stroke-width="3.5" stroke-linecap="round" stroke-linejoin="round"/>
<path fill-rule="evenodd" clip-rule="evenodd" d="M44.4997 65.0001V65.0001C41.9213 65.0001 39.833 62.9117 39.833 60.3334V60.3334C39.833 57.7551 41.9213 55.6667 44.4997 55.6667V55.6667C47.078 55.6667 49.1663 57.7551 49.1663 60.3334V60.3334C49.1663 62.9117 47.078 65.0001 44.4997 65.0001Z" stroke="white" stroke-width="3.5" stroke-linecap="round" stroke-linejoin="round"/>
<path fill-rule="evenodd" clip-rule="evenodd" d="M28.1667 65.0001V65.0001C25.5883 65.0001 23.5 62.9117 23.5 60.3334V60.3334C23.5 57.7551 25.5883 55.6667 28.1667 55.6667V55.6667C30.745 55.6667 32.8333 57.7551 32.8333 60.3334V60.3334C32.8333 62.9117 30.745 65.0001 28.1667 65.0001Z" stroke="white" stroke-width="3.5" stroke-linecap="round" stroke-linejoin="round"/>
<path d="M28.167 55.6667V51.0001C28.167 49.7121 29.2123 48.6667 30.5003 48.6667H58.5003C59.7883 48.6667 60.8337 49.7121 60.8337 51.0001V55.6667" stroke="white" stroke-width="3.5" stroke-linecap="round" stroke-linejoin="round"/>
<path fill-rule="evenodd" clip-rule="evenodd" d="M56.1667 23H32.8333C27.679 23 23.5 27.179 23.5 32.3333V32.3333C23.5 37.4877 27.679 41.6667 32.8333 41.6667H56.1667C61.321 41.6667 65.5 37.4877 65.5 32.3333V32.3333C65.5 27.179 61.321 23 56.1667 23Z" stroke="white" stroke-width="3.5" stroke-linecap="round" stroke-linejoin="round"/>
<path d="M42.167 32.3334H56.167" stroke="white" stroke-width="3.5" stroke-linecap="round" stroke-linejoin="round"/>
<path d="M32.9145 32.2516C32.9612 32.2982 32.9612 32.3706 32.9145 32.4172C32.8679 32.4639 32.7955 32.4639 32.7489 32.4172C32.7022 32.3706 32.7022 32.2982 32.7489 32.2516C32.7955 32.2049 32.8702 32.2049 32.9145 32.2516" stroke="white" stroke-width="3.5" stroke-linecap="round" stroke-linejoin="round"/>
</svg>
