<svg width="89" height="88" viewBox="0 0 89 88" fill="none" xmlns="http://www.w3.org/2000/svg">
<rect x="0.5" width="88" height="88" rx="16" fill="#FF3B00"/>
<path d="M44.5 65C32.901 65 23.5 55.599 23.5 44C23.5 32.401 32.901 23 44.5 23C56.099 23 65.5 32.401 65.5 44" stroke="white" stroke-width="3.5" stroke-linecap="round" stroke-linejoin="round"/>
<path d="M24.6904 36.9999H64.3104" stroke="white" stroke-width="3.5" stroke-linecap="round" stroke-linejoin="round"/>
<path d="M24.6904 50.9999H44.5004" stroke="white" stroke-width="3.5" stroke-linecap="round" stroke-linejoin="round"/>
<path d="M67.8333 67.3333L63.4863 62.9863" stroke="white" stroke-width="3.5" stroke-linecap="round" stroke-linejoin="round"/>
<path d="M58.5 51C62.3663 51 65.5 54.1337 65.5 58C65.5 61.8663 62.3663 65 58.5 65C54.6337 65 51.5 61.8663 51.5 58C51.5 54.1337 54.6337 51 58.5 51" stroke="white" stroke-width="3.5" stroke-linecap="round" stroke-linejoin="round"/>
<path d="M53.8335 43.9999C53.8335 37.5506 52.1465 31.1012 48.7771 25.4732C46.8008 22.1762 42.1995 22.1762 40.2255 25.4732C33.4821 36.7316 33.4821 51.2706 40.2255 62.5289C41.2125 64.1762 42.8575 65.0022 44.5025 65.0022" stroke="white" stroke-width="3.5" stroke-linecap="round" stroke-linejoin="round"/>
</svg>
