<svg width="89" height="88" viewBox="0 0 89 88" fill="none" xmlns="http://www.w3.org/2000/svg">
<rect x="0.5" width="88" height="88" rx="16" fill="#0059FF"/>
<path d="M63.2903 45.1059C63.2903 56.0936 54.384 64.9999 43.3963 64.9999C32.4087 64.9999 23.5 56.0936 23.5 45.1059C23.5 34.1182 32.4063 25.2119 43.394 25.2119" stroke="white" stroke-width="3.5" stroke-linecap="round" stroke-linejoin="round"/>
<path d="M54.4468 45.106C54.4468 51.21 49.4978 56.159 43.3938 56.159C37.2898 56.159 32.3408 51.21 32.3408 45.106C32.3408 39.002 37.2898 34.053 43.3938 34.053" stroke="white" stroke-width="3.5" stroke-linecap="round" stroke-linejoin="round"/>
<path fill-rule="evenodd" clip-rule="evenodd" d="M58.8686 23L52.2373 29.6313V36.2627H58.8686L65.5 29.6313L61.0783 27.4217L58.8686 23Z" stroke="white" stroke-width="3.5" stroke-linecap="round" stroke-linejoin="round"/>
<path d="M52.2467 36.2534L43.4033 45.0968" stroke="white" stroke-width="3.5" stroke-linecap="round" stroke-linejoin="round"/>
</svg>
