<svg width="89" height="88" viewBox="0 0 89 88" fill="none" xmlns="http://www.w3.org/2000/svg">
<rect x="0.5" width="88" height="88" rx="16" fill="#0059FF"/>
<path d="M58.5057 39.3314V34.2612C58.5057 33.0231 58.0134 31.8359 57.1378 30.9605L50.5364 24.3591C49.6611 23.4835 48.4738 22.9912 47.2357 22.9912H30.4941C27.9156 22.9912 25.8254 25.0814 25.8254 27.6598V60.3401C25.8254 62.9185 27.9156 65.0087 30.4941 65.0087H39.8313" stroke="white" stroke-width="3.5" stroke-linecap="round" stroke-linejoin="round"/>
<path d="M58.5058 34.6627H49.1685C47.8793 34.6627 46.8342 33.6176 46.8342 32.3284V22.9912" stroke="white" stroke-width="3.5" stroke-linecap="round" stroke-linejoin="round"/>
<rect x="46.8342" y="56.2551" width="7.00292" height="8.75364" stroke="white" stroke-width="3.5" stroke-linecap="round" stroke-linejoin="round"/>
<rect x="53.8372" y="46.3342" width="7.00292" height="18.6744" stroke="white" stroke-width="3.5" stroke-linecap="round" stroke-linejoin="round"/>
<rect x="60.8401" y="51.5864" width="7.00291" height="13.4223" stroke="white" stroke-width="3.5" stroke-linecap="round" stroke-linejoin="round"/>
</svg>
