<svg width="89" height="88" viewBox="0 0 89 88" fill="none" xmlns="http://www.w3.org/2000/svg">
<rect x="0.5" width="88" height="88" rx="16" fill="#5900FF"/>
<path d="M51.5 51.4433H37.5" stroke="white" stroke-width="3.5" stroke-linecap="round" stroke-linejoin="round"/>
<path fill-rule="evenodd" clip-rule="evenodd" d="M36.4289 50.7573C32.2849 47.829 29.7999 42.7166 30.6749 37.0886C31.6222 31.0056 36.6925 26.15 42.8082 25.4336C51.2969 24.4373 58.4999 31.0453 58.4999 39.3333C58.4999 44.0583 56.1525 48.228 52.5662 50.762C51.9222 51.217 51.4999 51.9216 51.4999 52.7103V59.1666C51.4999 62.389 48.8889 65 45.6665 65H43.3332C40.1109 65 37.4999 62.389 37.4999 59.1666V52.7196C37.4999 51.924 37.0752 51.2146 36.4289 50.7573Z" stroke="white" stroke-width="3.5" stroke-linecap="round" stroke-linejoin="round"/>
<path d="M63.167 27.6666L65.9437 24.8899" stroke="white" stroke-width="3.5" stroke-linecap="round" stroke-linejoin="round"/>
<path d="M25.8333 51L23.0566 53.7767" stroke="white" stroke-width="3.5" stroke-linecap="round" stroke-linejoin="round"/>
<path d="M28.1663 25.3333L25.3896 22.5566" stroke="white" stroke-width="3.5" stroke-linecap="round" stroke-linejoin="round"/>
<path d="M63.167 51L65.9437 53.7767" stroke="white" stroke-width="3.5" stroke-linecap="round" stroke-linejoin="round"/>
<path d="M65.5 39.3334H69.4433" stroke="white" stroke-width="3.5" stroke-linecap="round" stroke-linejoin="round"/>
<path d="M19.5566 39.3334H23.5" stroke="white" stroke-width="3.5" stroke-linecap="round" stroke-linejoin="round"/>
<path d="M37.5 57.9999H51.1967" stroke="white" stroke-width="3.5" stroke-linecap="round" stroke-linejoin="round"/>
</svg>
