<svg width="89" height="88" viewBox="0 0 89 88" fill="none" xmlns="http://www.w3.org/2000/svg">
<rect x="0.5" width="88" height="88" rx="16" fill="#5900FF"/>
<path d="M23.4912 46.3343V29.9941C23.4912 26.1262 26.6262 22.9912 30.4941 22.9912H58.5058C62.3737 22.9912 65.5087 26.1262 65.5087 29.9941V58.0058C65.5087 61.8737 62.3737 65.0087 58.5058 65.0087H44.5" stroke="white" stroke-width="3.5" stroke-linecap="round" stroke-linejoin="round"/>
<path fill-rule="evenodd" clip-rule="evenodd" d="M41.4352 42.3231L46.0595 46.9474L52.6702 40.4907C52.7566 40.4066 52.9013 40.4347 52.9527 40.542C54.6637 44.1999 53.8631 48.7051 50.8401 51.7257C47.9129 54.6529 43.7509 55.4232 40.205 54.0366L30.4687 63.773C28.872 65.3674 26.2832 65.3674 24.6889 63.773C23.0946 62.1764 23.0946 59.5876 24.6889 57.9933L34.3483 48.3339C32.9594 44.7905 33.732 40.6284 36.6592 37.6988C39.6752 34.6829 44.171 34.027 47.8312 35.5933C47.9409 35.6423 47.9689 35.7917 47.8849 35.8781L41.4352 42.3231Z" stroke="white" stroke-width="3.5" stroke-linecap="round" stroke-linejoin="round"/>
</svg>
