<svg width="24" height="24" viewBox="0 0 24 24" fill="none" xmlns="http://www.w3.org/2000/svg">
<path d="M20 10V5C20 3.89543 19.1046 3 18 3H6C4.89543 3 4 3.89543 4 5V19C4 20.1046 4.89543 21 6 21H11" stroke="#0059FF" stroke-width="2" stroke-linecap="round" stroke-linejoin="round"/>
<path d="M21.9998 21.0001L20.3608 19.3611" stroke="#0059FF" stroke-width="2" stroke-linecap="round" stroke-linejoin="round"/>
<path d="M17.724 13C19.7807 13 21.448 14.6673 21.448 16.724C21.448 18.7807 19.7807 20.448 17.724 20.448C15.6673 20.448 14 18.7807 14 16.724C14.0001 14.6674 15.6674 13.0001 17.724 13" stroke="#0059FF" stroke-width="2" stroke-linecap="round" stroke-linejoin="round"/>
<path d="M12 14H10C8.89543 14 8 14.8954 8 16" stroke="#0059FF" stroke-width="2" stroke-linecap="round" stroke-linejoin="round"/>
<circle cx="12" cy="9.25" r="2.25" stroke="#0059FF" stroke-width="2" stroke-linecap="round" stroke-linejoin="round"/>
<path d="M12 7C13.2426 7 14.25 8.00736 14.25 9.25C14.25 10.4926 13.2426 11.5 12 11.5" stroke="#0059FF" stroke-width="2" stroke-linecap="round" stroke-linejoin="round"/>
</svg>
