<svg width="48" height="49" viewBox="0 0 48 49" fill="none" xmlns="http://www.w3.org/2000/svg">
<rect y="0.119629" width="48" height="48" rx="17" fill="#6394B7"/>
<path fill-rule="evenodd" clip-rule="evenodd" d="M25.0488 10.2089C24.4372 10.7038 23.5629 10.7038 22.9512 10.2089C21.6145 9.14212 19.8253 8.83226 18.2076 9.38736C16.59 9.94246 15.368 11.2856 14.9679 12.9484C14.8264 13.5953 14.3199 14.0999 13.6724 14.2389C11.7689 14.6253 10.1823 15.9334 9.44017 17.7283C8.69804 19.5233 8.89759 21.5699 9.9725 23.1876C10.3598 23.7547 10.3598 24.5013 9.9725 25.0684C8.89759 26.6862 8.69804 28.7328 9.44017 30.5277C10.1823 32.3227 11.7689 33.6308 13.6724 34.0172C14.3199 34.1561 14.8264 34.6607 14.9679 35.3077C15.3702 36.969 16.593 38.3099 18.2104 38.8632C19.8277 39.4165 21.6156 39.1056 22.9512 38.0388C23.5629 37.544 24.4372 37.544 25.0488 38.0388C26.3867 39.1056 28.1771 39.4144 29.7951 38.8575C31.4131 38.3006 32.6342 36.9553 33.0321 35.291C33.1736 34.6441 33.6801 34.1395 34.3277 34.0005C36.2314 33.6139 37.818 32.3054 38.5599 30.51C39.3017 28.7146 39.1015 26.6677 38.0259 25.0501C37.64 24.4837 37.64 23.739 38.0259 23.1726C39.1015 21.555 39.3017 19.5082 38.5599 17.7128C37.818 15.9174 36.2314 14.6088 34.3277 14.2222C33.6801 14.0832 33.1736 13.5787 33.0321 12.9317C32.6298 11.2703 31.407 9.92946 29.7896 9.37616C28.1723 8.82286 26.3844 9.13376 25.0488 10.2006V10.2089Z" stroke="white" stroke-width="2" stroke-linecap="round" stroke-linejoin="round"/>
<path d="M24 10.5774V37.6603" stroke="white" stroke-width="2" stroke-linecap="round" stroke-linejoin="round"/>
<path d="M29.0021 30.7891C29.0021 28.9474 30.4951 27.4543 32.3368 27.4543" stroke="white" stroke-width="2" stroke-linecap="round" stroke-linejoin="round"/>
<path d="M18.9979 17.4502C18.9979 19.2919 17.5049 20.7849 15.6632 20.7849" stroke="white" stroke-width="2" stroke-linecap="round" stroke-linejoin="round"/>
<path d="M18.9979 30.7891C18.9979 28.9474 17.5049 27.4543 15.6632 27.4543" stroke="white" stroke-width="2" stroke-linecap="round" stroke-linejoin="round"/>
<path d="M29.0021 17.4502C29.0021 19.2919 30.4951 20.7849 32.3368 20.7849" stroke="white" stroke-width="2" stroke-linecap="round" stroke-linejoin="round"/>
</svg>
