<svg width="48" height="48" viewBox="0 0 48 48" fill="none" xmlns="http://www.w3.org/2000/svg">
<rect width="48" height="48" rx="17" fill="#9D00FF"/>
<rect x="19" y="19.0005" width="10.0017" height="10.0017" rx="1.49906" stroke="white" stroke-width="2" stroke-linecap="round" stroke-linejoin="round"/>
<path d="M39.006 29.0021H34.0039" stroke="white" stroke-width="2" stroke-linecap="round" stroke-linejoin="round"/>
<path d="M13.9952 18.9977H8.99316" stroke="white" stroke-width="2" stroke-linecap="round" stroke-linejoin="round"/>
<path d="M13.9952 29.0021H8.99316" stroke="white" stroke-width="2" stroke-linecap="round" stroke-linejoin="round"/>
<path d="M18.9977 8.99365V13.9957" stroke="white" stroke-width="2" stroke-linecap="round" stroke-linejoin="round"/>
<path d="M18.9977 34.0044V39.0065" stroke="white" stroke-width="2" stroke-linecap="round" stroke-linejoin="round"/>
<path d="M29.0016 34.0044V39.0065" stroke="white" stroke-width="2" stroke-linecap="round" stroke-linejoin="round"/>
<path d="M24.0007 34.0044V39.0065" stroke="white" stroke-width="2" stroke-linecap="round" stroke-linejoin="round"/>
<path d="M22.3319 13.9961H18.9972C16.2346 13.9961 13.9951 16.2356 13.9951 18.9982V29.0023C13.9951 31.7649 16.2346 34.0044 18.9972 34.0044H29.0014C31.7639 34.0044 34.0035 31.7649 34.0035 29.0023V25.6676" stroke="white" stroke-width="2" stroke-linecap="round" stroke-linejoin="round"/>
<path d="M27.334 13.9961V13.9961C31.0174 13.9961 34.0034 16.9821 34.0034 20.6655V20.6655" stroke="white" stroke-width="2" stroke-linecap="round" stroke-linejoin="round"/>
<path d="M27.334 8.99365V8.99365C33.78 8.99365 39.0055 14.2192 39.0055 20.6652V20.6652" stroke="white" stroke-width="2" stroke-linecap="round" stroke-linejoin="round"/>
<path d="M13.9952 24.0012H8.99316" stroke="white" stroke-width="2" stroke-linecap="round" stroke-linejoin="round"/>
</svg>
