<svg width="48" height="49" viewBox="0 0 48 49" fill="none" xmlns="http://www.w3.org/2000/svg">
<rect y="0.119629" width="48" height="48" rx="17" fill="#6394B7"/>
<path d="M27.3347 9.1134H13.9959C11.2333 9.1134 8.99377 11.3529 8.99377 14.1155V29.1217C8.99377 31.8843 11.2333 34.1238 13.9959 34.1238H17.3423V38.197C17.3423 38.5534 17.5466 38.8783 17.8678 39.0327C18.1891 39.1871 18.5704 39.1437 18.8487 38.921L24.8454 34.1238H34.0042C36.7668 34.1238 39.0063 31.8843 39.0063 29.1217V20.7849" stroke="white" stroke-width="2" stroke-linecap="round" stroke-linejoin="round"/>
<path d="M15.6632 25.7871H30.6695" stroke="white" stroke-width="2" stroke-linecap="round" stroke-linejoin="round"/>
<path d="M15.6632 19.1176H22.3327" stroke="white" stroke-width="2" stroke-linecap="round" stroke-linejoin="round"/>
<path fill-rule="evenodd" clip-rule="evenodd" d="M38.5179 11.15L36.9696 9.60178C36.657 9.28908 36.2328 9.1134 35.7906 9.1134C35.3484 9.1134 34.9243 9.28908 34.6116 9.60178L29.4904 14.7229C29.1777 15.0356 29.0021 15.4597 29.0021 15.9019V18.2839C29.0021 18.7443 29.3753 19.1176 29.8358 19.1176H32.2176C32.6598 19.1176 33.0839 18.9419 33.3966 18.6292L38.5178 13.508C39.169 12.8569 39.169 11.8012 38.5179 11.15Z" stroke="white" stroke-width="2" stroke-linecap="round" stroke-linejoin="round"/>
</svg>
