<svg width="48" height="49" viewBox="0 0 48 49" fill="none" xmlns="http://www.w3.org/2000/svg">
<rect y="0.119629" width="48" height="48" rx="17" fill="#6394B7"/>
<rect x="19.0005" y="19.1201" width="10.0017" height="10.0017" rx="1.49906" stroke="white" stroke-width="2" stroke-linecap="round" stroke-linejoin="round"/>
<path d="M39.0062 29.1218H34.0042" stroke="white" stroke-width="2" stroke-linecap="round" stroke-linejoin="round"/>
<path d="M13.996 19.1174H8.9939" stroke="white" stroke-width="2" stroke-linecap="round" stroke-linejoin="round"/>
<path d="M13.996 29.1218H8.9939" stroke="white" stroke-width="2" stroke-linecap="round" stroke-linejoin="round"/>
<path d="M18.998 9.11328V14.1154" stroke="white" stroke-width="2" stroke-linecap="round" stroke-linejoin="round"/>
<path d="M18.998 34.124V39.1261" stroke="white" stroke-width="2" stroke-linecap="round" stroke-linejoin="round"/>
<path d="M29.0021 34.124V39.1261" stroke="white" stroke-width="2" stroke-linecap="round" stroke-linejoin="round"/>
<path d="M24.0012 34.124V39.1261" stroke="white" stroke-width="2" stroke-linecap="round" stroke-linejoin="round"/>
<path d="M22.3327 14.1157H18.9979C16.2354 14.1157 13.9958 16.3552 13.9958 19.1178V29.122C13.9958 31.8845 16.2354 34.1241 18.9979 34.1241H29.0021C31.7647 34.1241 34.0042 31.8845 34.0042 29.122V25.7873" stroke="white" stroke-width="2" stroke-linecap="round" stroke-linejoin="round"/>
<path d="M27.3347 14.1157V14.1157C31.0181 14.1157 34.0042 17.1017 34.0042 20.7852V20.7852" stroke="white" stroke-width="2" stroke-linecap="round" stroke-linejoin="round"/>
<path d="M27.3347 9.11328V9.11328C33.7807 9.11328 39.0062 14.3388 39.0062 20.7848V20.7848" stroke="white" stroke-width="2" stroke-linecap="round" stroke-linejoin="round"/>
<path d="M13.996 24.1208H8.9939" stroke="white" stroke-width="2" stroke-linecap="round" stroke-linejoin="round"/>
</svg>
