<svg width="48" height="48" viewBox="0 0 48 48" fill="none" xmlns="http://www.w3.org/2000/svg">
<rect width="48" height="48" rx="17" fill="#5900FF"/>
<path fill-rule="evenodd" clip-rule="evenodd" d="M25.0485 10.0894C24.4369 10.5843 23.5626 10.5843 22.9509 10.0894C21.6142 9.02261 19.825 8.71275 18.2073 9.26785C16.5897 9.82296 15.3677 11.1661 14.9676 12.8289C14.8261 13.4758 14.3196 13.9804 13.6721 14.1194C11.7685 14.5058 10.182 15.8138 9.43986 17.6088C8.69773 19.4038 8.89729 21.4503 9.9722 23.0681C10.3595 23.6352 10.3595 24.3818 9.9722 24.9489C8.89729 26.5667 8.69773 28.6133 9.43986 30.4082C10.182 32.2032 11.7685 33.5113 13.6721 33.8976C14.3196 34.0366 14.8261 34.5412 14.9676 35.1882C15.3699 36.8495 16.5927 38.1904 18.2101 38.7437C19.8274 39.297 21.6153 38.9861 22.9509 37.9193C23.5626 37.4245 24.4369 37.4245 25.0485 37.9193C26.3864 38.9861 28.1768 39.2949 29.7948 38.738C31.4128 38.1811 32.6339 36.8358 33.0318 35.1715C33.1733 34.5245 33.6798 34.02 34.3273 33.881C36.2311 33.4944 37.8177 32.1858 38.5596 30.3904C39.3014 28.5951 39.1012 26.5482 38.0256 24.9306C37.6397 24.3642 37.6397 23.6195 38.0256 23.0531C39.1012 21.4355 39.3014 19.3887 38.5596 17.5933C37.8177 15.7979 36.2311 14.4893 34.3273 14.1027C33.6798 13.9637 33.1733 13.4592 33.0318 12.8122C32.6295 11.1508 31.4067 9.80996 29.7893 9.25665C28.172 8.70335 26.3841 9.01426 25.0485 10.0811V10.0894Z" stroke="white" stroke-width="2" stroke-linecap="round" stroke-linejoin="round"/>
<path d="M23.9997 10.4575V37.5405" stroke="white" stroke-width="2" stroke-linecap="round" stroke-linejoin="round"/>
<path d="M29.002 30.6697C29.002 28.828 30.495 27.335 32.3367 27.335" stroke="white" stroke-width="2" stroke-linecap="round" stroke-linejoin="round"/>
<path d="M18.9978 17.3306C18.9978 19.1723 17.5048 20.6653 15.6631 20.6653" stroke="white" stroke-width="2" stroke-linecap="round" stroke-linejoin="round"/>
<path d="M18.9978 30.6697C18.9978 28.828 17.5048 27.335 15.6631 27.335" stroke="white" stroke-width="2" stroke-linecap="round" stroke-linejoin="round"/>
<path d="M29.002 17.3306C29.002 19.1723 30.495 20.6653 32.3367 20.6653" stroke="white" stroke-width="2" stroke-linecap="round" stroke-linejoin="round"/>
</svg>
