<svg width="49" height="49" viewBox="0 0 49 49" fill="none" xmlns="http://www.w3.org/2000/svg">
<rect x="0.199951" y="0.119629" width="48" height="48" rx="17" fill="#6394B7"/>
<path d="M10.861 25.787C10.861 33.1539 16.833 39.1259 24.1999 39.1259C31.5668 39.1259 37.5388 33.1539 37.5388 25.787C37.5388 18.4201 31.5668 12.4481 24.1999 12.4481H12.5284" stroke="white" stroke-width="2" stroke-linecap="round" stroke-linejoin="round"/>
<path d="M17.5305 7.44604L12.5284 12.4481" stroke="white" stroke-width="2" stroke-linecap="round" stroke-linejoin="round"/>
<path d="M17.5305 17.4502L12.5284 12.4481" stroke="white" stroke-width="2" stroke-linecap="round" stroke-linejoin="round"/>
<path d="M24.1999 19.4878C26.0416 19.4878 27.5346 20.9808 27.5346 22.8225C27.5346 24.6642 26.0416 26.1572 24.1999 26.1572C22.3582 26.1572 20.8652 24.6642 20.8652 22.8225C20.8652 20.9808 22.3582 19.4878 24.1999 19.4878" stroke="white" stroke-width="2" stroke-linecap="round" stroke-linejoin="round"/>
<path d="M30.8693 32.4565C30.6755 31.9686 30.3746 31.5305 29.989 31.1743V31.1743C29.3392 30.5703 28.4851 30.2344 27.598 30.2339H20.8035C19.9159 30.2345 19.0613 30.5703 18.4108 31.1743V31.1743C18.0261 31.5312 17.7254 31.9692 17.5305 32.4565" stroke="white" stroke-width="2" stroke-linecap="round" stroke-linejoin="round"/>
</svg>
