<svg width="48" height="49" viewBox="0 0 48 49" fill="none" xmlns="http://www.w3.org/2000/svg">
<rect y="0.119629" width="48" height="48" rx="17" fill="#6394B7"/>
<rect x="19.0005" y="19.1201" width="10.0017" height="10.0017" rx="1.49906" stroke="white" stroke-width="2" stroke-linecap="round" stroke-linejoin="round"/>
<path d="M39.0062 29.1218H34.0042" stroke="white" stroke-width="2" stroke-linecap="round" stroke-linejoin="round"/>
<path d="M13.9959 19.1176H8.99377" stroke="white" stroke-width="2" stroke-linecap="round" stroke-linejoin="round"/>
<path d="M13.9959 29.1218H8.99377" stroke="white" stroke-width="2" stroke-linecap="round" stroke-linejoin="round"/>
<path d="M18.998 9.1134V14.1155" stroke="white" stroke-width="2" stroke-linecap="round" stroke-linejoin="round"/>
<path d="M18.998 34.1238V39.1259" stroke="white" stroke-width="2" stroke-linecap="round" stroke-linejoin="round"/>
<path d="M29.0021 34.1238V39.1259" stroke="white" stroke-width="2" stroke-linecap="round" stroke-linejoin="round"/>
<path d="M24.0013 34.1238V39.1259" stroke="white" stroke-width="2" stroke-linecap="round" stroke-linejoin="round"/>
<path d="M22.3327 14.1155H18.9979C16.2354 14.1155 13.9958 16.355 13.9958 19.1176V29.1217C13.9958 31.8843 16.2354 34.1238 18.9979 34.1238H29.0021C31.7647 34.1238 34.0042 31.8843 34.0042 29.1217V25.787" stroke="white" stroke-width="2" stroke-linecap="round" stroke-linejoin="round"/>
<path d="M27.3347 14.1155V14.1155C31.0181 14.1155 34.0042 17.1015 34.0042 20.7849V20.7849" stroke="white" stroke-width="2" stroke-linecap="round" stroke-linejoin="round"/>
<path d="M27.3347 9.1134V9.1134C33.7807 9.1134 39.0062 14.3389 39.0062 20.7849V20.7849" stroke="white" stroke-width="2" stroke-linecap="round" stroke-linejoin="round"/>
<path d="M13.9959 24.1209H8.99377" stroke="white" stroke-width="2" stroke-linecap="round" stroke-linejoin="round"/>
</svg>
