<svg width="48" height="48" viewBox="0 0 48 48" fill="none" xmlns="http://www.w3.org/2000/svg">
<rect width="48" height="48" rx="17" fill="#FF3B00"/>
<path d="M27.3346 8.99365H13.9957C11.2332 8.99365 8.99365 11.2332 8.99365 13.9957V29.002C8.99365 31.7646 11.2332 34.0041 13.9957 34.0041H17.3421V38.0773C17.3421 38.4337 17.5464 38.7586 17.8677 38.913C18.1889 39.0674 18.5703 39.024 18.8486 38.8013L24.8453 34.0041H34.0041C36.7666 34.0041 39.0062 31.7646 39.0062 29.002V20.6652" stroke="white" stroke-width="2" stroke-linecap="round" stroke-linejoin="round"/>
<path d="M15.6631 25.6672H30.6693" stroke="white" stroke-width="2" stroke-linecap="round" stroke-linejoin="round"/>
<path d="M15.6631 18.9977H22.3325" stroke="white" stroke-width="2" stroke-linecap="round" stroke-linejoin="round"/>
<path fill-rule="evenodd" clip-rule="evenodd" d="M38.5177 11.0303L36.9695 9.48202C36.6568 9.16933 36.2327 8.99365 35.7905 8.99365C35.3483 8.99365 34.9242 9.16933 34.6115 9.48202L29.4903 14.6032C29.1776 14.9159 29.002 15.34 29.002 15.7822V18.1641C29.002 18.6246 29.3752 18.9978 29.8356 18.9978H32.2175C32.6597 18.9978 33.0838 18.8221 33.3965 18.5095L38.5177 13.3882C39.1688 12.7371 39.1688 11.6814 38.5177 11.0303Z" stroke="white" stroke-width="2" stroke-linecap="round" stroke-linejoin="round"/>
</svg>
