<svg width="48" height="49" viewBox="0 0 48 49" fill="none" xmlns="http://www.w3.org/2000/svg">
<rect y="0.119629" width="48" height="48" rx="17" fill="#6394B7"/>
<path d="M27.3346 9.11328H13.9957C11.2332 9.11328 8.99365 11.3528 8.99365 14.1154V29.1216C8.99365 31.8842 11.2332 34.1237 13.9957 34.1237H17.3421V38.1969C17.3421 38.5533 17.5464 38.8782 17.8677 39.0326C18.1889 39.187 18.5703 39.1436 18.8486 38.9209L24.8453 34.1237H34.0041C36.7666 34.1237 39.0062 31.8842 39.0062 29.1216V20.7848" stroke="white" stroke-width="2" stroke-linecap="round" stroke-linejoin="round"/>
<path d="M15.6631 25.7868H30.6693" stroke="white" stroke-width="2" stroke-linecap="round" stroke-linejoin="round"/>
<path d="M15.6631 19.1174H22.3325" stroke="white" stroke-width="2" stroke-linecap="round" stroke-linejoin="round"/>
<path fill-rule="evenodd" clip-rule="evenodd" d="M38.5177 11.1499L36.9695 9.60165C36.6568 9.28895 36.2327 9.11328 35.7905 9.11328C35.3483 9.11328 34.9242 9.28895 34.6115 9.60165L29.4903 14.7228C29.1776 15.0355 29.002 15.4596 29.002 15.9018V18.2838C29.002 18.7442 29.3752 19.1174 29.8356 19.1174H32.2175C32.6597 19.1174 33.0838 18.9418 33.3965 18.6291L38.5177 13.5079C39.1688 12.8567 39.1688 11.8011 38.5177 11.1499Z" stroke="white" stroke-width="2" stroke-linecap="round" stroke-linejoin="round"/>
</svg>
