<svg width="49" height="49" viewBox="0 0 49 49" fill="none" xmlns="http://www.w3.org/2000/svg">
<rect x="0.399963" y="0.119629" width="48" height="48" rx="17" fill="#6394B7"/>
<path d="M12.6283 14.0713C10.8583 15.888 9.57329 18.1713 8.95496 20.718" stroke="white" stroke-width="2" stroke-linecap="round" stroke-linejoin="round"/>
<path d="M19.8833 38.1912C20.8683 38.4046 21.89 38.5229 22.94 38.5229C24.4266 38.5229 25.8616 38.2962 27.2116 37.8779" stroke="white" stroke-width="2" stroke-linecap="round" stroke-linejoin="round"/>
<path d="M8.9566 27.5212C9.57494 30.0679 10.8599 32.3512 12.6299 34.1679" stroke="white" stroke-width="2" stroke-linecap="round" stroke-linejoin="round"/>
<path d="M36.7416 28.2263C36.0433 30.5797 34.7533 32.6747 33.0549 34.3563" stroke="white" stroke-width="2" stroke-linecap="round" stroke-linejoin="round"/>
<path d="M33.0549 13.8829C34.7533 15.5646 36.0416 17.6596 36.7416 20.0129" stroke="white" stroke-width="2" stroke-linecap="round" stroke-linejoin="round"/>
<path d="M19.8833 10.0479C20.8683 9.83461 21.89 9.71628 22.94 9.71628C24.4266 9.71628 25.8616 9.94294 27.2116 10.3613" stroke="white" stroke-width="2" stroke-linecap="round" stroke-linejoin="round"/>
<path d="M40.2896 21.1733C41.9168 22.8005 41.9168 25.4386 40.2896 27.0658C38.6625 28.693 36.0243 28.693 34.3971 27.0658C32.7699 25.4386 32.7699 22.8005 34.3971 21.1733C36.0243 19.5461 38.6625 19.5461 40.2896 21.1733" stroke="white" stroke-width="2" stroke-linecap="round" stroke-linejoin="round"/>
<path d="M19.1112 33.4017C20.7384 35.0288 20.7384 37.667 19.1112 39.2942C17.484 40.9214 14.8459 40.9214 13.2187 39.2942C11.5915 37.667 11.5915 35.0288 13.2187 33.4017C14.8459 31.7745 17.484 31.7745 19.1112 33.4017" stroke="white" stroke-width="2" stroke-linecap="round" stroke-linejoin="round"/>
<path d="M19.1112 8.945C20.7384 10.5722 20.7384 13.2104 19.1112 14.8375C17.484 16.4647 14.8459 16.4647 13.2187 14.8375C11.5915 13.2104 11.5915 10.5722 13.2187 8.945C14.8459 7.31781 17.484 7.31781 19.1112 8.945" stroke="white" stroke-width="2" stroke-linecap="round" stroke-linejoin="round"/>
</svg>
