<svg width="49" height="49" viewBox="0 0 49 49" fill="none" xmlns="http://www.w3.org/2000/svg">
<rect x="0.800049" y="0.119629" width="48" height="48" rx="17" fill="#0066FF"/>
<path fill-rule="evenodd" clip-rule="evenodd" d="M17.3 9.11963H32.3067C36.445 9.11963 39.8 12.4746 39.8 16.613V31.628C39.8 35.7646 36.445 39.1196 32.3067 39.1196H17.2934C13.155 39.1196 9.80005 35.7646 9.80005 31.6263V16.6196C9.80005 12.478 13.1584 9.11963 17.3 9.11963V9.11963Z" stroke="white" stroke-width="2" stroke-linecap="round" stroke-linejoin="round"/>
<path d="M22.6067 20.193H24.6317V30.3197H24.6284C22.5434 30.3197 20.2517 29.053 18.6267 26.7197C16.1867 23.2997 15.52 20.7147 15.52 20.1947" stroke="white" stroke-width="2" stroke-linecap="round" stroke-linejoin="round"/>
<path d="M32.5634 30.3196C32.5634 30.3196 31.8267 28.7662 30.3317 27.0579C29.335 25.8896 27.9317 25.2579 26.655 25.2579C27.9317 25.2579 29.335 24.6246 30.3317 23.4579C31.8267 21.7479 32.5634 20.1946 32.5634 20.1946" stroke="white" stroke-width="2" stroke-linecap="round" stroke-linejoin="round"/>
<path d="M26.6551 25.2596H24.6284" stroke="white" stroke-width="2" stroke-linecap="round" stroke-linejoin="round"/>
</svg>
