<svg width="49" height="49" viewBox="0 0 49 49" fill="none" xmlns="http://www.w3.org/2000/svg">
<rect x="0.599976" y="0.119629" width="48" height="48" rx="17" fill="#FF3B00"/>
<path d="M22.9326 15.7828H11.2611C10.3404 15.7825 9.59408 15.0362 9.59375 14.1155V10.7808C9.59408 9.86004 10.3404 9.11373 11.2611 9.1134H22.9326" stroke="white" stroke-width="2" stroke-linecap="round" stroke-linejoin="round"/>
<path fill-rule="evenodd" clip-rule="evenodd" d="M13.3453 28.2881H10.8443C10.1537 28.2878 9.594 27.7281 9.59375 27.0376V24.5365C9.594 23.846 10.1537 23.2863 10.8443 23.286H13.3453C14.0359 23.2863 14.5956 23.846 14.5958 24.5365V27.0376C14.5956 27.7281 14.0359 28.2878 13.3453 28.2881Z" stroke="white" stroke-width="2" stroke-linecap="round" stroke-linejoin="round"/>
<path d="M19.968 25.7871H39.6062" stroke="white" stroke-width="2" stroke-linecap="round" stroke-linejoin="round"/>
<path fill-rule="evenodd" clip-rule="evenodd" d="M13.3453 39.1259H10.8443C10.1537 39.1256 9.594 38.5659 9.59375 37.8753V35.3743C9.594 34.6838 10.1537 34.124 10.8443 34.1238H13.3453C14.0359 34.124 14.5956 34.6838 14.5958 35.3743V37.8753C14.5956 38.5659 14.0359 39.1256 13.3453 39.1259Z" stroke="white" stroke-width="2" stroke-linecap="round" stroke-linejoin="round"/>
<path d="M19.968 36.6248H39.6062" stroke="white" stroke-width="2" stroke-linecap="round" stroke-linejoin="round"/>
<circle cx="32.9368" cy="12.4481" r="5.00208" stroke="white" stroke-width="2" stroke-linecap="round" stroke-linejoin="round"/>
<path d="M39.6062 19.1176L36.4729 15.9843" stroke="white" stroke-width="2" stroke-linecap="round" stroke-linejoin="round"/>
</svg>
