<svg width="48" height="49" viewBox="0 0 48 49" fill="none" xmlns="http://www.w3.org/2000/svg">
<rect y="0.119629" width="48" height="48" rx="17" fill="#6394B7"/>
<path fill-rule="evenodd" clip-rule="evenodd" d="M25.0485 10.209C24.4369 10.7039 23.5626 10.7039 22.9509 10.209C21.6142 9.14224 19.825 8.83238 18.2073 9.38748C16.5897 9.94259 15.3677 11.2857 14.9676 12.9485C14.8261 13.5955 14.3196 14.1 13.6721 14.239C11.7685 14.6254 10.182 15.9335 9.43986 17.7284C8.69773 19.5234 8.89729 21.57 9.9722 23.1878C10.3595 23.7549 10.3595 24.5014 9.9722 25.0685C8.89729 26.6863 8.69773 28.7329 9.43986 30.5279C10.182 32.3228 11.7685 33.6309 13.6721 34.0173C14.3196 34.1563 14.8261 34.6608 14.9676 35.3078C15.3699 36.9692 16.5927 38.31 18.2101 38.8633C19.8274 39.4167 21.6153 39.1057 22.9509 38.0389C23.5626 37.5441 24.4369 37.5441 25.0485 38.0389C26.3864 39.1057 28.1768 39.4145 29.7948 38.8576C31.4128 38.3007 32.6339 36.9554 33.0318 35.2911C33.1733 34.6442 33.6798 34.1396 34.3273 34.0006C36.2311 33.614 37.8177 32.3055 38.5596 30.5101C39.3014 28.7147 39.1012 26.6678 38.0256 25.0502C37.6397 24.4839 37.6397 23.7391 38.0256 23.1728C39.1012 21.5551 39.3014 19.5083 38.5596 17.7129C37.8177 15.9175 36.2311 14.6089 34.3273 14.2224C33.6798 14.0834 33.1733 13.5788 33.0318 12.9318C32.6295 11.2705 31.4067 9.92959 29.7893 9.37628C28.172 8.82298 26.3841 9.13389 25.0485 10.2007V10.209Z" stroke="white" stroke-width="2" stroke-linecap="round" stroke-linejoin="round"/>
<path d="M24.0002 10.5771V37.6601" stroke="white" stroke-width="2" stroke-linecap="round" stroke-linejoin="round"/>
<path d="M29.002 30.7893C29.002 28.9476 30.495 27.4546 32.3367 27.4546" stroke="white" stroke-width="2" stroke-linecap="round" stroke-linejoin="round"/>
<path d="M18.9978 17.4502C18.9978 19.2919 17.5048 20.7849 15.6631 20.7849" stroke="white" stroke-width="2" stroke-linecap="round" stroke-linejoin="round"/>
<path d="M18.9978 30.7893C18.9978 28.9476 17.5048 27.4546 15.6631 27.4546" stroke="white" stroke-width="2" stroke-linecap="round" stroke-linejoin="round"/>
<path d="M29.002 17.4502C29.002 19.2919 30.495 20.7849 32.3367 20.7849" stroke="white" stroke-width="2" stroke-linecap="round" stroke-linejoin="round"/>
</svg>
