<svg width="48" height="49" viewBox="0 0 48 49" fill="none" xmlns="http://www.w3.org/2000/svg">
<rect y="0.119629" width="48" height="48" rx="17" fill="#6394B7"/>
<path d="M39.0063 24.1197C39.0063 32.4074 32.2877 39.1259 24 39.1259C15.7123 39.1259 8.99377 32.4074 8.99377 24.1197C8.99377 15.8319 15.7123 9.1134 24 9.1134" stroke="white" stroke-width="2" stroke-linecap="round" stroke-linejoin="round"/>
<path fill-rule="evenodd" clip-rule="evenodd" d="M34.5712 8.09968C34.791 7.69717 35.213 7.44678 35.6716 7.44678C36.1302 7.44678 36.5523 7.69717 36.7721 8.09968L37.7441 9.87542C37.859 10.087 38.0328 10.2607 38.2443 10.3756L40.0184 11.346C40.4217 11.5661 40.6726 11.9888 40.6726 12.4482C40.6726 12.9075 40.4217 13.3302 40.0184 13.5503L38.2443 14.5224C38.0324 14.6368 37.8586 14.8106 37.7441 15.0226L36.7721 16.7966C36.5523 17.1991 36.1302 17.4495 35.6716 17.4495C35.213 17.4495 34.791 17.1991 34.5712 16.7966L33.5991 15.0209C33.4847 14.809 33.3108 14.6351 33.0989 14.5207L31.3248 13.5503C30.9215 13.3302 30.6707 12.9075 30.6707 12.4482C30.6707 11.9888 30.9215 11.5661 31.3248 11.346L33.0989 10.3756C33.3105 10.2607 33.4842 10.087 33.5991 9.87542L34.5712 8.09968Z" stroke="white" stroke-width="2" stroke-linecap="round" stroke-linejoin="round"/>
<path d="M26.0842 20.7849H30.2526C30.7131 20.7849 31.0863 21.1582 31.0863 21.6186V29.9554C31.0863 30.4158 30.7131 30.7891 30.2526 30.7891H26.0842" stroke="white" stroke-width="2" stroke-linecap="round" stroke-linejoin="round"/>
<path d="M21.0822 30.7891H16.9138C16.4533 30.7891 16.0801 30.4158 16.0801 29.9554V24.9533C16.0801 24.4929 16.4533 24.1196 16.9138 24.1196H21.0822" stroke="white" stroke-width="2" stroke-linecap="round" stroke-linejoin="round"/>
<path fill-rule="evenodd" clip-rule="evenodd" d="M26.0842 30.7891H21.0822V16.6165C21.0822 16.1561 21.4554 15.7828 21.9158 15.7828H25.2506C25.711 15.7828 26.0842 16.1561 26.0842 16.6165V30.7891Z" stroke="white" stroke-width="2" stroke-linecap="round" stroke-linejoin="round"/>
</svg>
