<svg width="24" height="25" viewBox="0 0 24 25" fill="none" xmlns="http://www.w3.org/2000/svg">
<rect y="0.119629" width="24" height="24" rx="4" fill="#F1F1F1"/>
<path d="M12.6648 14.2472H5.26572V11.27H12.6648C13.097 11.27 13.3975 11.3466 13.5483 11.4804C13.6991 11.6141 13.7926 11.8622 13.7926 12.2247V13.2937C13.7926 13.6756 13.6991 13.9237 13.5483 14.0575C13.3975 14.1912 13.097 14.2484 12.6648 14.2484V14.2472ZM13.1724 8.46306H2.12781V21.1954H5.26572V17.053H11.0486L13.7926 21.1954H17.3064L14.281 17.0336C15.3964 16.8655 15.8973 16.5179 16.3103 15.9451C16.7234 15.3723 16.9305 14.4565 16.9305 13.2343V12.2795C16.9305 11.5547 16.8551 10.9818 16.7234 10.5428C16.5917 10.1038 16.3666 9.72188 16.0469 9.37888C15.7093 9.05416 15.3334 8.8255 14.882 8.67229C14.4307 8.53851 13.8668 8.46191 13.1724 8.46191V8.46306Z" fill="#1C0F27"/>
<path d="M19.7169 8.46193C21.0483 8.46193 22.1276 7.37794 22.1276 6.04078C22.1276 4.70362 21.0483 3.61963 19.7169 3.61963C18.3855 3.61963 17.3062 4.70362 17.3062 6.04078C17.3062 7.37794 18.3855 8.46193 19.7169 8.46193Z" fill="#ED143B"/>
</svg>
