<svg width="24" height="25" viewBox="0 0 24 25" fill="none" xmlns="http://www.w3.org/2000/svg">
<rect y="0.119629" width="24" height="24" rx="4" fill="#F1F1F1"/>
<path d="M6.33218 17.0836L2.93018 7.28356H4.69418L7.29818 15.1376L9.91618 7.28356H11.6662L8.26418 17.0836H6.33218Z" fill="black"/>
<path d="M17.2034 17.2656C15.7287 17.2656 14.5061 16.7802 13.5354 15.8096C12.5647 14.8296 12.0794 13.6209 12.0794 12.1836C12.0794 10.7462 12.5647 9.54223 13.5354 8.57156C14.5061 7.59156 15.7287 7.10156 17.2034 7.10156C18.0901 7.10156 18.9067 7.31156 19.6534 7.73156C20.4094 8.15156 20.9974 8.7209 21.4174 9.43956L20.0174 10.2516C19.7561 9.76623 19.3734 9.38356 18.8694 9.10356C18.3747 8.81423 17.8194 8.66956 17.2034 8.66956C16.1581 8.66956 15.3087 9.0009 14.6554 9.66356C14.0114 10.3262 13.6894 11.1662 13.6894 12.1836C13.6894 13.2009 14.0114 14.0409 14.6554 14.7036C15.3087 15.3662 16.1581 15.6976 17.2034 15.6976C17.8194 15.6976 18.3794 15.5576 18.8834 15.2776C19.3874 14.9882 19.7654 14.6009 20.0174 14.1156L21.4174 14.9136C21.0067 15.6322 20.4234 16.2062 19.6674 16.6356C18.9207 17.0556 18.0994 17.2656 17.2034 17.2656Z" fill="black"/>
</svg>
