<svg width="24" height="25" viewBox="0 0 24 25" fill="none" xmlns="http://www.w3.org/2000/svg">
<rect y="0.119629" width="24" height="24" rx="4" fill="#F1F1F1"/>
<path fill-rule="evenodd" clip-rule="evenodd" d="M21.5294 6.94571C21.6776 6.47971 21.5294 6.14081 20.8727 6.14081H18.691C18.1403 6.14081 17.8861 6.43735 17.7379 6.75507C17.7379 6.75507 16.6153 9.46631 15.0478 11.2244C14.5395 11.7327 14.3065 11.9022 14.0311 11.9022C13.8828 11.9022 13.6922 11.7327 13.6922 11.2667V6.92453C13.6922 6.37381 13.5227 6.11963 13.0568 6.11963H9.62535C9.28644 6.11963 9.07463 6.37381 9.07463 6.62798C9.07463 7.15752 9.85834 7.28461 9.94307 8.76732V11.9869C9.94307 12.6859 9.81598 12.813 9.54062 12.813C8.79927 12.813 6.99884 10.0806 5.91858 6.96689C5.70677 6.35263 5.49495 6.11963 4.94423 6.11963H2.74135C2.10591 6.11963 2 6.41617 2 6.73389C2 7.30579 2.74135 10.1865 5.45259 13.9992C7.25302 16.6045 9.81598 18.0025 12.1248 18.0025C13.5227 18.0025 13.6922 17.6847 13.6922 17.1552V15.1853C13.6922 14.5499 13.8193 14.444 14.2641 14.444C14.5818 14.444 15.1537 14.6134 16.4458 15.8631C17.9285 17.3458 18.1827 18.0236 19.0088 18.0236H21.1905C21.8259 18.0236 22.1224 17.7059 21.953 17.0917C21.7624 16.4774 21.0422 15.5878 20.1102 14.5287C19.6018 13.9356 18.8393 13.279 18.6063 12.9613C18.2886 12.5376 18.3733 12.3682 18.6063 11.9869C18.5851 11.9869 21.254 8.2166 21.5294 6.94571Z" fill="#2787F5"/>
</svg>
