<svg width="24" height="25" viewBox="0 0 24 25" fill="none" xmlns="http://www.w3.org/2000/svg">
<rect y="0.119629" width="24" height="24" rx="4" fill="#F1F1F1"/>
<path d="M19.6464 7.83532C19.5546 7.50371 19.3756 7.20138 19.1272 6.95846C18.8787 6.71553 18.5695 6.54048 18.2304 6.45073C16.9888 6.11963 11.9916 6.11963 11.9916 6.11963C11.9916 6.11963 6.99427 6.12965 5.75264 6.46075C5.41349 6.55051 5.1043 6.72557 4.85586 6.96851C4.60742 7.21144 4.42841 7.51378 4.33664 7.84541C3.96108 10.0025 3.81539 13.2894 4.34696 15.3602C4.43873 15.6919 4.61775 15.9942 4.86618 16.2371C5.11462 16.48 5.42381 16.6551 5.76296 16.7448C7.00458 17.0759 12.0018 17.0759 12.0018 17.0759C12.0018 17.0759 16.999 17.0759 18.2406 16.7448C18.5797 16.6551 18.8889 16.48 19.1374 16.2371C19.3858 15.9942 19.5649 15.6919 19.6566 15.3602C20.0528 13.2001 20.1748 9.91524 19.6464 7.83538V7.83532Z" fill="#FF0000"/>
<path d="M10.4012 13.9455L14.5468 11.5978L10.4013 9.25L10.4012 13.9455Z" fill="white"/>
</svg>
