<svg width="24" height="25" viewBox="0 0 24 25" fill="none" xmlns="http://www.w3.org/2000/svg">
<rect y="0.119629" width="24" height="24" rx="4" fill="#F1F1F1"/>
<path fill-rule="evenodd" clip-rule="evenodd" d="M11.9119 4.11963C8.61436 4.11994 6.32944 4.13091 5.15657 5.27626C4.0113 6.44887 4.00033 8.84111 4.00033 12.0314C7.54276 11.9245 9.16269 11.8358 10.4547 10.5742C11.7163 9.28215 11.805 7.66223 11.9119 4.11963ZM5.15637 18.9633C4.0111 17.7907 4.00012 15.3984 4.00012 12.2081C7.54256 12.315 9.16249 12.4037 10.4545 13.6654C11.7161 14.9574 11.8048 16.5773 11.9117 20.1196C8.61416 20.1196 6.32924 20.109 5.15637 18.9633ZM12.0885 20.1196C12.1954 16.5773 12.2842 14.9574 13.5458 13.6654C14.8377 12.4037 16.4577 12.315 20.0001 12.2081C19.9998 15.3984 19.9888 17.7907 18.8436 18.9633C17.6707 20.109 15.3861 20.1196 12.0885 20.1196ZM12.0885 4.11963C12.1954 7.66223 12.2842 9.28215 13.5458 10.5742C14.8377 11.8358 16.4577 11.9245 20.0001 12.0314C19.9998 8.84111 19.9888 6.44887 18.8436 5.27626C17.6707 4.13091 15.3861 4.11994 12.0885 4.11963Z" fill="white"/>
<path fill-rule="evenodd" clip-rule="evenodd" d="M20 12.2089V12.1205V12.0324C16.4576 11.9252 14.8376 11.8368 13.5456 10.5748C12.2841 9.2831 12.1953 7.66322 12.0884 4.12061H12H11.9116C11.8047 7.66322 11.7159 9.2831 10.4543 10.5748C9.16234 11.8368 7.54241 11.9252 4 12.0324V12.1205V12.2089C7.54241 12.316 9.16234 12.4044 10.4543 13.6661C11.7159 14.9581 11.8047 16.578 11.9116 20.1206H12H12.0884C12.1953 16.578 12.2841 14.9581 13.5456 13.6661C14.8376 12.4044 16.4576 12.316 20 12.2089Z" fill="url(#paint0_linear_478_740)"/>
<defs>
<linearGradient id="paint0_linear_478_740" x1="12" y1="4.12061" x2="12" y2="20.1206" gradientUnits="userSpaceOnUse">
<stop stop-color="#030E1B" stop-opacity="0.6"/>
<stop offset="0.0001" stop-color="#041324"/>
<stop offset="1" stop-color="#030E1B"/>
</linearGradient>
</defs>
</svg>
