<svg width="25" height="24" viewBox="0 0 25 24" fill="none" xmlns="http://www.w3.org/2000/svg">
<path fill-rule="evenodd" clip-rule="evenodd" d="M20.333 20.5H18.333C17.781 20.5 17.333 20.052 17.333 19.5V17.5C17.333 16.948 17.781 16.5 18.333 16.5H20.333C20.885 16.5 21.333 16.948 21.333 17.5V19.5C21.333 20.052 20.885 20.5 20.333 20.5Z" stroke="#0059FF" stroke-width="1.5" stroke-linecap="round" stroke-linejoin="round"/>
<path d="M12.333 9.18994V16.4999" stroke="#0059FF" stroke-width="1.5" stroke-linecap="round" stroke-linejoin="round"/>
<path fill-rule="evenodd" clip-rule="evenodd" d="M13.333 20.5H11.333C10.781 20.5 10.333 20.052 10.333 19.5V17.5C10.333 16.948 10.781 16.5 11.333 16.5H13.333C13.885 16.5 14.333 16.948 14.333 17.5V19.5C14.333 20.052 13.885 20.5 13.333 20.5Z" stroke="#0059FF" stroke-width="1.5" stroke-linecap="round" stroke-linejoin="round"/>
<path fill-rule="evenodd" clip-rule="evenodd" d="M6.33301 20.5H4.33301C3.78101 20.5 3.33301 20.052 3.33301 19.5V17.5C3.33301 16.948 3.78101 16.5 4.33301 16.5H6.33301C6.88501 16.5 7.33301 16.948 7.33301 17.5V19.5C7.33301 20.052 6.88501 20.5 6.33301 20.5Z" stroke="#0059FF" stroke-width="1.5" stroke-linecap="round" stroke-linejoin="round"/>
<path fill-rule="evenodd" clip-rule="evenodd" d="M16.488 9.19H8.17801C6.60701 9.19 5.33301 7.916 5.33301 6.345V6.345C5.33301 4.774 6.60701 3.5 8.17801 3.5H16.488C18.059 3.5 19.333 4.774 19.333 6.345V6.345C19.333 7.916 18.059 9.19 16.488 9.19Z" stroke="#0059FF" stroke-width="1.5" stroke-linecap="round" stroke-linejoin="round"/>
<path d="M5.33301 16.5V14.5C5.33301 13.395 6.22801 12.5 7.33301 12.5H17.333C18.438 12.5 19.333 13.395 19.333 14.5V16.5" stroke="#0059FF" stroke-width="1.5" stroke-linecap="round" stroke-linejoin="round"/>
</svg>
