<svg width="25" height="24" viewBox="0 0 25 24" fill="none" xmlns="http://www.w3.org/2000/svg">
<path d="M21.333 12H17.752C16.968 12 16.333 12.635 16.333 13.419V14.581C16.333 15.365 16.968 16 17.752 16H21.333" stroke="#0059FF" stroke-width="1.5" stroke-linecap="round" stroke-linejoin="round"/>
<path fill-rule="evenodd" clip-rule="evenodd" d="M19.333 21H5.33301C4.22801 21 3.33301 20.105 3.33301 19V9C3.33301 7.895 4.22801 7 5.33301 7H19.333C20.438 7 21.333 7.895 21.333 9V19C21.333 20.105 20.438 21 19.333 21Z" stroke="#0059FF" stroke-width="1.5" stroke-linecap="round" stroke-linejoin="round"/>
<path d="M14.333 6.99982L11.04 3.70682C10.649 3.31582 10.016 3.31582 9.62601 3.70682L6.33301 6.99982" stroke="#0059FF" stroke-width="1.5" stroke-linecap="round" stroke-linejoin="round"/>
<path d="M12.333 4.99982L13.626 3.70682C14.017 3.31582 14.65 3.31582 15.04 3.70682L18.333 6.99982" stroke="#0059FF" stroke-width="1.5" stroke-linecap="round" stroke-linejoin="round"/>
</svg>
