<svg width="32" height="32" viewBox="0 0 32 32" fill="none" xmlns="http://www.w3.org/2000/svg">
<path d="M22.3452 12C24.5555 14.2103 24.5555 17.7931 22.3452 20.0033" stroke="#6394B7" stroke-width="2.5" stroke-linecap="round" stroke-linejoin="round"/>
<path d="M19.1734 14C20.2779 15.1045 20.2779 16.8972 19.1734 18.0017" stroke="#6394B7" stroke-width="2.5" stroke-linecap="round" stroke-linejoin="round"/>
<path d="M7.99658 6.66387C7.99658 5.18992 9.19041 3.99609 10.6644 3.99609H26.671C28.145 3.99609 29.3388 5.18992 29.3388 6.66387V25.3383C29.3388 26.8123 28.145 28.0061 26.671 28.0061H10.6644C9.19041 28.0061 7.99658 26.8123 7.99658 25.3383" stroke="#6394B7" stroke-width="2.5" stroke-linecap="round" stroke-linejoin="round"/>
<path fill-rule="evenodd" clip-rule="evenodd" d="M2.66113 13.6002V18.4022C2.66113 19.7281 3.73625 20.8032 5.06213 20.8032H12.2651C13.5924 20.8032 14.6661 19.7281 14.6661 18.4022V13.6002C14.6661 12.273 13.591 11.1992 12.2651 11.1992H5.06213C3.73625 11.1992 2.66113 12.273 2.66113 13.6002Z" stroke="#6394B7" stroke-width="2.5" stroke-linecap="round" stroke-linejoin="round"/>
<path d="M14.6661 14.7998H2.66113" stroke="#6394B7" stroke-width="2.5" stroke-linecap="round" stroke-linejoin="round"/>
</svg>
