<svg width="24" height="24" viewBox="0 0 24 24" fill="none" xmlns="http://www.w3.org/2000/svg">
<path d="M1 20.9999V20.9999C1 19.0009 2.62 17.3809 4.619 17.3809H8.238C10.237 17.3809 11.857 19.0009 11.857 20.9999V20.9999" stroke="#6394B7" stroke-width="1.5" stroke-linecap="round" stroke-linejoin="round"/>
<path d="M8.66837 9.2606C9.90516 10.4974 9.90516 12.5026 8.66837 13.7394C7.43158 14.9762 5.42635 14.9762 4.18956 13.7394C2.95277 12.5026 2.95277 10.4974 4.18956 9.2606C5.42635 8.02381 7.43158 8.02381 8.66837 9.2606" stroke="#6394B7" stroke-width="1.5" stroke-linecap="round" stroke-linejoin="round"/>
<path d="M18.0959 13.808C20.8039 13.808 22.9999 11.612 22.9999 8.904C22.9999 6.196 20.8049 4 18.0959 4C15.3869 4 13.1919 6.196 13.1919 8.904" stroke="#6394B7" stroke-width="1.5" stroke-linecap="round" stroke-linejoin="round"/>
<path d="M18.1011 13.8128C17.3631 13.8128 16.6641 13.6498 16.0361 13.3588L13.0181 13.9998L13.6491 10.9758C13.3561 10.3458 13.1921 9.64381 13.1921 8.90381" stroke="#6394B7" stroke-width="1.5" stroke-linecap="round" stroke-linejoin="round"/>
<path d="M15.8134 8.96464C15.833 8.98417 15.833 9.01583 15.8134 9.03536C15.7939 9.05488 15.7622 9.05488 15.7427 9.03536C15.7232 9.01583 15.7232 8.98417 15.7427 8.96464C15.7622 8.94512 15.7939 8.94512 15.8134 8.96464" stroke="#6394B7" stroke-width="1.5" stroke-linecap="round" stroke-linejoin="round"/>
<path d="M18.0634 8.96464C18.083 8.98417 18.083 9.01583 18.0634 9.03536C18.0439 9.05488 18.0122 9.05488 17.9927 9.03536C17.9732 9.01583 17.9732 8.98417 17.9927 8.96464C18.0122 8.94512 18.0439 8.94512 18.0634 8.96464" stroke="#6394B7" stroke-width="1.5" stroke-linecap="round" stroke-linejoin="round"/>
<path d="M20.3134 8.96464C20.333 8.98417 20.333 9.01583 20.3134 9.03536C20.2939 9.05488 20.2622 9.05488 20.2427 9.03536C20.2232 9.01583 20.2232 8.98417 20.2427 8.96464C20.2622 8.94512 20.2939 8.94512 20.3134 8.96464" stroke="#6394B7" stroke-width="1.5" stroke-linecap="round" stroke-linejoin="round"/>
</svg>
