<svg width="89" height="88" viewBox="0 0 89 88" fill="none" xmlns="http://www.w3.org/2000/svg">
<rect x="0.5" width="88" height="88" rx="16" fill="#6394B7"/>
<path d="M23.5 28.8332H30.6633" stroke="white" stroke-width="3.5" stroke-linecap="round" stroke-linejoin="round"/>
<path d="M40.589 24.7085C42.867 26.9866 42.867 30.6801 40.589 32.9581C38.3109 35.2362 34.6175 35.2362 32.3394 32.9581C30.0613 30.6801 30.0613 26.9866 32.3394 24.7085C34.6175 22.4305 38.3109 22.4305 40.589 24.7085" stroke="white" stroke-width="3.5" stroke-linecap="round" stroke-linejoin="round"/>
<path d="M42.3066 28.8332H65.5" stroke="white" stroke-width="3.5" stroke-linecap="round" stroke-linejoin="round"/>
<path d="M40.589 24.7085C42.867 26.9866 42.867 30.6801 40.589 32.9581C38.3109 35.2362 34.6175 35.2362 32.3394 32.9581C30.0613 30.6801 30.0613 26.9866 32.3394 24.7085C34.6175 22.4305 38.3109 22.4305 40.589 24.7085" stroke="white" stroke-width="3.5" stroke-linecap="round" stroke-linejoin="round"/>
<path d="M65.5001 44.0002H58.3601" stroke="white" stroke-width="3.5" stroke-linecap="round" stroke-linejoin="round"/>
<path d="M46.6933 44.0002H23.5" stroke="white" stroke-width="3.5" stroke-linecap="round" stroke-linejoin="round"/>
<path d="M56.6608 39.875C58.9388 42.1531 58.9388 45.8466 56.6608 48.1246C54.3827 50.4027 50.6892 50.4027 48.4112 48.1246C46.1331 45.8466 46.1331 42.1531 48.4112 39.875C50.6892 37.597 54.3827 37.597 56.6608 39.875" stroke="white" stroke-width="3.5" stroke-linecap="round" stroke-linejoin="round"/>
<path d="M42.3066 59.1667H65.5" stroke="white" stroke-width="3.5" stroke-linecap="round" stroke-linejoin="round"/>
<path d="M23.5 59.1667H30.64" stroke="white" stroke-width="3.5" stroke-linecap="round" stroke-linejoin="round"/>
<path d="M40.589 55.042C42.867 57.3201 42.867 61.0136 40.589 63.2916C38.3109 65.5697 34.6175 65.5697 32.3394 63.2916C30.0613 61.0136 30.0613 57.3201 32.3394 55.042C34.6175 52.764 38.3109 52.764 40.589 55.042" stroke="white" stroke-width="3.5" stroke-linecap="round" stroke-linejoin="round"/>
</svg>
