<svg width="24" height="25" viewBox="0 0 24 25" fill="none" xmlns="http://www.w3.org/2000/svg">
<path fill-rule="evenodd" clip-rule="evenodd" d="M13.0005 14.2456C11.8954 14.2456 10.9996 15.1414 10.9996 16.2465V17.2469C10.9996 18.3519 11.8954 19.2477 13.0005 19.2477H13.8682V20.7473C13.8682 20.9404 13.9793 21.1162 14.1537 21.1991C14.3281 21.282 14.5346 21.2571 14.6843 21.1352L16.7262 19.4724C16.9047 19.327 17.1278 19.2477 17.3579 19.2477H20.0034C21.1084 19.2477 22.0042 18.3519 22.0042 17.2469V16.2464C22.0042 15.1414 21.1084 14.2456 20.0034 14.2456H13.0005Z" stroke="#6394B7" stroke-width="1.5" stroke-linecap="round" stroke-linejoin="round"/>
<path fill-rule="evenodd" clip-rule="evenodd" d="M3.99668 3.24121C2.89165 3.24121 1.99585 4.13701 1.99585 5.24204V6.24246C1.99585 7.34749 2.89165 8.24329 3.99668 8.24329H6.64212C6.87227 8.24329 7.09538 8.32264 7.27384 8.46797L9.31581 10.1308C9.46551 10.2527 9.67201 10.2776 9.84638 10.1947C10.0208 10.1118 10.1319 9.93601 10.1319 9.74295V8.24329H10.9996C12.1046 8.24329 13.0004 7.34749 13.0004 6.24246V5.24204C13.0004 4.13701 12.1046 3.24121 10.9996 3.24121H3.99668Z" stroke="#6394B7" stroke-width="1.5" stroke-linecap="round" stroke-linejoin="round"/>
<path fill-rule="evenodd" clip-rule="evenodd" d="M1.99585 21.6236V21.2174C1.99915 20.0618 2.93512 19.1259 4.09072 19.1226H6.90389C8.05949 19.1259 8.99547 20.0618 8.99877 21.2174V21.6236C8.99877 21.8999 8.77482 22.1238 8.49856 22.1238H2.49606C2.2198 22.1238 1.99585 21.8999 1.99585 21.6236Z" stroke="#6394B7" stroke-width="1.5" stroke-linecap="round" stroke-linejoin="round"/>
<circle cx="5.49729" cy="14.621" r="2.00083" stroke="#6394B7" stroke-width="1.5" stroke-linecap="round" stroke-linejoin="round"/>
<path fill-rule="evenodd" clip-rule="evenodd" d="M15.0012 10.6192V10.213C15.0045 9.05744 15.9405 8.12146 17.0961 8.11816H19.9093C21.0649 8.12146 22.0008 9.05744 22.0041 10.213V10.6192C22.0041 10.8955 21.7802 11.1194 21.5039 11.1194H15.5014C15.2252 11.1194 15.0012 10.8955 15.0012 10.6192Z" stroke="#6394B7" stroke-width="1.5" stroke-linecap="round" stroke-linejoin="round"/>
<circle cx="18.5027" cy="3.61607" r="2.00083" stroke="#6394B7" stroke-width="1.5" stroke-linecap="round" stroke-linejoin="round"/>
</svg>
