<svg width="45" height="45" viewBox="0 0 45 45" fill="none" xmlns="http://www.w3.org/2000/svg">
<path fill-rule="evenodd" clip-rule="evenodd" d="M37.5 20.9663C37.5 29.4806 31.1006 37.4419 22.5 39.375C13.8994 37.4419 7.5 29.4806 7.5 20.9663V13.5806C7.5 12.0581 8.42063 10.6856 9.83063 10.11L19.2056 6.27377C21.3169 5.40939 23.6831 5.40939 25.7944 6.27377L35.1694 10.11C36.5794 10.6875 37.5 12.0581 37.5 13.5806V20.9663V20.9663Z" stroke="#6394B7" stroke-width="2.5" stroke-linecap="round" stroke-linejoin="round"/>
<path fill-rule="evenodd" clip-rule="evenodd" d="M22.5 18.0788C23.0025 17.5125 23.8706 16.875 25.1944 16.875C27.5081 16.875 29.0625 18.9694 29.0625 20.9212C29.0625 24.9994 23.7975 28.125 22.5 28.125C21.2025 28.125 15.9375 24.9994 15.9375 20.9212C15.9375 18.9694 17.49 16.875 19.8056 16.875C21.1294 16.875 21.9975 17.5125 22.5 18.0788Z" stroke="#6394B7" stroke-width="2.5" stroke-linecap="round" stroke-linejoin="round"/>
</svg>
