<svg width="89" height="88" viewBox="0 0 89 88" fill="none" xmlns="http://www.w3.org/2000/svg">
<rect x="0.5" width="88" height="88" rx="16" fill="#6394B7"/>
<path d="M56.1667 35.8335V40.5002" stroke="white" stroke-width="3.5" stroke-linecap="round" stroke-linejoin="round"/>
<path d="M50.723 38.5562V44.9845C50.723 45.7498 50.359 46.4638 49.729 46.9002C48.6743 47.6282 46.8426 48.5895 44.514 48.5895C42.1853 48.5895 40.342 47.6258 39.2803 46.9002C38.6456 46.4662 38.2793 45.7498 38.2793 44.9798V38.5562" stroke="white" stroke-width="3.5" stroke-linecap="round" stroke-linejoin="round"/>
<path fill-rule="evenodd" clip-rule="evenodd" d="M59.501 55.6667H29.499C26.1857 55.6667 23.5 52.981 23.5 49.6677V28.999C23.5 25.6857 26.1857 23 29.499 23H59.4987C62.8143 23 65.5 25.6857 65.5 28.999V49.6653C65.5 52.981 62.8143 55.6667 59.501 55.6667Z" stroke="white" stroke-width="3.5" stroke-linecap="round" stroke-linejoin="round"/>
<path d="M49.1666 55.6665L50.3333 64.9998" stroke="white" stroke-width="3.5" stroke-linecap="round" stroke-linejoin="round"/>
<path d="M39.8333 55.6665L38.6666 64.9998" stroke="white" stroke-width="3.5" stroke-linecap="round" stroke-linejoin="round"/>
<path d="M35.4934 65.0002H53.5067" stroke="white" stroke-width="3.5" stroke-linecap="round" stroke-linejoin="round"/>
<path fill-rule="evenodd" clip-rule="evenodd" d="M32.8333 35.8333L44.4999 41.6667L56.1666 35.8333L44.4999 30L32.8333 35.8333Z" stroke="white" stroke-width="3.5" stroke-linecap="round" stroke-linejoin="round"/>
</svg>
