<svg width="33" height="33" viewBox="0 0 33 33" fill="none" xmlns="http://www.w3.org/2000/svg">
<path fill-rule="evenodd" clip-rule="evenodd" d="M18.194 11.6875C19.6487 11.6875 20.625 12.9676 20.625 14.1597C20.625 16.5797 16.5743 18.5625 16.5 18.5625C16.4257 18.5625 12.375 16.5811 12.375 14.1597C12.375 12.9676 13.3513 11.6875 14.806 11.6875C15.6379 11.6875 16.1837 12.0766 16.5 12.4231C16.8163 12.0766 17.3621 11.6875 18.194 11.6875Z" stroke="#6394B7" stroke-width="2.5" stroke-linecap="round" stroke-linejoin="round"/>
<path fill-rule="evenodd" clip-rule="evenodd" d="M12.0808 23.375H8.25C6.73062 23.375 5.5 22.1444 5.5 20.625V8.25C5.5 6.73062 6.73062 5.5 8.25 5.5H24.75C26.2694 5.5 27.5 6.73062 27.5 8.25V20.625C27.5 22.1444 26.2694 23.375 24.75 23.375H20.9192L16.5 27.7943L12.0808 23.375Z" stroke="#6394B7" stroke-width="2.5" stroke-linecap="round" stroke-linejoin="round"/>
</svg>
