<svg width="37" height="37" viewBox="0 0 37 37" fill="none" xmlns="http://www.w3.org/2000/svg">
<path d="M14.9307 14.9306C15.2961 13.3557 16.7305 12.2638 18.3458 12.3308C20.1537 12.2307 21.7035 13.6083 21.816 15.4154C21.816 17.7349 18.5001 18.5 18.5001 20.0424" stroke="#6394B7" stroke-width="2.5" stroke-linecap="round" stroke-linejoin="round"/>
<path d="M18.6931 24.2836C18.6929 24.39 18.6066 24.4762 18.5002 24.4762C18.3938 24.4761 18.3075 24.3899 18.3075 24.2834C18.3074 24.177 18.3936 24.0907 18.5 24.0906C18.5512 24.0905 18.6004 24.1108 18.6366 24.147C18.6728 24.1833 18.6931 24.2324 18.6931 24.2836" stroke="#6394B7" stroke-width="2.5" stroke-linecap="round" stroke-linejoin="round"/>
<path fill-rule="evenodd" clip-rule="evenodd" d="M7.13545 26.4556C2.999 20.5515 4.062 12.4649 9.58379 7.83036C15.1056 3.19579 23.2539 3.55102 28.3515 8.64854C33.449 13.7461 33.8042 21.8944 29.1696 27.4162C24.5351 32.938 16.4485 34.001 10.5444 29.8645L6.16153 30.8385L7.13545 26.4556Z" stroke="#6394B7" stroke-width="2.5" stroke-linecap="round" stroke-linejoin="round"/>
</svg>
