<svg width="89" height="88" viewBox="0 0 89 88" fill="none" xmlns="http://www.w3.org/2000/svg">
<rect x="0.5" width="88" height="88" rx="16" fill="#6394B7"/>
<path d="M62.6091 46.3472L65.5165 49.2545L68.4238 46.3472" stroke="white" stroke-width="3.5" stroke-linecap="round" stroke-linejoin="round"/>
<path d="M26.3911 41.6525L23.4837 38.7451L20.5764 41.6525" stroke="white" stroke-width="3.5" stroke-linecap="round" stroke-linejoin="round"/>
<path d="M34.2031 41.0341C34.2031 39.1418 35.7385 37.6064 37.6308 37.6064C39.5231 37.6064 41.0585 39.1418 41.0585 41.0341C41.0585 45.3181 34.2055 45.3181 34.2055 50.3908H41.0585" stroke="white" stroke-width="3.5" stroke-linecap="round" stroke-linejoin="round"/>
<path d="M53.586 44.0699L47.7247 44.0069C47.3933 44.0022 47.125 43.7339 47.125 43.4002V37.6089" stroke="white" stroke-width="3.5" stroke-linecap="round" stroke-linejoin="round"/>
<path d="M53.5768 37.7466V50.3932" stroke="white" stroke-width="3.5" stroke-linecap="round" stroke-linejoin="round"/>
<path d="M60.887 57.1322C57.0346 61.9248 51.1336 65.0002 44.5046 65.0002H44.5H44.4953C32.8893 65.0002 23.4836 55.5968 23.4836 43.9955C23.4836 42.3762 23.6843 40.8058 24.032 39.2915" stroke="white" stroke-width="3.5" stroke-linecap="round" stroke-linejoin="round"/>
<path d="M28.1223 30.868C31.9723 26.0753 37.8756 23 44.5046 23C56.1106 23 65.5163 32.4033 65.5163 44.0047C65.5163 45.624 65.3156 47.1943 64.968 48.7087" stroke="white" stroke-width="3.5" stroke-linecap="round" stroke-linejoin="round"/>
</svg>
