<svg width="39" height="39" viewBox="0 0 39 39" fill="none" xmlns="http://www.w3.org/2000/svg">
<path d="M31.785 11.5684C34.905 16.3946 34.9034 22.6086 31.7867 27.4332" stroke="#6394B7" stroke-width="2.5" stroke-linecap="round" stroke-linejoin="round"/>
<path d="M25.2648 13.735C28.4486 16.9188 28.4486 22.0808 25.2648 25.2646C22.081 28.4484 16.9191 28.4484 13.7353 25.2646C10.5515 22.0808 10.5515 16.9188 13.7353 13.735C16.9191 10.5512 22.081 10.5512 25.2648 13.735" stroke="#6394B7" stroke-width="2.5" stroke-linecap="round" stroke-linejoin="round"/>
<path d="M23.2716 12.2702L27.4706 7.16931C28.0816 6.42668 29.1996 6.37306 29.8805 7.05231L31.9491 9.12093C32.63 9.80181 32.5747 10.9198 31.8321 11.5308L26.7312 15.7298" stroke="#6394B7" stroke-width="2.5" stroke-linecap="round" stroke-linejoin="round"/>
<path d="M15.7284 26.7296L11.5294 31.8305C10.9184 32.5731 9.80037 32.6268 9.1195 31.9475L7.05087 29.8789C6.37 29.198 6.42525 28.08 7.16787 27.469L12.2687 23.27" stroke="#6394B7" stroke-width="2.5" stroke-linecap="round" stroke-linejoin="round"/>
<path d="M12.2703 15.7285L7.16784 11.5295C6.42522 10.9185 6.37159 9.8005 7.05084 9.11962L9.11947 7.051C9.80034 6.37012 10.9183 6.42537 11.5293 7.168L15.7283 12.2689" stroke="#6394B7" stroke-width="2.5" stroke-linecap="round" stroke-linejoin="round"/>
<path d="M26.7296 23.2715L31.8305 27.4705C32.5731 28.0815 32.6268 29.1995 31.9475 29.8804L29.8789 31.949C29.198 32.6299 28.08 32.5746 27.469 31.832L23.27 26.7311" stroke="#6394B7" stroke-width="2.5" stroke-linecap="round" stroke-linejoin="round"/>
<path d="M27.4332 31.7868C22.6086 34.9035 16.393 34.9052 11.5684 31.7852" stroke="#6394B7" stroke-width="2.5" stroke-linecap="round" stroke-linejoin="round"/>
<path d="M7.21334 11.5669C4.09658 16.3915 4.09496 22.6055 7.21496 27.4318" stroke="#6394B7" stroke-width="2.5" stroke-linecap="round" stroke-linejoin="round"/>
<path d="M27.4316 7.21508C22.6054 4.09508 16.3914 4.09671 11.5668 7.21346" stroke="#6394B7" stroke-width="2.5" stroke-linecap="round" stroke-linejoin="round"/>
</svg>
