<svg width="88" height="88" viewBox="0 0 88 88" fill="none" xmlns="http://www.w3.org/2000/svg">
<rect width="88" height="88" rx="16" fill="#6394B7"/>
<path fill-rule="evenodd" clip-rule="evenodd" d="M46.3341 48.9604C43.7557 48.9604 41.6655 51.0507 41.6655 53.6291V55.9634C41.6655 58.5418 43.7557 60.632 46.3341 60.632H48.3588V64.1312C48.3589 64.5817 48.6181 64.9919 49.025 65.1853C49.4318 65.3787 49.9137 65.3206 50.263 65.0362L55.0276 61.1562C55.444 60.8171 55.9646 60.632 56.5016 60.632H62.6743C65.2527 60.632 67.3429 58.5418 67.3429 55.9634V53.6291C67.3429 51.0507 65.2527 48.9604 62.6743 48.9604H46.3341Z" stroke="white" stroke-width="3" stroke-linecap="round" stroke-linejoin="round"/>
<path fill-rule="evenodd" clip-rule="evenodd" d="M25.3253 23.2832C22.7469 23.2832 20.6567 25.3734 20.6567 27.9518V30.2861C20.6567 32.8645 22.7469 34.9547 25.3253 34.9547H31.498C32.0351 34.9547 32.5556 35.1399 32.972 35.479L37.7366 39.3589C38.086 39.6434 38.5678 39.7014 38.9746 39.508C39.3815 39.3147 39.6408 38.9044 39.6408 38.4539V34.9547H41.6655C44.2439 34.9547 46.3341 32.8645 46.3341 30.2861V27.9518C46.3341 25.3734 44.2439 23.2832 41.6655 23.2832H25.3253Z" stroke="white" stroke-width="3" stroke-linecap="round" stroke-linejoin="round"/>
<path fill-rule="evenodd" clip-rule="evenodd" d="M20.6567 66.1761V65.2284C20.6644 62.532 22.8484 60.348 25.5448 60.3403H32.1088C34.8052 60.348 36.9892 62.532 36.9969 65.2284V66.1761C36.9969 66.8207 36.4743 67.3432 35.8297 67.3432H21.8239C21.1793 67.3432 20.6567 66.8207 20.6567 66.1761Z" stroke="white" stroke-width="3" stroke-linecap="round" stroke-linejoin="round"/>
<ellipse cx="28.8268" cy="49.8356" rx="4.66861" ry="4.66861" stroke="white" stroke-width="3" stroke-linecap="round" stroke-linejoin="round"/>
<path fill-rule="evenodd" clip-rule="evenodd" d="M51.0029 40.4984V39.5506C51.0106 36.8542 53.1946 34.6703 55.891 34.6626H62.455C65.1514 34.6703 67.3354 36.8542 67.3431 39.5506V40.4984C67.3431 41.143 66.8205 41.6655 66.1759 41.6655H52.1701C51.5255 41.6655 51.0029 41.143 51.0029 40.4984Z" stroke="white" stroke-width="3" stroke-linecap="round" stroke-linejoin="round"/>
<ellipse cx="59.173" cy="24.1584" rx="4.66861" ry="4.66861" stroke="white" stroke-width="3" stroke-linecap="round" stroke-linejoin="round"/>
</svg>
