<svg width="32" height="32" viewBox="0 0 32 32" fill="none" xmlns="http://www.w3.org/2000/svg">
<path fill-rule="evenodd" clip-rule="evenodd" d="M16.8392 4.87142C16.3499 5.2673 15.6504 5.2673 15.1611 4.87142C14.0917 4.01799 12.6604 3.7701 11.3663 4.21419C10.0721 4.65827 9.09458 5.73276 8.77448 7.063C8.66128 7.58057 8.25605 7.98423 7.73805 8.09543C6.21523 8.4045 4.94599 9.45098 4.35228 10.887C3.75858 12.3229 3.91822 13.9602 4.77815 15.2544C5.08801 15.7081 5.08801 16.3054 4.77815 16.759C3.91822 18.0533 3.75858 19.6905 4.35228 21.1265C4.94599 22.5625 6.21523 23.6089 7.73805 23.918C8.25605 24.0292 8.66128 24.4329 8.77448 24.9504C9.09632 26.2795 10.0746 27.3522 11.3685 27.7949C12.6623 28.2375 14.0926 27.9888 15.1611 27.1354C15.6504 26.7395 16.3499 26.7395 16.8392 27.1354C17.9095 27.9888 19.3418 28.2358 20.6362 27.7903C21.9306 27.3448 22.9075 26.2685 23.2258 24.9371C23.339 24.4195 23.7443 24.0159 24.2623 23.9047C25.7853 23.5954 27.0546 22.5486 27.648 21.1123C28.2415 19.6759 28.0814 18.0385 27.2208 16.7444C26.9122 16.2913 26.9122 15.6955 27.2208 15.2424C28.0814 13.9483 28.2415 12.3108 27.648 10.8745C27.0546 9.43818 25.7853 8.39134 24.2623 8.08209C23.7443 7.97089 23.339 7.56723 23.2258 7.04966C22.904 5.72058 21.9257 4.64787 20.6319 4.20523C19.338 3.76259 17.9077 4.01131 16.8392 4.86475V4.87142Z" stroke="#0059FF" stroke-width="2" stroke-linecap="round" stroke-linejoin="round"/>
<path d="M16 5.16626V26.8326" stroke="#0059FF" stroke-width="2" stroke-linecap="round" stroke-linejoin="round"/>
<path d="M20.0017 21.3357C20.0017 19.8624 21.1961 18.668 22.6695 18.668" stroke="#0059FF" stroke-width="2" stroke-linecap="round" stroke-linejoin="round"/>
<path d="M11.9983 10.6646C11.9983 12.1379 10.8039 13.3323 9.33057 13.3323" stroke="#0059FF" stroke-width="2" stroke-linecap="round" stroke-linejoin="round"/>
<path d="M11.9983 21.3357C11.9983 19.8624 10.8039 18.668 9.33057 18.668" stroke="#0059FF" stroke-width="2" stroke-linecap="round" stroke-linejoin="round"/>
<path d="M20.0017 10.6646C20.0017 12.1379 21.1961 13.3323 22.6695 13.3323" stroke="#0059FF" stroke-width="2" stroke-linecap="round" stroke-linejoin="round"/>
</svg>
