<svg width="24" height="24" viewBox="0 0 24 24" fill="none" xmlns="http://www.w3.org/2000/svg">
<path fill-rule="evenodd" clip-rule="evenodd" d="M12.6294 3.65368C12.2624 3.9506 11.7378 3.9506 11.3709 3.65368C10.5688 3.01362 9.4953 2.8277 8.5247 3.16076C7.5541 3.49382 6.82094 4.29969 6.58086 5.29737C6.49596 5.68555 6.19204 5.98829 5.80354 6.07169C4.66142 6.3035 3.70949 7.08835 3.26421 8.16534C2.81893 9.24232 2.93867 10.4703 3.58361 11.4409C3.81601 11.7812 3.81601 12.2291 3.58361 12.5694C2.93867 13.5401 2.81893 14.768 3.26421 15.845C3.70949 16.922 4.66142 17.7068 5.80354 17.9386C6.19204 18.022 6.49596 18.3248 6.58086 18.713C6.82224 19.7098 7.55593 20.5143 8.52634 20.8463C9.49674 21.1783 10.5695 20.9917 11.3709 20.3516C11.7378 20.0547 12.2624 20.0547 12.6294 20.3516C13.4321 20.9917 14.5064 21.177 15.4772 20.8428C16.448 20.5087 17.1806 19.7015 17.4194 18.703C17.5043 18.3148 17.8082 18.012 18.1967 17.9286C19.339 17.6967 20.2909 16.9116 20.736 15.8343C21.1811 14.7571 21.061 13.529 20.4156 12.5584C20.1841 12.2186 20.1841 11.7717 20.4156 11.4319C21.061 10.4613 21.1811 9.23324 20.736 8.156C20.2909 7.07876 19.339 6.29363 18.1967 6.06169C17.8082 5.97829 17.5043 5.67554 17.4194 5.28736C17.178 4.29055 16.4443 3.48602 15.4739 3.15404C14.5035 2.82206 13.4308 3.0086 12.6294 3.64868V3.65368Z" stroke="#0059FF" stroke-width="2" stroke-linecap="round" stroke-linejoin="round"/>
<path d="M12.0002 3.87476V20.1245" stroke="#0059FF" stroke-width="2" stroke-linecap="round" stroke-linejoin="round"/>
<path d="M15.0015 16.0018C15.0015 14.8968 15.8973 14.001 17.0023 14.001" stroke="#0059FF" stroke-width="2" stroke-linecap="round" stroke-linejoin="round"/>
<path d="M8.99888 7.99854C8.99888 9.10356 8.10308 9.99937 6.99805 9.99937" stroke="#0059FF" stroke-width="2" stroke-linecap="round" stroke-linejoin="round"/>
<path d="M8.99888 16.0018C8.99888 14.8968 8.10308 14.001 6.99805 14.001" stroke="#0059FF" stroke-width="2" stroke-linecap="round" stroke-linejoin="round"/>
<path d="M15.0015 7.99854C15.0015 9.10356 15.8973 9.99937 17.0023 9.99937" stroke="#0059FF" stroke-width="2" stroke-linecap="round" stroke-linejoin="round"/>
</svg>
