<svg width="24" height="24" viewBox="0 0 24 24" fill="none" xmlns="http://www.w3.org/2000/svg">
<path d="M21.0041 12.0001C21.0041 16.9727 16.973 21.0038 12.0003 21.0038C7.0277 21.0038 2.99658 16.9727 2.99658 12.0001C2.99658 7.02745 7.0277 2.99634 12.0003 2.99634" stroke="#0059FF" stroke-width="2" stroke-linecap="round" stroke-linejoin="round"/>
<path fill-rule="evenodd" clip-rule="evenodd" d="M18.3427 2.38808C18.4746 2.14657 18.7278 1.99634 19.003 1.99634C19.2782 1.99634 19.5314 2.14657 19.6633 2.38808L20.2465 3.45352C20.3155 3.58047 20.4197 3.68472 20.5467 3.75365L21.6111 4.33589C21.8531 4.46791 22.0036 4.72154 22.0036 4.99717C22.0036 5.2728 21.8531 5.52642 21.6111 5.65844L20.5467 6.24168C20.4195 6.31034 20.3152 6.41466 20.2465 6.54181L19.6633 7.60625C19.5314 7.84776 19.2782 7.99799 19.003 7.99799C18.7278 7.99799 18.4746 7.84776 18.3427 7.60625L17.7595 6.54081C17.6908 6.41366 17.5865 6.30934 17.4594 6.24068L16.3949 5.65844C16.153 5.52642 16.0024 5.2728 16.0024 4.99717C16.0024 4.72154 16.153 4.46791 16.3949 4.33589L17.4594 3.75365C17.5863 3.68472 17.6906 3.58047 17.7595 3.45352L18.3427 2.38808Z" stroke="#0059FF" stroke-width="2" stroke-linecap="round" stroke-linejoin="round"/>
<path d="M13.2505 9.99927H15.7515C16.0278 9.99927 16.2517 10.2232 16.2517 10.4995V15.5016C16.2517 15.7778 16.0278 16.0018 15.7515 16.0018H13.2505" stroke="#0059FF" stroke-width="2" stroke-linecap="round" stroke-linejoin="round"/>
<path d="M10.2493 16.0017H7.74826C7.472 16.0017 7.24805 15.7777 7.24805 15.5015V12.5002C7.24805 12.224 7.472 12 7.74826 12H10.2493" stroke="#0059FF" stroke-width="2" stroke-linecap="round" stroke-linejoin="round"/>
<path fill-rule="evenodd" clip-rule="evenodd" d="M13.2508 16.0018H10.2495V7.49826C10.2495 7.222 10.4735 6.99805 10.7497 6.99805H12.7506C13.0268 6.99805 13.2508 7.222 13.2508 7.49826V16.0018Z" stroke="#0059FF" stroke-width="2" stroke-linecap="round" stroke-linejoin="round"/>
</svg>
