<svg width="32" height="32" viewBox="0 0 32 32" fill="none" xmlns="http://www.w3.org/2000/svg">
<path d="M28.0051 16.0001C28.0051 22.6303 22.6303 28.0051 16.0001 28.0051C9.36994 28.0051 3.99512 22.6303 3.99512 16.0001C3.99512 9.36994 9.36994 3.99512 16.0001 3.99512" stroke="#0059FF" stroke-width="2" stroke-linecap="round" stroke-linejoin="round"/>
<path fill-rule="evenodd" clip-rule="evenodd" d="M24.4568 3.18419C24.6327 2.86218 24.9703 2.66187 25.3372 2.66187C25.7041 2.66187 26.0417 2.86218 26.2176 3.18419L26.9952 4.60478C27.0871 4.77404 27.2261 4.91304 27.3954 5.00494L28.8146 5.78127C29.1372 5.9573 29.338 6.29546 29.338 6.66297C29.338 7.03047 29.1372 7.36864 28.8146 7.54467L27.3954 8.32233C27.2258 8.41386 27.0868 8.55296 26.9952 8.72249L26.2176 10.1418C26.0417 10.4638 25.7041 10.6641 25.3372 10.6641C24.9703 10.6641 24.6327 10.4638 24.4568 10.1418L23.6792 8.72116C23.5876 8.55162 23.4485 8.41253 23.279 8.32099L21.8597 7.54467C21.5371 7.36864 21.3364 7.03047 21.3364 6.66297C21.3364 6.29546 21.5371 5.9573 21.8597 5.78127L23.279 5.00494C23.4483 4.91304 23.5873 4.77404 23.6792 4.60478L24.4568 3.18419Z" stroke="#0059FF" stroke-width="2" stroke-linecap="round" stroke-linejoin="round"/>
<path d="M17.6675 13.3323H21.0022C21.3705 13.3323 21.6691 13.6309 21.6691 13.9992V20.6687C21.6691 21.037 21.3705 21.3356 21.0022 21.3356H17.6675" stroke="#0059FF" stroke-width="2" stroke-linecap="round" stroke-linejoin="round"/>
<path d="M13.6657 21.3356H10.331C9.96266 21.3356 9.66406 21.037 9.66406 20.6686V16.6669C9.66406 16.2986 9.96266 16 10.331 16H13.6657" stroke="#0059FF" stroke-width="2" stroke-linecap="round" stroke-linejoin="round"/>
<path fill-rule="evenodd" clip-rule="evenodd" d="M17.6674 21.3356H13.6658V9.99751C13.6658 9.62917 13.9644 9.33057 14.3327 9.33057H17.0005C17.3688 9.33057 17.6674 9.62917 17.6674 9.99751V21.3356Z" stroke="#0059FF" stroke-width="2" stroke-linecap="round" stroke-linejoin="round"/>
</svg>
