<svg width="24" height="24" viewBox="0 0 24 24" fill="none" xmlns="http://www.w3.org/2000/svg">
<rect x="9.00049" y="9.00049" width="6.001" height="6.001" rx="1.49906" stroke="#0059FF" stroke-width="2" stroke-linecap="round" stroke-linejoin="round"/>
<path d="M21.0037 15.0014H18.0024" stroke="#0059FF" stroke-width="2" stroke-linecap="round" stroke-linejoin="round"/>
<path d="M5.99783 8.99899H2.99658" stroke="#0059FF" stroke-width="2" stroke-linecap="round" stroke-linejoin="round"/>
<path d="M5.99783 15.0014H2.99658" stroke="#0059FF" stroke-width="2" stroke-linecap="round" stroke-linejoin="round"/>
<path d="M8.99874 2.99634V5.99759" stroke="#0059FF" stroke-width="2" stroke-linecap="round" stroke-linejoin="round"/>
<path d="M8.99874 18.0027V21.0039" stroke="#0059FF" stroke-width="2" stroke-linecap="round" stroke-linejoin="round"/>
<path d="M15.0012 18.0027V21.0039" stroke="#0059FF" stroke-width="2" stroke-linecap="round" stroke-linejoin="round"/>
<path d="M12.0007 18.0027V21.0039" stroke="#0059FF" stroke-width="2" stroke-linecap="round" stroke-linejoin="round"/>
<path d="M10.9996 5.99756H8.99881C7.34126 5.99756 5.99756 7.34126 5.99756 8.99881V15.0013C5.99756 16.6589 7.34126 18.0026 8.99881 18.0026H15.0013C16.6589 18.0026 18.0026 16.6589 18.0026 15.0013V13.0005" stroke="#0059FF" stroke-width="2" stroke-linecap="round" stroke-linejoin="round"/>
<path d="M14.001 5.99756V5.99756C16.211 5.99756 18.0026 7.78917 18.0026 9.99923V9.99923" stroke="#0059FF" stroke-width="2" stroke-linecap="round" stroke-linejoin="round"/>
<path d="M14.001 2.99634V2.99634C17.8686 2.99634 21.0039 6.13165 21.0039 9.99925V9.99925" stroke="#0059FF" stroke-width="2" stroke-linecap="round" stroke-linejoin="round"/>
<path d="M5.99783 12.0009H2.99658" stroke="#0059FF" stroke-width="2" stroke-linecap="round" stroke-linejoin="round"/>
</svg>
