<svg width="24" height="24" viewBox="0 0 24 24" fill="none" xmlns="http://www.w3.org/2000/svg">
<path d="M14.0012 2.99634H5.99783C4.34029 2.99634 2.99658 4.34004 2.99658 5.99759V15.0013C2.99658 16.6589 4.34029 18.0026 5.99783 18.0026H8.00567V20.4465C8.00567 20.6604 8.12825 20.8553 8.321 20.9479C8.51375 21.0406 8.74254 21.0145 8.90953 20.8809L12.5075 18.0026H18.0028C19.6604 18.0026 21.0041 16.6589 21.0041 15.0013V9.99925" stroke="#0059FF" stroke-width="2" stroke-linecap="round" stroke-linejoin="round"/>
<path d="M6.99805 13.0005H16.0018" stroke="#0059FF" stroke-width="2" stroke-linecap="round" stroke-linejoin="round"/>
<path d="M6.99805 8.99899H10.9997" stroke="#0059FF" stroke-width="2" stroke-linecap="round" stroke-linejoin="round"/>
<path fill-rule="evenodd" clip-rule="evenodd" d="M20.7109 4.21832L19.782 3.28936C19.5944 3.10174 19.3399 2.99634 19.0746 2.99634C18.8093 2.99634 18.5548 3.10174 18.3672 3.28936L15.2945 6.36206C15.1069 6.54968 15.0015 6.80414 15.0015 7.06947V8.49863C15.0015 8.77489 15.2254 8.99884 15.5017 8.99884H16.9308C17.1961 8.99884 17.4506 8.89344 17.6382 8.70582L20.7109 5.63309C21.1016 5.24241 21.1016 4.609 20.7109 4.21832Z" stroke="#0059FF" stroke-width="2" stroke-linecap="round" stroke-linejoin="round"/>
</svg>
