<svg width="32" height="32" viewBox="0 0 32 32" fill="none" xmlns="http://www.w3.org/2000/svg">
<path d="M18.6679 3.99512H7.99678C5.78672 3.99512 3.99512 5.78672 3.99512 7.99678V20.0018C3.99512 22.2118 5.78672 24.0034 7.99678 24.0034H10.6739V27.262C10.6739 27.5471 10.8373 27.807 11.0943 27.9306C11.3513 28.0541 11.6564 28.0194 11.8791 27.8412L16.6764 24.0034H24.0034C26.2135 24.0034 28.0051 22.2118 28.0051 20.0018V13.3323" stroke="#0059FF" stroke-width="2" stroke-linecap="round" stroke-linejoin="round"/>
<path d="M9.33057 17.3339H21.3356" stroke="#0059FF" stroke-width="2" stroke-linecap="round" stroke-linejoin="round"/>
<path d="M9.33057 11.9985H14.6661" stroke="#0059FF" stroke-width="2" stroke-linecap="round" stroke-linejoin="round"/>
<path fill-rule="evenodd" clip-rule="evenodd" d="M27.6143 5.62442L26.3758 4.38582C26.1256 4.13566 25.7863 3.99512 25.4326 3.99512C25.0788 3.99512 24.7395 4.13566 24.4893 4.38582L20.3924 8.48275C20.1422 8.7329 20.0017 9.07218 20.0017 9.42595V11.3315C20.0017 11.6999 20.3003 11.9985 20.6687 11.9985H22.5741C22.9279 11.9985 23.2672 11.8579 23.5173 11.6078L27.6143 7.51078C28.1352 6.98988 28.1352 6.14534 27.6143 5.62442Z" stroke="#0059FF" stroke-width="2" stroke-linecap="round" stroke-linejoin="round"/>
</svg>
