<svg width="32" height="32" viewBox="0 0 32 32" fill="none" xmlns="http://www.w3.org/2000/svg">
<path d="M14.6662 9.33067H5.32901C4.59243 9.33041 3.99538 8.73336 3.99512 7.99678V5.32901C3.99538 4.59243 4.59243 3.99538 5.32901 3.99512H14.6662" stroke="#0059FF" stroke-width="2" stroke-linecap="round" stroke-linejoin="round"/>
<path fill-rule="evenodd" clip-rule="evenodd" d="M6.99637 19.3347H4.99553C4.4431 19.3345 3.99532 18.8867 3.99512 18.3343V16.3334C3.99532 15.781 4.4431 15.3332 4.99553 15.333H6.99637C7.5488 15.3332 7.99659 15.781 7.99678 16.3334V18.3343C7.99659 18.8867 7.5488 19.3345 6.99637 19.3347Z" stroke="#0059FF" stroke-width="2" stroke-linecap="round" stroke-linejoin="round"/>
<path d="M12.2944 17.3339H28.005" stroke="#0059FF" stroke-width="2" stroke-linecap="round" stroke-linejoin="round"/>
<path fill-rule="evenodd" clip-rule="evenodd" d="M6.99637 28.0051H4.99553C4.4431 28.0049 3.99532 27.5571 3.99512 27.0047V25.0038C3.99532 24.4514 4.4431 24.0036 4.99553 24.0034H6.99637C7.5488 24.0036 7.99659 24.4514 7.99678 25.0038V27.0047C7.99659 27.5571 7.5488 28.0049 6.99637 28.0051Z" stroke="#0059FF" stroke-width="2" stroke-linecap="round" stroke-linejoin="round"/>
<path d="M12.2944 26.0043H28.005" stroke="#0059FF" stroke-width="2" stroke-linecap="round" stroke-linejoin="round"/>
<ellipse cx="22.6696" cy="6.6628" rx="4.00167" ry="4.00167" stroke="#0059FF" stroke-width="2" stroke-linecap="round" stroke-linejoin="round"/>
<path d="M28.0052 11.9983L25.4985 9.4917" stroke="#0059FF" stroke-width="2" stroke-linecap="round" stroke-linejoin="round"/>
</svg>
