<svg width="24" height="24" viewBox="0 0 24 24" fill="none" xmlns="http://www.w3.org/2000/svg">
<path d="M10.9999 6.998H3.997C3.44457 6.99781 2.99678 6.55002 2.99658 5.99759V3.99675C2.99678 3.44432 3.44457 2.99654 3.997 2.99634H10.9999" stroke="#0059FF" stroke-width="2" stroke-linecap="round" stroke-linejoin="round"/>
<path fill-rule="evenodd" clip-rule="evenodd" d="M5.24752 14.5013H3.74689C3.33257 14.5011 2.99673 14.1653 2.99658 13.7509V12.2503C2.99673 11.836 3.33257 11.5001 3.74689 11.5H5.24752C5.66184 11.5001 5.99768 11.836 5.99783 12.2503V13.7509C5.99768 14.1653 5.66184 14.5011 5.24752 14.5013Z" stroke="#0059FF" stroke-width="2" stroke-linecap="round" stroke-linejoin="round"/>
<path d="M9.22119 13.0005H21.0041" stroke="#0059FF" stroke-width="2" stroke-linecap="round" stroke-linejoin="round"/>
<path fill-rule="evenodd" clip-rule="evenodd" d="M5.24752 21.0039H3.74689C3.33257 21.0038 2.99673 20.6679 2.99658 20.2536V18.753C2.99673 18.3387 3.33257 18.0028 3.74689 18.0027H5.24752C5.66184 18.0028 5.99768 18.3387 5.99783 18.753V20.2536C5.99768 20.6679 5.66184 21.0038 5.24752 21.0039Z" stroke="#0059FF" stroke-width="2" stroke-linecap="round" stroke-linejoin="round"/>
<path d="M9.22119 19.5031H21.0041" stroke="#0059FF" stroke-width="2" stroke-linecap="round" stroke-linejoin="round"/>
<circle cx="17.0022" cy="4.9971" r="3.00125" stroke="#0059FF" stroke-width="2" stroke-linecap="round" stroke-linejoin="round"/>
<path d="M21.004 8.99888L19.124 7.1189" stroke="#0059FF" stroke-width="2" stroke-linecap="round" stroke-linejoin="round"/>
</svg>
