<svg width="24" height="24" viewBox="0 0 24 24" fill="none" xmlns="http://www.w3.org/2000/svg">
<path d="M4.93691 5.97119C3.87491 7.06119 3.10391 8.43119 2.73291 9.95919" stroke="#0059FF" stroke-width="2" stroke-linecap="round" stroke-linejoin="round"/>
<path d="M9.29004 20.443C9.88104 20.571 10.494 20.642 11.124 20.642C12.016 20.642 12.877 20.506 13.687 20.255" stroke="#0059FF" stroke-width="2" stroke-linecap="round" stroke-linejoin="round"/>
<path d="M2.73389 14.041C3.10489 15.569 3.87589 16.939 4.93789 18.029" stroke="#0059FF" stroke-width="2" stroke-linecap="round" stroke-linejoin="round"/>
<path d="M19.4049 14.4641C18.9859 15.8761 18.2119 17.1331 17.1929 18.1421" stroke="#0059FF" stroke-width="2" stroke-linecap="round" stroke-linejoin="round"/>
<path d="M17.1929 5.85815C18.2119 6.86715 18.9849 8.12415 19.4049 9.53615" stroke="#0059FF" stroke-width="2" stroke-linecap="round" stroke-linejoin="round"/>
<path d="M9.29004 3.55701C9.88104 3.42901 10.494 3.35801 11.124 3.35801C12.016 3.35801 12.877 3.49401 13.687 3.74501" stroke="#0059FF" stroke-width="2" stroke-linecap="round" stroke-linejoin="round"/>
<path d="M21.5339 10.2322C22.5102 11.2085 22.5102 12.7915 21.5339 13.7678C20.5576 14.7441 18.9747 14.7441 17.9983 13.7678C17.022 12.7915 17.022 11.2085 17.9983 10.2322C18.9747 9.25592 20.5576 9.25592 21.5339 10.2322" stroke="#0059FF" stroke-width="2" stroke-linecap="round" stroke-linejoin="round"/>
<path d="M8.82685 17.5694C9.80316 18.5457 9.80316 20.1286 8.82685 21.1049C7.85053 22.0812 6.26763 22.0812 5.29132 21.1049C4.315 20.1286 4.315 18.5457 5.29132 17.5694C6.26763 16.5931 7.85054 16.5931 8.82685 17.5694" stroke="#0059FF" stroke-width="2" stroke-linecap="round" stroke-linejoin="round"/>
<path d="M8.82685 2.89532C9.80316 3.87163 9.80316 5.45454 8.82685 6.43085C7.85053 7.40716 6.26763 7.40716 5.29132 6.43085C4.315 5.45454 4.315 3.87163 5.29132 2.89532C6.26763 1.91901 7.85054 1.91901 8.82685 2.89532" stroke="#0059FF" stroke-width="2" stroke-linecap="round" stroke-linejoin="round"/>
</svg>
