<svg width="32" height="32" viewBox="0 0 32 32" fill="none" xmlns="http://www.w3.org/2000/svg">
<path d="M6.58271 7.96143C5.16671 9.41476 4.13871 11.2414 3.64404 13.2788" stroke="#0059FF" stroke-width="2" stroke-linecap="round" stroke-linejoin="round"/>
<path d="M12.3867 27.2575C13.1747 27.4281 13.9921 27.5228 14.8321 27.5228C16.0214 27.5228 17.1694 27.3415 18.2494 27.0068" stroke="#0059FF" stroke-width="2" stroke-linecap="round" stroke-linejoin="round"/>
<path d="M3.64526 18.7214C4.13993 20.7588 5.16793 22.5854 6.58393 24.0388" stroke="#0059FF" stroke-width="2" stroke-linecap="round" stroke-linejoin="round"/>
<path d="M25.8734 19.2854C25.3147 21.1681 24.2827 22.8441 22.9241 24.1894" stroke="#0059FF" stroke-width="2" stroke-linecap="round" stroke-linejoin="round"/>
<path d="M22.9241 7.81079C24.2827 9.15612 25.3134 10.8321 25.8734 12.7148" stroke="#0059FF" stroke-width="2" stroke-linecap="round" stroke-linejoin="round"/>
<path d="M12.3867 4.7426C13.1747 4.57194 13.9921 4.47727 14.8321 4.47727C16.0214 4.47727 17.1694 4.6586 18.2494 4.99327" stroke="#0059FF" stroke-width="2" stroke-linecap="round" stroke-linejoin="round"/>
<path d="M28.7118 13.6431C30.0136 14.9448 30.0136 17.0554 28.7118 18.3571C27.4101 19.6588 25.2995 19.6588 23.9978 18.3571C22.696 17.0554 22.696 14.9448 23.9978 13.6431C25.2995 12.3413 27.4101 12.3413 28.7118 13.6431" stroke="#0059FF" stroke-width="2" stroke-linecap="round" stroke-linejoin="round"/>
<path d="M11.769 23.4255C13.0707 24.7273 13.0707 26.8378 11.769 28.1396C10.4672 29.4413 8.35667 29.4413 7.05492 28.1396C5.75318 26.8378 5.75318 24.7273 7.05492 23.4255C8.35667 22.1238 10.4672 22.1238 11.769 23.4255" stroke="#0059FF" stroke-width="2" stroke-linecap="round" stroke-linejoin="round"/>
<path d="M11.769 3.86034C13.0707 5.16209 13.0707 7.27264 11.769 8.57438C10.4672 9.87613 8.35667 9.87613 7.05492 8.57438C5.75318 7.27264 5.75318 5.16209 7.05492 3.86034C8.35667 2.5586 10.4672 2.5586 11.769 3.86034" stroke="#0059FF" stroke-width="2" stroke-linecap="round" stroke-linejoin="round"/>
</svg>
