<svg width="24" height="24" viewBox="0 0 24 24" fill="none" xmlns="http://www.w3.org/2000/svg">
<path d="M3.99658 13.0006C3.99658 17.4208 7.5798 21.004 11.9999 21.004C16.42 21.004 20.0032 17.4208 20.0032 13.0006C20.0032 8.58053 16.42 4.99731 11.9999 4.99731H4.997" stroke="#0059FF" stroke-width="2" stroke-linecap="round" stroke-linejoin="round"/>
<path d="M7.99832 1.99585L4.99707 4.9971" stroke="#0059FF" stroke-width="2" stroke-linecap="round" stroke-linejoin="round"/>
<path d="M7.99832 7.99856L4.99707 4.99731" stroke="#0059FF" stroke-width="2" stroke-linecap="round" stroke-linejoin="round"/>
<path d="M12.0003 9.22095C13.1054 9.22095 14.0012 10.1168 14.0012 11.2218C14.0012 12.3268 13.1054 13.2226 12.0003 13.2226C10.8953 13.2226 9.99951 12.3268 9.99951 11.2218C9.99951 10.1168 10.8953 9.22095 12.0003 9.22095" stroke="#0059FF" stroke-width="2" stroke-linecap="round" stroke-linejoin="round"/>
<path d="M16.0019 17.0023C15.8855 16.7095 15.705 16.4466 15.4736 16.2329V16.2329C15.0838 15.8706 14.5713 15.669 14.0391 15.6687H9.96235C9.4298 15.669 8.91703 15.8706 8.52676 16.2329V16.2329C8.2959 16.4471 8.11549 16.7099 7.99854 17.0023" stroke="#0059FF" stroke-width="2" stroke-linecap="round" stroke-linejoin="round"/>
</svg>
