<svg width="32" height="32" viewBox="0 0 32 32" fill="none" xmlns="http://www.w3.org/2000/svg">
<path fill-rule="evenodd" clip-rule="evenodd" d="M10 4H22.0053C25.316 4 28 6.684 28 9.99467V22.0067C28 25.316 25.316 28 22.0053 28H9.99467C6.684 28 4 25.316 4 22.0053V10C4 6.68667 6.68667 4 10 4V4Z" stroke="#0059FF" stroke-width="2" stroke-linecap="round" stroke-linejoin="round"/>
<path d="M14.2453 12.8586H15.8653V20.96H15.8626C14.1946 20.96 12.3613 19.9466 11.0613 18.08C9.10926 15.344 8.57593 13.276 8.57593 12.86" stroke="#0059FF" stroke-width="2" stroke-linecap="round" stroke-linejoin="round"/>
<path d="M22.2106 20.9601C22.2106 20.9601 21.6212 19.7174 20.4252 18.3508C19.6279 17.4161 18.5052 16.9108 17.4839 16.9108C18.5052 16.9108 19.6279 16.4041 20.4252 15.4708C21.6212 14.1028 22.2106 12.8601 22.2106 12.8601" stroke="#0059FF" stroke-width="2" stroke-linecap="round" stroke-linejoin="round"/>
<path d="M17.4839 16.912H15.8625" stroke="#0059FF" stroke-width="2" stroke-linecap="round" stroke-linejoin="round"/>
</svg>
