<svg width="24" height="24" viewBox="0 0 24 24" fill="none" xmlns="http://www.w3.org/2000/svg">
<path fill-rule="evenodd" clip-rule="evenodd" d="M7.5 3H16.504C18.987 3 21 5.013 21 7.496V16.505C21 18.987 18.987 21 16.504 21H7.496C5.013 21 3 18.987 3 16.504V7.5C3 5.015 5.015 3 7.5 3V3Z" stroke="#0059FF" stroke-width="2" stroke-linecap="round" stroke-linejoin="round"/>
<path d="M10.6841 9.64404H11.8991V15.72H11.8971C10.6461 15.72 9.27113 14.96 8.29613 13.56C6.83213 11.508 6.43213 9.95704 6.43213 9.64504" stroke="#0059FF" stroke-width="2" stroke-linecap="round" stroke-linejoin="round"/>
<path d="M16.6578 15.72C16.6578 15.72 16.2158 14.788 15.3188 13.763C14.7208 13.062 13.8788 12.683 13.1128 12.683C13.8788 12.683 14.7208 12.303 15.3188 11.603C16.2158 10.577 16.6578 9.64502 16.6578 9.64502" stroke="#0059FF" stroke-width="2" stroke-linecap="round" stroke-linejoin="round"/>
<path d="M13.113 12.6841H11.897" stroke="#0059FF" stroke-width="2" stroke-linecap="round" stroke-linejoin="round"/>
</svg>
